{
.appVersion = "1252";
DisplayStrings = (
"oebelzb/Placeholder n/Placeholder no/Placeholder o\012nnnn/Placeholder/Placeholder/Placeholder/Placeholder oooo\012o/Placeholder on/Placeholder nllll/Placeholder llll",
"BsHOHLZ/Placeholder EII/Placeholder IIH/Placeholder H\012OOOO/Placeholder/Placeholder/Placeholder/Placeholder OOOO\012HHHH/Placeholder/Placeholder/Placeholder/Placeholder HHHH",
"//"
);
classes = (
{
automatic = 1;

glyphs = (
{
color = 5;
glyphname = A;
lastChange = "2019-08-06 12:42:42 +0000";
layers = (
{
anchors = (
{
name = bottom;
position = "{375, 0}";
},
{
name = ogonek;
position = "{698, 0}";
},
{
name = top;
position = "{375, 705}";
}
);
background = {
anchors = (
{
name = bottom;
position = "{373, 0}";
},
{
name = ogonek;
position = "{696, 0}";
},
{
name = top;
position = "{373, 705}";
}
);
paths = (
{
closed = 1;
nodes = (
"695 0 LINE",
"392 705 LINE",
"352 705 LINE",
"49 0 LINE",
"95 0 LINE",
"183 204 LINE",
"155 195 LINE",
"591 195 LINE",
"563 204 LINE",
"650 0 LINE"
);
},
{
closed = 1;
nodes = (
"386 680 LINE",
"359 680 LINE",
"552 228 LINE",
"574 234 LINE",
"172 234 LINE",
"193 228 LINE"
);
}
);
};
layerId = "B0DFB0A8-5D2F-4351-A1F8-6629D0DA694C";
paths = (
{
closed = 1;
nodes = (
"702 0 LINE",
"399 705 LINE",
"349 705 LINE",
"46 0 LINE",
"102 0 LINE",
"190 204 LINE",
"157 190 LINE",
"593 190 LINE",
"560 204 LINE",
"647 0 LINE"
);
},
{
closed = 1;
nodes = (
"373 633 LINE",
"377 633 LINE",
"549 228 LINE",
"576 240 LINE",
"174 240 LINE",
"200 228 LINE"
);
}
);
width = 748;
},
{
anchors = (
{
name = bottom;
position = "{359, 0}";
},
{
name = ogonek;
position = "{682, 0}";
},
{
name = top;
position = "{359, 705}";
}
);
background = {
paths = (
{
closed = 1;
nodes = (
"81 0 LINE",
"169 204 LINE",
"141 195 LINE",
"577 195 LINE",
"549 204 LINE",
"636 0 LINE",
"681 0 LINE",
"378 705 LINE",
"338 705 LINE",
"35 0 LINE"
);
},
{
closed = 1;
nodes = (
"372 680 LINE",
"345 680 LINE",
"538 228 LINE",
"560 234 LINE",
"158 234 LINE",
"179 228 LINE"
);
}
);
};
layerId = "F1F93986-3ED8-4AAE-84C4-CA3EEECDDFA0";
paths = (
{
closed = 1;
nodes = (
"81 0 LINE",
"169 204 LINE",
"141 195 LINE",
"577 195 LINE",
"549 204 LINE",
"636 0 LINE",
"681 0 LINE",
"378 705 LINE",
"338 705 LINE",
"35 0 LINE"
);
},
{
closed = 1;
nodes = (
"372 680 LINE",
"345 680 LINE",
"538 228 LINE",
"560 234 LINE",
"158 234 LINE",
"179 228 LINE"
);
}
);
width = 716;
}
);
leftKerningGroup = A;
rightKerningGroup = A;
unicode = 0041;
userData = {
anchors = (
);
b = {
};
com.typemytype.robofont.layerData = {
b = {
anchors = (
);
components = (
);
contours = (
{
points = (
{
segmentType = line;
smooth = 0;
x = 403;
y = 502;
},
{
segmentType = line;
smooth = 0;
x = 703;
y = 1275;
},
{
segmentType = line;
smooth = 0;
x = 705;
y = 1275;
},
{
segmentType = line;
smooth = 0;
x = 1004;
y = 502;
}
);
},
{
points = (
{
segmentType = curve;
smooth = 1;
x = 150;
y = 0;
},
{
smooth = 0;
x = 181;
y = 0;
},
{
smooth = 0;
x = 214;
y = 15;
},
{
segmentType = curve;
smooth = 1;
x = 229;
y = 53;
},
{
segmentType = line;
smooth = 0;
x = 356;
y = 373;
},
{
segmentType = line;
smooth = 0;
x = 1051;
y = 373;
},
{
segmentType = line;
smooth = 1;
x = 1179;
y = 53;
},
{
smooth = 0;
x = 1193;
y = 17;
},
{
smooth = 0;
x = 1228;
y = 0;
},
{
segmentType = curve;
smooth = 1;
x = 1260;
y = 0;
},
{
smooth = 0;
x = 1306;
y = 0;
},
{
smooth = 0;
x = 1354;
y = 31;
},
{
segmentType = curve;
smooth = 1;
x = 1354;
y = 80;
},
{
smooth = 0;
x = 1354;
y = 87;
},
{
smooth = 0;
x = 1352;
y = 97;
},
{
segmentType = curve;
smooth = 0;
x = 1349;
y = 108;
},
{
segmentType = line;
smooth = 1;
x = 871;
y = 1288;
},
{
smooth = 0;
x = 817;
y = 1420;
},
{
smooth = 0;
x = 777;
y = 1430;
},
{
segmentType = curve;
smooth = 1;
x = 710;
y = 1430;
},
{
smooth = 0;
x = 644;
y = 1430;
},
{
smooth = 0;
x = 596;
y = 1413;
},
{
segmentType = curve;
smooth = 1;
x = 542;
y = 1280;
},
{
segmentType = line;
smooth = 1;
x = 66;
y = 108;
},
{
smooth = 0;
x = 62;
y = 97;
},
{
smooth = 0;
x = 60;
y = 87;
},
{
segmentType = curve;
smooth = 1;
x = 60;
y = 78;
},
{
smooth = 0;
x = 60;
y = 32;
},
{
smooth = 0;
x = 106;
y = 0;
}
);
}
);
lib = {
};
name = A;
unicodes = (
);
width = 1414;
};
};
components = (
);
contours = {
};
lib = {
};
name = A;
points = {
};
segmentType = line;
unicodes = (
);
width = 1445;
x = 718;
y = 1232;
};
},
{
color = 5;
glyphname = AE;
lastChange = "2019-08-06 12:42:42 +0000";
layers = (
{
anchors = (
{
name = bottom;
position = "{500, 0}";
},
{
name = top;
position = "{499, 705}";
}
);
background = {
anchors = (
{
name = bottom;
position = "{498, 0}";
},
{
name = top;
position = "{497, 705}";
}
);
paths = (
{
closed = 1;
nodes = (
"932 705 LINE",
"433 705 LINE",
"13 0 LINE",
"60 0 LINE",
"183 208 LINE",
"154 195 LINE",
"559 195 LINE",
"538 207 LINE",
"581 0 LINE",
"932 0 LINE",
"932 39 LINE",
"597 39 LINE",
"618 20 LINE",
"549 348 LINE",
"526 338 LINE",
"912 338 LINE",
"912 377 LINE",
"518 377 LINE",
"545 366 LINE",
"477 690 LINE",
"470 666 LINE",
"932 666 LINE"
);
},
{
closed = 1;
nodes = (
"461 676 LINE",
"439 676 LINE",
"534 225 LINE",
"541 234 LINE",
"164 234 LINE",
"193 225 LINE"
);
}
);
};
guideLines = (
{
angle = 101.863;
position = "{510, 338}";
},
{
angle = 101.863;
position = "{545, 413}";
}
);
layerId = "B0DFB0A8-5D2F-4351-A1F8-6629D0DA694C";
paths = (
{
closed = 1;
nodes = (
"944 705 LINE",
"414 705 LINE",
"4 0 LINE",
"62 0 LINE",
"185 208 LINE",
"156 190 LINE",
"561 190 LINE",
"540 207 LINE",
"583 0 LINE",
"944 0 LINE",
"944 50 LINE",
"599 50 LINE",
"630 20 LINE",
"561 348 LINE",
"528 332 LINE",
"924 332 LINE",
"924 382 LINE",
"520 382 LINE",
"557 366 LINE",
"490 690 LINE",
"472 655 LINE",
"944 655 LINE"
);
},
{
closed = 1;
nodes = (
"441 655 LINE",
"446 655 LINE",
"536 225 LINE",
"543 240 LINE",
"166 240 LINE",
"195 225 LINE"
);
}
);
width = 1026;
},
{
anchors = (
{
name = bottom;
position = "{487, 0}";
},
{
name = top;
position = "{486, 705}";
}
);
background = {
paths = (
{
closed = 1;
nodes = (
"921 705 LINE",
"422 705 LINE",
"2 0 LINE",
"49 0 LINE",
"172 208 LINE",
"143 195 LINE",
"548 195 LINE",
"527 207 LINE",
"570 0 LINE",
"921 0 LINE",
"921 39 LINE",
"586 39 LINE",
"607 20 LINE",
"538 348 LINE",
"515 338 LINE",
"901 338 LINE",
"901 377 LINE",
"507 377 LINE",
"534 366 LINE",
"466 690 LINE",
"459 666 LINE",
"921 666 LINE"
);
},
{
closed = 1;
nodes = (
"450 676 LINE",
"428 676 LINE",
"523 225 LINE",
"530 234 LINE",
"153 234 LINE",
"182 225 LINE"
);
}
);
};
guideLines = (
{
angle = 101.863;
position = "{499, 338}";
}
);
layerId = "F1F93986-3ED8-4AAE-84C4-CA3EEECDDFA0";
paths = (
{
closed = 1;
nodes = (
"49 0 LINE",
"172 208 LINE",
"143 195 LINE",
"548 195 LINE",
"527 207 LINE",
"570 0 LINE",
"921 0 LINE",
"921 39 LINE",
"586 39 LINE",
"607 20 LINE",
"538 348 LINE",
"525 338 LINE",
"901 338 LINE",
"901 377 LINE",
"517 377 LINE",
"534 366 LINE",
"466 690 LINE",
"459 666 LINE",
"921 666 LINE",
"921 705 LINE",
"422 705 LINE",
"2 0 LINE"
);
},
{
closed = 1;
nodes = (
"182 225 LINE",
"450 676 LINE",
"428 676 LINE",
"523 225 LINE",
"530 234 LINE",
"173 234 LINE"
);
}
);
width = 971;
}
);
leftKerningGroup = A;
rightKerningGroup = E;
rightMetricsKey = E;
unicode = 00C6;
userData = {
com.typemytype.robofont.layerData = {
b = {
anchors = (
);
components = (
);
contours = (
);
lib = {
};
name = AE;
unicodes = (
);
width = 1976;
};
};
};
},
{
color = 5;
glyphname = B;
lastChange = "2019-08-06 12:42:42 +0000";
layers = (
{
anchors = (
{
name = bottom;
position = "{365, 0}";
},
{
name = top;
position = "{364, 705}";
}
);
background = {
paths = (
{
closed = 1;
nodes = (
"545 372 OFFCURVE",
"605 431 OFFCURVE",
"605 520 CURVE SMOOTH",
"605 641 OFFCURVE",
"524 705 OFFCURVE",
"382 705 CURVE SMOOTH",
"116 705 LINE",
"116 0 LINE",
"393 0 LINE SMOOTH",
"539 0 OFFCURVE",
"621 65 OFFCURVE",
"621 191 CURVE SMOOTH",
"621 292 OFFCURVE",
"556 357 OFFCURVE",
"459 367 CURVE",
"459 353 LINE"
);
},
{
closed = 1;
nodes = (
"501 659 OFFCURVE",
"556 619 OFFCURVE",
"556 526 CURVE SMOOTH",
"556 430 OFFCURVE",
"497 380 OFFCURVE",
"377 380 CURVE SMOOTH",
"164 380 LINE",
"164 659 LINE",
"377 659 LINE SMOOTH"
);
},
{
closed = 1;
nodes = (
"164 46 LINE",
"164 334 LINE",
"392 334 LINE SMOOTH",
"510 334 OFFCURVE",
"572 286 OFFCURVE",
"572 186 CURVE SMOOTH",
"572 86 OFFCURVE",
"517 46 OFFCURVE",
"392 46 CURVE SMOOTH"
);
}
);
};
layerId = "B0DFB0A8-5D2F-4351-A1F8-6629D0DA694C";
paths = (
{
closed = 1;
nodes = (
"562 376 OFFCURVE",
"615 431 OFFCURVE",
"615 520 CURVE SMOOTH",
"615 641 OFFCURVE",
"534 705 OFFCURVE",
"392 705 CURVE SMOOTH",
"114 705 LINE",
"114 0 LINE",
"403 0 LINE SMOOTH",
"549 0 OFFCURVE",
"631 65 OFFCURVE",
"631 191 CURVE SMOOTH",
"631 293 OFFCURVE",
"562 350 OFFCURVE",
"500 360 CURVE",
"500 364 LINE"
);
},
{
closed = 1;
nodes = (
"508 655 OFFCURVE",
"562 611 OFFCURVE",
"562 526 CURVE SMOOTH",
"562 430 OFFCURVE",
"503 382 OFFCURVE",
"387 382 CURVE SMOOTH",
"166 382 LINE",
"166 655 LINE",
"387 655 LINE SMOOTH"
);
},
{
closed = 1;
nodes = (
"166 50 LINE",
"166 332 LINE",
"402 332 LINE SMOOTH",
"516 332 OFFCURVE",
"578 286 OFFCURVE",
"578 186 CURVE SMOOTH",
"578 98 OFFCURVE",
"525 50 OFFCURVE",
"402 50 CURVE SMOOTH"
);
}
);
width = 716;
},
{
anchors = (
{
name = bottom;
position = "{337, 0}";
},
{
name = top;
position = "{336, 705}";
}
);
background = {
anchors = (
{
name = bottom;
position = "{337, 0}";
},
{
name = top;
position = "{336, 705}";
}
);
paths = (
{
closed = 1;
nodes = (
"524 372 OFFCURVE",
"579 431 OFFCURVE",
"579 520 CURVE SMOOTH",
"579 641 OFFCURVE",
"498 705 OFFCURVE",
"356 705 CURVE SMOOTH",
"96 705 LINE",
"96 0 LINE",
"367 0 LINE SMOOTH",
"513 0 OFFCURVE",
"595 65 OFFCURVE",
"595 191 CURVE SMOOTH",
"595 292 OFFCURVE",
"535 357 OFFCURVE",
"433 367 CURVE",
"433 353 LINE"
);
},
{
closed = 1;
nodes = (
"475 666 OFFCURVE",
"535 619 OFFCURVE",
"535 526 CURVE SMOOTH",
"535 430 OFFCURVE",
"471 376 OFFCURVE",
"351 376 CURVE SMOOTH",
"138 376 LINE",
"138 666 LINE",
"351 666 LINE SMOOTH"
);
},
{
closed = 1;
nodes = (
"138 39 LINE",
"138 338 LINE",
"366 338 LINE SMOOTH",
"489 338 OFFCURVE",
"551 286 OFFCURVE",
"551 186 CURVE SMOOTH",
"551 86 OFFCURVE",
"491 39 OFFCURVE",
"366 39 CURVE SMOOTH"
);
},
{
closed = 1;
nodes = (
"613 377 LINE",
"138 377 LINE",
"138 705 LINE",
"96 705 LINE",
"96 0 LINE",
"138 0 LINE",
"138 338 LINE",
"613 338 LINE",
"613 0 LINE",
"655 0 LINE",
"655 705 LINE",
"613 705 LINE"
);
}
);
};
layerId = "F1F93986-3ED8-4AAE-84C4-CA3EEECDDFA0";
paths = (
{
closed = 1;
nodes = (
"521 370 OFFCURVE",
"579 431 OFFCURVE",
"579 520 CURVE SMOOTH",
"579 639 OFFCURVE",
"497 705 OFFCURVE",
"354 705 CURVE SMOOTH",
"96 705 LINE",
"96 0 LINE",
"367 0 LINE SMOOTH",
"513 0 OFFCURVE",
"595 65 OFFCURVE",
"595 191 CURVE SMOOTH",
"595 292 OFFCURVE",
"531 355 OFFCURVE",
"431 365 CURVE",
"431 351 LINE"
);
},
{
closed = 1;
nodes = (
"471 666 OFFCURVE",
"535 615 OFFCURVE",
"535 521 CURVE SMOOTH",
"535 427 OFFCURVE",
"471 376 OFFCURVE",
"351 376 CURVE SMOOTH",
"138 376 LINE",
"138 666 LINE",
"351 666 LINE SMOOTH"
);
},
{
closed = 1;
nodes = (
"138 39 LINE",
"138 337 LINE",
"366 337 LINE SMOOTH",
"489 337 OFFCURVE",
"551 290 OFFCURVE",
"551 188 CURVE SMOOTH",
"551 86 OFFCURVE",
"489 39 OFFCURVE",
"366 39 CURVE SMOOTH"
);
}
);
width = 666;
}
);
leftKerningGroup = H;
leftMetricsKey = H;
rightKerningGroup = B;
unicode = 0042;
userData = {
anchors = (
);
b = {
};
com.typemytype.robofont.layerData = {
b = {
anchors = (
);
components = (
);
contours = (
{
points = (
{
segmentType = curve;
smooth = 1;
x = 266;
y = 0;
},
{
segmentType = line;
smooth = 1;
x = 1035;
y = 0;
},
{
smooth = 0;
x = 1084;
y = 0;
},
{
smooth = 0;
x = 1108;
y = 36;
},
{
segmentType = curve;
smooth = 1;
x = 1108;
y = 73;
},
{
smooth = 0;
x = 1108;
y = 109;
},
{
smooth = 0;
x = 1084;
y = 145;
},
{
segmentType = curve;
smooth = 1;
x = 1035;
y = 145;
},
{
segmentType = line;
smooth = 0;
x = 353;
y = 145;
},
{
segmentType = line;
smooth = 0;
x = 353;
y = 662;
},
{
segmentType = line;
smooth = 1;
x = 975;
y = 662;
},
{
smooth = 0;
x = 1024;
y = 662;
},
{
smooth = 0;
x = 1049;
y = 698;
},
{
segmentType = curve;
smooth = 1;
x = 1049;
y = 734;
},
{
smooth = 0;
x = 1049;
y = 770;
},
{
smooth = 0;
x = 1026;
y = 806;
},
{
segmentType = curve;
smooth = 1;
x = 975;
y = 806;
},
{
segmentType = line;
smooth = 0;
x = 353;
y = 806;
},
{
segmentType = line;
smooth = 0;
x = 353;
y = 1281;
},
{
segmentType = line;
smooth = 1;
x = 1007;
y = 1281;
},
{
smooth = 0;
x = 1056;
y = 1281;
},
{
smooth = 0;
x = 1080;
y = 1317;
},
{
segmentType = curve;
smooth = 1;
x = 1080;
y = 1354;
},
{
smooth = 0;
x = 1080;
y = 1390;
},
{
smooth = 0;
x = 1056;
y = 1426;
},
{
segmentType = curve;
smooth = 1;
x = 1007;
y = 1426;
},
{
segmentType = line;
smooth = 1;
x = 261;
y = 1426;
},
{
smooth = 0;
x = 213;
y = 1426;
},
{
smooth = 0;
x = 178;
y = 1383;
},
{
segmentType = curve;
smooth = 1;
x = 178;
y = 1340;
},
{
segmentType = line;
smooth = 1;
x = 178;
y = 86;
},
{
smooth = 0;
x = 178;
y = 41;
},
{
smooth = 0;
x = 222;
y = 0;
}
);
}
);
lib = {
};
name = B;
unicodes = (
);
width = 1292;
};
};
components = (
);
contours = {
};
lib = {
};
name = B;
points = {
};
segmentType = curve;
unicodes = (
);
width = 1395;
x = 676;
y = 1260;
};
},
{
color = 5;
glyphname = C;
lastChange = "2019-08-06 12:42:42 +0000";
layers = (
{
anchors = (
{
name = bottom;
position = "{394, 0}";
},
{
name = top;
position = "{396, 705}";
}
);
background = {
anchors = (
{
name = bottom;
position = "{392, 0}";
},
{
name = top;
position = "{394, 705}";
}
);
paths = (
{
closed = 1;
nodes = (
"491 -8 OFFCURVE",
"572 24 OFFCURVE",
"633 87 CURVE",
"612 122 LINE",
"546 59 OFFCURVE",
"480 33 OFFCURVE",
"392 33 CURVE SMOOTH",
"221 33 OFFCURVE",
"123 150 OFFCURVE",
"123 353 CURVE SMOOTH",
"123 555 OFFCURVE",
"222 672 OFFCURVE",
"392 672 CURVE SMOOTH",
"480 672 OFFCURVE",
"546 646 OFFCURVE",
"612 583 CURVE",
"633 618 LINE",
"572 681 OFFCURVE",
"491 713 OFFCURVE",
"393 713 CURVE SMOOTH",
"197 713 OFFCURVE",
"79 577 OFFCURVE",
"79 353 CURVE SMOOTH",
"79 128 OFFCURVE",
"198 -8 OFFCURVE",
"393 -8 CURVE SMOOTH"
);
}
);
};
layerId = "B0DFB0A8-5D2F-4351-A1F8-6629D0DA694C";
paths = (
{
closed = 1;
nodes = (
"493 -8 OFFCURVE",
"574 24 OFFCURVE",
"635 87 CURVE",
"614 132 LINE",
"548 69 OFFCURVE",
"482 43 OFFCURVE",
"394 43 CURVE SMOOTH",
"233 43 OFFCURVE",
"136 150 OFFCURVE",
"136 353 CURVE SMOOTH",
"136 555 OFFCURVE",
"232 662 OFFCURVE",
"394 662 CURVE SMOOTH",
"482 662 OFFCURVE",
"548 636 OFFCURVE",
"614 573 CURVE",
"635 618 LINE",
"574 681 OFFCURVE",
"493 713 OFFCURVE",
"395 713 CURVE SMOOTH",
"199 713 OFFCURVE",
"81 577 OFFCURVE",
"81 353 CURVE SMOOTH",
"81 128 OFFCURVE",
"200 -8 OFFCURVE",
"395 -8 CURVE SMOOTH"
);
}
);
width = 701;
},
{
anchors = (
{
name = bottom;
position = "{380, 0}";
},
{
name = top;
position = "{382, 705}";
}
);
background = {
anchors = (
{
name = bottom;
position = "{1180, 0}";
},
{
name = top;
position = "{1182, 705}";
}
);
paths = (
{
closed = 1;
nodes = (
"1366 -8 OFFCURVE",
"1484 130 OFFCURVE",
"1484 353 CURVE SMOOTH",
"1484 576 OFFCURVE",
"1367 713 OFFCURVE",
"1175 713 CURVE SMOOTH",
"983 713 OFFCURVE",
"867 576 OFFCURVE",
"867 352 CURVE SMOOTH",
"867 130 OFFCURVE",
"985 -8 OFFCURVE",
"1175 -8 CURVE SMOOTH"
);
},
{
closed = 1;
nodes = (
"1008 33 OFFCURVE",
"912 151 OFFCURVE",
"912 353 CURVE SMOOTH",
"912 555 OFFCURVE",
"1008 672 OFFCURVE",
"1175 672 CURVE SMOOTH",
"1344 672 OFFCURVE",
"1439 556 OFFCURVE",
"1439 353 CURVE SMOOTH",
"1439 150 OFFCURVE",
"1343 33 OFFCURVE",
"1175 33 CURVE SMOOTH"
);
},
{
closed = 1;
nodes = (
"185 713 OFFCURVE",
"67 575 OFFCURVE",
"67 352 CURVE SMOOTH",
"67 129 OFFCURVE",
"183 -8 OFFCURVE",
"381 -8 CURVE SMOOTH",
"479 -8 OFFCURVE",
"561 24 OFFCURVE",
"622 87 CURVE",
"600 122 LINE",
"534 59 OFFCURVE",
"468 33 OFFCURVE",
"380 33 CURVE SMOOTH",
"208 33 OFFCURVE",
"112 150 OFFCURVE",
"112 352 CURVE SMOOTH",
"112 554 OFFCURVE",
"208 672 OFFCURVE",
"380 672 CURVE SMOOTH",
"468 672 OFFCURVE",
"534 646 OFFCURVE",
"600 583 CURVE",
"622 618 LINE",
"561 681 OFFCURVE",
"479 713 OFFCURVE",
"381 713 CURVE SMOOTH"
);
}
);
};
layerId = "F1F93986-3ED8-4AAE-84C4-CA3EEECDDFA0";
paths = (
{
closed = 1;
nodes = (
"479 -8 OFFCURVE",
"561 24 OFFCURVE",
"619 87 CURVE",
"597 122 LINE",
"534 59 OFFCURVE",
"468 33 OFFCURVE",
"380 33 CURVE SMOOTH",
"208 33 OFFCURVE",
"112 150 OFFCURVE",
"112 353 CURVE SMOOTH",
"112 555 OFFCURVE",
"208 672 OFFCURVE",
"380 672 CURVE SMOOTH",
"468 672 OFFCURVE",
"534 646 OFFCURVE",
"597 583 CURVE",
"619 618 LINE",
"561 681 OFFCURVE",
"479 713 OFFCURVE",
"381 713 CURVE SMOOTH",
"183 713 OFFCURVE",
"67 576 OFFCURVE",
"67 353 CURVE SMOOTH",
"67 129 OFFCURVE",
"183 -8 OFFCURVE",
"381 -8 CURVE SMOOTH"
);
}
);
width = 667;
}
);
leftKerningGroup = O;
leftMetricsKey = O;
rightKerningGroup = C;
unicode = 0043;
userData = {
anchors = (
);
b = {
};
com.typemytype.robofont.layerData = {
b = {
anchors = (
);
components = (
);
contours = (
);
lib = {
};
name = C;
unicodes = (
);
width = 1353.89001;
};
};
components = (
);
contours = (
);
lib = {
};
name = C;
unicodes = (
);
width = 1354;
};
},
{
color = 5;
glyphname = D;
lastChange = "2019-08-06 12:42:42 +0000";
layers = (
{
anchors = (
{
name = bottom;
position = "{391, 0}";
},
{
name = center;
position = "{201, 358}";
},
{
name = top;
position = "{390, 705}";
}
);
background = {
anchors = (
{
name = bottom;
position = "{389, 0}";
},
{
name = center;
position = "{199, 358}";
},
{
name = top;
position = "{388, 705}";
}
);
paths = (
{
closed = 1;
nodes = (
"339 0 LINE SMOOTH",
"559 0 OFFCURVE",
"684 127 OFFCURVE",
"684 353 CURVE SMOOTH",
"684 579 OFFCURVE",
"561 705 OFFCURVE",
"339 705 CURVE SMOOTH",
"122 705 LINE",
"122 0 LINE"
);
},
{
closed = 1;
nodes = (
"164 666 LINE",
"338 666 LINE SMOOTH",
"538 666 OFFCURVE",
"639 561 OFFCURVE",
"639 353 CURVE SMOOTH",
"639 145 OFFCURVE",
"537 39 OFFCURVE",
"338 39 CURVE SMOOTH",
"164 39 LINE"
);
}
);
};
layerId = "B0DFB0A8-5D2F-4351-A1F8-6629D0DA694C";
paths = (
{
closed = 1;
nodes = (
"341 0 LINE SMOOTH",
"561 0 OFFCURVE",
"686 127 OFFCURVE",
"686 353 CURVE SMOOTH",
"686 579 OFFCURVE",
"563 705 OFFCURVE",
"341 705 CURVE SMOOTH",
"114 705 LINE",
"114 0 LINE"
);
},
{
closed = 1;
nodes = (
"166 655 LINE",
"340 655 LINE SMOOTH",
"530 655 OFFCURVE",
"631 561 OFFCURVE",
"631 353 CURVE SMOOTH",
"631 145 OFFCURVE",
"529 50 OFFCURVE",
"340 50 CURVE SMOOTH",
"166 50 LINE"
);
}
);
width = 767;
},
{
anchors = (
{
name = bottom;
position = "{363, 0}";
},
{
name = center;
position = "{173, 358}";
},
{
name = top;
position = "{362, 705}";
}
);
background = {
anchors = (
{
name = bottom;
position = "{363, 0}";
},
{
name = center;
position = "{173, 358}";
},
{
name = top;
position = "{362, 705}";
}
);
paths = (
{
closed = 1;
nodes = (
"313 0 LINE SMOOTH",
"533 0 OFFCURVE",
"658 127 OFFCURVE",
"658 353 CURVE SMOOTH",
"658 579 OFFCURVE",
"535 705 OFFCURVE",
"313 705 CURVE SMOOTH",
"96 705 LINE",
"96 0 LINE"
);
},
{
closed = 1;
nodes = (
"138 666 LINE",
"312 666 LINE SMOOTH",
"512 666 OFFCURVE",
"613 561 OFFCURVE",
"613 353 CURVE SMOOTH",
"613 145 OFFCURVE",
"511 39 OFFCURVE",
"312 39 CURVE SMOOTH",
"138 39 LINE"
);
}
);
};
layerId = "F1F93986-3ED8-4AAE-84C4-CA3EEECDDFA0";
paths = (
{
closed = 1;
nodes = (
"313 0 LINE SMOOTH",
"534 0 OFFCURVE",
"658 123 OFFCURVE",
"658 353 CURVE SMOOTH",
"658 583 OFFCURVE",
"534 705 OFFCURVE",
"313 705 CURVE SMOOTH",
"96 705 LINE",
"96 0 LINE"
);
},
{
closed = 1;
nodes = (
"138 666 LINE",
"309 666 LINE SMOOTH",
"512 666 OFFCURVE",
"613 561 OFFCURVE",
"613 353 CURVE SMOOTH",
"613 145 OFFCURVE",
"512 39 OFFCURVE",
"309 39 CURVE SMOOTH",
"138 39 LINE"
);
}
);
width = 725;
}
);
leftKerningGroup = H;
leftMetricsKey = H;
rightKerningGroup = O;
rightMetricsKey = O;
unicode = 0044;
userData = {
anchors = (
);
b = {
};
com.typemytype.robofont.layerData = {
b = {
anchors = (
);
components = (
);
contours = (
{
points = (
{
segmentType = curve;
smooth = 1;
x = 266;
y = 0;
},
{
segmentType = line;
smooth = 1;
x = 1035;
y = 0;
},
{
smooth = 0;
x = 1084;
y = 0;
},
{
smooth = 0;
x = 1108;
y = 34;
},
{
segmentType = curve;
smooth = 1;
x = 1108;
y = 71;
},
{
smooth = 0;
x = 1108;
y = 107;
},
{
smooth = 0;
x = 1084;
y = 141;
},
{
segmentType = curve;
smooth = 1;
x = 1035;
y = 141;
},
{
segmentType = line;
smooth = 0;
x = 356;
y = 141;
},
{
segmentType = line;
smooth = 0;
x = 356;
y = 665;
},
{
segmentType = line;
smooth = 1;
x = 975;
y = 665;
},
{
smooth = 0;
x = 1024;
y = 665;
},
{
smooth = 0;
x = 1049;
y = 698;
},
{
segmentType = curve;
smooth = 1;
x = 1049;
y = 734;
},
{
smooth = 0;
x = 1049;
y = 770;
},
{
smooth = 0;
x = 1026;
y = 803;
},
{
segmentType = curve;
smooth = 1;
x = 975;
y = 803;
},
{
segmentType = line;
smooth = 0;
x = 356;
y = 803;
},
{
segmentType = line;
smooth = 0;
x = 356;
y = 1285;
},
{
segmentType = line;
smooth = 1;
x = 1007;
y = 1285;
},
{
smooth = 0;
x = 1056;
y = 1285;
},
{
smooth = 0;
x = 1080;
y = 1319;
},
{
segmentType = curve;
smooth = 1;
x = 1080;
y = 1356;
},
{
smooth = 0;
x = 1080;
y = 1392;
},
{
smooth = 0;
x = 1056;
y = 1426;
},
{
segmentType = curve;
smooth = 1;
x = 1007;
y = 1426;
},
{
segmentType = line;
smooth = 1;
x = 261;
y = 1426;
},
{
smooth = 0;
x = 213;
y = 1426;
},
{
smooth = 0;
x = 178;
y = 1383;
},
{
segmentType = curve;
smooth = 1;
x = 178;
y = 1340;
},
{
segmentType = line;
smooth = 1;
x = 178;
y = 86;
},
{
smooth = 0;
x = 178;
y = 41;
},
{
smooth = 0;
x = 222;
y = 0;
}
);
}
);
lib = {
};
name = D;
unicodes = (
);
width = 1499;
};
};
components = (
);
contours = (
);
lib = {
};
name = D;
unicodes = (
);
width = 1535;
};
},
{
color = 5;
glyphname = E;
lastChange = "2019-08-06 12:42:42 +0000";
layers = (
{
anchors = (
{
name = bottom;
position = "{342, 0}";
},
{
name = ogonek;
position = "{512, 0}";
},
{
name = top;
position = "{342, 705}";
},
{
name = topleft;
position = "{49, 705}";
}
);
background = {
anchors = (
{
name = bottom;
position = "{340, 0}";
},
{
name = ogonek;
position = "{510, 0}";
},
{
name = top;
position = "{340, 705}";
},
{
name = topleft;
position = "{47, 705}";
}
);
paths = (
{
closed = 1;
nodes = (
"540 705 LINE",
"116 705 LINE",
"116 0 LINE",
"540 0 LINE",
"540 39 LINE",
"158 39 LINE",
"158 338 LINE",
"520 338 LINE",
"520 377 LINE",
"158 377 LINE",
"158 666 LINE",
"540 666 LINE"
);
}
);
};
guideLines = (
{
angle = 270;
position = "{540, 353}";
}
);
layerId = "B0DFB0A8-5D2F-4351-A1F8-6629D0DA694C";
paths = (
{
closed = 1;
nodes = (
"558 705 LINE",
"114 705 LINE",
"114 0 LINE",
"558 0 LINE",
"558 50 LINE",
"166 50 LINE",
"166 332 LINE",
"538 332 LINE",
"538 382 LINE",
"166 382 LINE",
"166 655 LINE",
"558 655 LINE"
);
}
);
width = 640;
},
{
anchors = (
{
name = bottom;
position = "{320, 0}";
},
{
name = ogonek;
position = "{490, 0}";
},
{
name = top;
position = "{320, 705}";
},
{
name = topleft;
position = "{27, 705}";
}
);
background = {
anchors = (
{
name = bottom;
position = "{320, 0}";
},
{
name = ogonek;
position = "{490, 0}";
},
{
name = top;
position = "{320, 705}";
},
{
name = topleft;
position = "{27, 705}";
}
);
paths = (
{
closed = 1;
nodes = (
"520 705 LINE",
"96 705 LINE",
"96 0 LINE",
"520 0 LINE",
"520 39 LINE",
"138 39 LINE",
"138 338 LINE",
"500 338 LINE",
"500 377 LINE",
"138 377 LINE",
"138 666 LINE",
"520 666 LINE"
);
}
);
};
guideLines = (
{
angle = 270;
position = "{520, 353}";
}
);
layerId = "F1F93986-3ED8-4AAE-84C4-CA3EEECDDFA0";
paths = (
{
closed = 1;
nodes = (
"520 705 LINE",
"96 705 LINE",
"96 0 LINE",
"520 0 LINE",
"520 39 LINE",
"138 39 LINE",
"138 338 LINE",
"500 338 LINE",
"500 377 LINE",
"138 377 LINE",
"138 666 LINE",
"520 666 LINE"
);
}
);
width = 570;
}
);
leftKerningGroup = H;
leftMetricsKey = H;
rightKerningGroup = E;
unicode = 0045;
userData = {
anchors = (
);
b = {
};
com.typemytype.robofont.layerData = {
b = {
anchors = (
);
components = (
);
contours = (
);
lib = {
};
name = E;
unicodes = (
);
width = 1234;
};
};
components = (
);
contours = (
);
lib = {
};
name = E;
unicodes = (
);
width = 1258;
};
},
{
color = 5;
glyphname = F;
lastChange = "2019-08-06 12:42:42 +0000";
layers = (
{
anchors = (
{
name = bottom;
position = "{315, 0}";
},
{
name = top;
position = "{315, 705}";
}
);
background = {
anchors = (
{
name = bottom;
position = "{313, 0}";
},
{
name = top;
position = "{313, 705}";
}
);
paths = (
{
closed = 1;
nodes = (
"530 705 LINE",
"116 705 LINE",
"116 0 LINE",
"158 0 LINE",
"158 338 LINE",
"510 338 LINE",
"510 377 LINE",
"158 377 LINE",
"158 666 LINE",
"530 666 LINE"
);
}
);
};
layerId = "B0DFB0A8-5D2F-4351-A1F8-6629D0DA694C";
paths = (
{
closed = 1;
nodes = (
"558 705 LINE",
"114 705 LINE",
"114 0 LINE",
"166 0 LINE",
"166 332 LINE",
"538 332 LINE",
"538 382 LINE",
"166 382 LINE",
"166 655 LINE",
"558 655 LINE"
);
}
);
width = 608;
},
{
anchors = (
{
name = bottom;
position = "{293, 0}";
},
{
name = top;
position = "{293, 705}";
}
);
background = {
anchors = (
{
name = bottom;
position = "{293, 0}";
},
{
name = top;
position = "{293, 705}";
}
);
paths = (
{
closed = 1;
nodes = (
"510 705 LINE",
"96 705 LINE",
"96 0 LINE",
"138 0 LINE",
"138 338 LINE",
"490 338 LINE",
"490 377 LINE",
"138 377 LINE",
"138 666 LINE",
"510 666 LINE"
);
}
);
};
layerId = "F1F93986-3ED8-4AAE-84C4-CA3EEECDDFA0";
paths = (
{
closed = 1;
nodes = (
"510 705 LINE",
"96 705 LINE",
"96 0 LINE",
"138 0 LINE",
"138 338 LINE",
"490 338 LINE",
"490 377 LINE",
"138 377 LINE",
"138 666 LINE",
"510 666 LINE"
);
}
);
width = 536;
}
);
leftKerningGroup = H;
leftMetricsKey = H;
rightKerningGroup = F;
unicode = 0046;
userData = {
anchors = (
);
b = {
};
com.typemytype.robofont.layerData = {
b = {
anchors = (
);
components = (
);
contours = (
{
points = (
{
segmentType = curve;
smooth = 1;
x = 266;
y = 0;
},
{
segmentType = line;
smooth = 1;
x = 1035;
y = 0;
},
{
smooth = 0;
x = 1084;
y = 0;
},
{
smooth = 0;
x = 1108;
y = 34;
},
{
segmentType = curve;
smooth = 1;
x = 1108;
y = 71;
},
{
smooth = 0;
x = 1108;
y = 107;
},
{
smooth = 0;
x = 1084;
y = 141;
},
{
segmentType = curve;
smooth = 1;
x = 1035;
y = 141;
},
{
segmentType = line;
smooth = 0;
x = 353;
y = 141;
},
{
segmentType = line;
smooth = 0;
x = 353;
y = 665;
},
{
segmentType = line;
smooth = 1;
x = 975;
y = 665;
},
{
smooth = 0;
x = 1024;
y = 665;
},
{
smooth = 0;
x = 1049;
y = 698;
},
{
segmentType = curve;
smooth = 1;
x = 1049;
y = 734;
},
{
smooth = 0;
x = 1049;
y = 770;
},
{
smooth = 0;
x = 1026;
y = 803;
},
{
segmentType = curve;
smooth = 1;
x = 975;
y = 803;
},
{
segmentType = line;
smooth = 0;
x = 353;
y = 803;
},
{
segmentType = line;
smooth = 0;
x = 353;
y = 1285;
},
{
segmentType = line;
smooth = 1;
x = 1007;
y = 1285;
},
{
smooth = 0;
x = 1056;
y = 1285;
},
{
smooth = 0;
x = 1080;
y = 1319;
},
{
segmentType = curve;
smooth = 1;
x = 1080;
y = 1356;
},
{
smooth = 0;
x = 1080;
y = 1392;
},
{
smooth = 0;
x = 1056;
y = 1426;
},
{
segmentType = curve;
smooth = 1;
x = 1007;
y = 1426;
},
{
segmentType = line;
smooth = 1;
x = 261;
y = 1426;
},
{
smooth = 0;
x = 213;
y = 1426;
},
{
smooth = 0;
x = 178;
y = 1383;
},
{
segmentType = curve;
smooth = 1;
x = 178;
y = 1340;
},
{
segmentType = line;
smooth = 1;
x = 178;
y = 86;
},
{
smooth = 0;
x = 178;
y = 41;
},
{
smooth = 0;
x = 222;
y = 0;
}
);
}
);
lib = {
};
name = F;
unicodes = (
);
width = 1142;
};
};
components = (
);
contours = (
);
lib = {
};
name = F;
unicodes = (
);
width = 1175;
};
},
{
color = 5;
glyphname = G;
lastChange = "2019-08-06 12:42:42 +0000";
layers = (
{
anchors = (
{
name = bottom;
position = "{415, 0}";
},
{
name = top;
position = "{408, 705}";
}
);
background = {
anchors = (
{
name = bottom;
position = "{408, 0}";
},
{
name = top;
position = "{401, 705}";
}
);
paths = (
{
closed = 1;
nodes = (
"500 -8 OFFCURVE",
"597 13 OFFCURVE",
"646 40 CURVE",
"646 355 LINE",
"412 355 LINE",
"412 316 LINE",
"606 316 LINE",
"606 35 LINE",
"618 73 LINE",
"561 47 OFFCURVE",
"493 33 OFFCURVE",
"419 33 CURVE SMOOTH",
"228 33 OFFCURVE",
"129 142 OFFCURVE",
"129 353 CURVE SMOOTH",
"129 555 OFFCURVE",
"228 672 OFFCURVE",
"401 672 CURVE SMOOTH",
"491 672 OFFCURVE",
"559 644 OFFCURVE",
"620 582 CURVE",
"641 618 LINE",
"584 680 OFFCURVE",
"501 713 OFFCURVE",
"404 713 CURVE SMOOTH",
"202 713 OFFCURVE",
"85 579 OFFCURVE",
"85 353 CURVE SMOOTH",
"85 121 OFFCURVE",
"205 -8 OFFCURVE",
"420 -8 CURVE SMOOTH"
);
}
);
};
layerId = "B0DFB0A8-5D2F-4351-A1F8-6629D0DA694C";
paths = (
{
closed = 1;
nodes = (
"512 -8 OFFCURVE",
"617 13 OFFCURVE",
"668 40 CURVE",
"668 355 LINE",
"424 355 LINE",
"424 305 LINE",
"618 305 LINE",
"618 35 LINE",
"640 82 LINE",
"583 56 OFFCURVE",
"505 42 OFFCURVE",
"421 42 CURVE SMOOTH",
"240 42 OFFCURVE",
"136 142 OFFCURVE",
"136 353 CURVE SMOOTH",
"136 555 OFFCURVE",
"234 662 OFFCURVE",
"403 662 CURVE SMOOTH",
"503 662 OFFCURVE",
"581 634 OFFCURVE",
"642 572 CURVE",
"663 618 LINE",
"606 680 OFFCURVE",
"513 713 OFFCURVE",
"406 713 CURVE SMOOTH",
"204 713 OFFCURVE",
"81 579 OFFCURVE",
"81 353 CURVE SMOOTH",
"81 121 OFFCURVE",
"207 -8 OFFCURVE",
"422 -8 CURVE SMOOTH"
);
}
);
width = 771;
},
{
anchors = (
{
name = bottom;
position = "{390, 0}";
},
{
name = top;
position = "{383, 705}";
}
);
background = {
paths = (
{
closed = 1;
nodes = (
"1482 -8 OFFCURVE",
"1579 13 OFFCURVE",
"1628 40 CURVE",
"1628 355 LINE",
"1394 355 LINE",
"1394 316 LINE",
"1588 316 LINE",
"1588 35 LINE",
"1600 73 LINE",
"1543 47 OFFCURVE",
"1475 33 OFFCURVE",
"1401 33 CURVE SMOOTH",
"1210 33 OFFCURVE",
"1111 142 OFFCURVE",
"1111 353 CURVE SMOOTH",
"1111 555 OFFCURVE",
"1210 672 OFFCURVE",
"1383 672 CURVE SMOOTH",
"1473 672 OFFCURVE",
"1541 644 OFFCURVE",
"1602 582 CURVE",
"1623 618 LINE",
"1566 680 OFFCURVE",
"1483 713 OFFCURVE",
"1386 713 CURVE SMOOTH",
"1184 713 OFFCURVE",
"1067 579 OFFCURVE",
"1067 353 CURVE SMOOTH",
"1067 121 OFFCURVE",
"1187 -8 OFFCURVE",
"1402 -8 CURVE SMOOTH"
);
},
{
closed = 1;
nodes = (
"479 -8 OFFCURVE",
"561 24 OFFCURVE",
"619 87 CURVE",
"597 122 LINE",
"534 59 OFFCURVE",
"468 33 OFFCURVE",
"380 33 CURVE SMOOTH",
"208 33 OFFCURVE",
"112 150 OFFCURVE",
"112 353 CURVE SMOOTH",
"112 555 OFFCURVE",
"208 672 OFFCURVE",
"380 672 CURVE SMOOTH",
"468 672 OFFCURVE",
"534 646 OFFCURVE",
"597 583 CURVE",
"619 618 LINE",
"561 681 OFFCURVE",
"479 713 OFFCURVE",
"381 713 CURVE SMOOTH",
"183 713 OFFCURVE",
"67 576 OFFCURVE",
"67 353 CURVE SMOOTH",
"67 129 OFFCURVE",
"183 -8 OFFCURVE",
"381 -8 CURVE SMOOTH"
);
}
);
};
layerId = "F1F93986-3ED8-4AAE-84C4-CA3EEECDDFA0";
paths = (
{
closed = 1;
nodes = (
"482 -8 OFFCURVE",
"579 13 OFFCURVE",
"628 40 CURVE",
"628 355 LINE",
"394 355 LINE",
"394 316 LINE",
"588 316 LINE",
"588 35 LINE",
"600 73 LINE",
"543 47 OFFCURVE",
"475 33 OFFCURVE",
"401 33 CURVE SMOOTH",
"208 33 OFFCURVE",
"112 145 OFFCURVE",
"112 353 CURVE SMOOTH",
"112 555 OFFCURVE",
"208 672 OFFCURVE",
"380 672 CURVE SMOOTH",
"470 672 OFFCURVE",
"537 646 OFFCURVE",
"602 583 CURVE",
"624 618 LINE",
"564 681 OFFCURVE",
"481 713 OFFCURVE",
"381 713 CURVE SMOOTH",
"183 713 OFFCURVE",
"67 576 OFFCURVE",
"67 353 CURVE SMOOTH",
"67 124 OFFCURVE",
"183 -8 OFFCURVE",
"402 -8 CURVE SMOOTH"
);
}
);
width = 718;
}
);
leftKerningGroup = O;
leftMetricsKey = O;
rightKerningGroup = G;
unicode = 0047;
userData = {
anchors = (
);
b = {
};
com.typemytype.robofont.layerData = {
b = {
anchors = (
);
components = (
);
contours = (
{
points = (
{
segmentType = curve;
smooth = 1;
x = 783;
y = "-22";
},
{
smooth = 0;
x = 965;
y = "-22";
},
{
smooth = 0;
x = 1086;
y = 34;
},
{
segmentType = curve;
smooth = 1;
x = 1166;
y = 86;
},
{
smooth = 0;
x = 1270;
y = 154;
},
{
smooth = 0;
x = 1186;
y = 258;
},
{
segmentType = curve;
smooth = 1;
x = 1112;
y = 214;
},
{
smooth = 0;
x = 1024;
y = 162;
},
{
smooth = 0;
x = 939;
y = 120;
},
{
segmentType = curve;
smooth = 1;
x = 806;
y = 120;
},
{
smooth = 0;
x = 446;
y = 120;
},
{
smooth = 0;
x = 316;
y = 406;
},
{
segmentType = curve;
smooth = 1;
x = 316;
y = 706;
},
{
smooth = 0;
x = 316;
y = 1005;
},
{
smooth = 0;
x = 450;
y = 1296;
},
{
segmentType = curve;
smooth = 1;
x = 801;
y = 1296;
},
{
smooth = 0;
x = 980;
y = 1296;
},
{
smooth = 0;
x = 1053;
y = 1246;
},
{
segmentType = curve;
smooth = 1;
x = 1094;
y = 1225;
},
{
smooth = 0;
x = 1174;
y = 1184;
},
{
smooth = 0;
x = 1231;
y = 1300;
},
{
segmentType = curve;
smooth = 1;
x = 1156;
y = 1343;
},
{
smooth = 0;
x = 1106;
y = 1372;
},
{
smooth = 0;
x = 995;
y = 1438;
},
{
segmentType = curve;
smooth = 1;
x = 797;
y = 1438;
},
{
smooth = 0;
x = 359;
y = 1438;
},
{
smooth = 0;
x = 128;
y = 1093;
},
{
segmentType = curve;
smooth = 1;
x = 128;
y = 704;
},
{
smooth = 0;
x = 128;
y = 307;
},
{
smooth = 0;
x = 350;
y = "-22";
}
);
}
);
lib = {
};
name = G;
unicodes = (
);
width = 1448;
};
};
components = (
);
contours = (
);
lib = {
};
name = G;
unicodes = (
);
width = 1538;
};
},
{
color = 5;
glyphname = H;
lastChange = "2019-08-06 12:42:42 +0000";
layers = (
{
anchors = (
{
name = bottom;
position = "{396, 0}";
},
{
name = center;
position = "{396, 546}";
},
{
name = top;
position = "{395, 705}";
},
{
name = topleft;
position = "{47, 705}";
}
);
background = {
anchors = (
{
name = bottom;
position = "{378, 0}";
},
{
name = center;
position = "{378, 546}";
},
{
name = top;
position = "{377, 705}";
},
{
name = topleft;
position = "{29, 705}";
}
);
paths = (
{
closed = 1;
nodes = (
"615 377 LINE",
"140 377 LINE",
"140 705 LINE",
"98 705 LINE",
"98 0 LINE",
"140 0 LINE",
"140 338 LINE",
"615 338 LINE",
"615 0 LINE",
"657 0 LINE",
"657 705 LINE",
"615 705 LINE"
);
}
);
};
layerId = "B0DFB0A8-5D2F-4351-A1F8-6629D0DA694C";
paths = (
{
closed = 1;
nodes = (
"625 384 LINE",
"166 384 LINE",
"166 705 LINE",
"114 705 LINE",
"114 0 LINE",
"166 0 LINE",
"166 334 LINE",
"625 334 LINE",
"625 0 LINE",
"677 0 LINE",
"677 705 LINE",
"625 705 LINE"
);
}
);
width = 791;
},
{
anchors = (
{
name = bottom;
position = "{376, 0}";
},
{
name = center;
position = "{376, 546}";
},
{
name = top;
position = "{375, 705}";
},
{
name = topleft;
position = "{27, 705}";
}
);
background = {
anchors = (
{
name = bottom;
position = "{376, 0}";
},
{
name = center;
position = "{376, 546}";
},
{
name = top;
position = "{375, 705}";
},
{
name = topleft;
position = "{27, 705}";
}
);
paths = (
{
closed = 1;
nodes = (
"613 377 LINE",
"138 377 LINE",
"138 705 LINE",
"96 705 LINE",
"96 0 LINE",
"138 0 LINE",
"138 338 LINE",
"613 338 LINE",
"613 0 LINE",
"655 0 LINE",
"655 705 LINE",
"613 705 LINE"
);
}
);
};
layerId = "F1F93986-3ED8-4AAE-84C4-CA3EEECDDFA0";
paths = (
{
closed = 1;
nodes = (
"613 377 LINE",
"138 377 LINE",
"138 705 LINE",
"96 705 LINE",
"96 0 LINE",
"138 0 LINE",
"138 338 LINE",
"613 338 LINE",
"613 0 LINE",
"655 0 LINE",
"655 705 LINE",
"613 705 LINE"
);
}
);
width = 751;
}
);
leftKerningGroup = H;
rightKerningGroup = H;
rightMetricsKey = "=|";
unicode = 0048;
userData = {
anchors = (
);
b = {
};
com.typemytype.robofont.layerData = {
b = {
anchors = (
);
components = (
);
contours = (
);
lib = {
};
name = H;
unicodes = (
);
width = 1464;
};
};
components = (
);
contours = (
);
lib = {
};
name = H;
unicodes = (
);
width = 1524;
};
},
{
color = 5;
glyphname = I;
lastChange = "2019-08-06 12:42:42 +0000";
layers = (
{
anchors = (
{
name = bottom;
position = "{140, 0}";
},
{
name = ogonek;
position = "{161, 0}";
},
{
name = top;
position = "{140, 705}";
},
{
name = topleft;
position = "{51, 705}";
}
);
background = {
paths = (
{
closed = 1;
nodes = (
"164 0 LINE",
"164 705 LINE",
"112 705 LINE",
"112 0 LINE"
);
},
{
closed = 1;
nodes = (
"-2 659 LINE",
"278 659 LINE",
"278 705 LINE",
"-2 705 LINE"
);
},
{
closed = 1;
nodes = (
"-2 0 LINE",
"278 0 LINE",
"278 46 LINE",
"-2 46 LINE"
);
}
);
};
layerId = "B0DFB0A8-5D2F-4351-A1F8-6629D0DA694C";
paths = (
{
closed = 1;
nodes = (
"166 0 LINE",
"166 705 LINE",
"114 705 LINE",
"114 0 LINE"
);
}
);
width = 280;
},
{
anchors = (
{
name = bottom;
position = "{117, 0}";
},
{
name = ogonek;
position = "{138, 0}";
},
{
name = top;
position = "{117, 705}";
},
{
name = topleft;
position = "{28, 705}";
}
);
background = {
anchors = (
{
name = bottom;
position = "{117, 0}";
},
{
name = ogonek;
position = "{138, 0}";
},
{
name = top;
position = "{117, 705}";
},
{
name = topleft;
position = "{28, 705}";
}
);
paths = (
{
closed = 1;
nodes = (
"138 0 LINE",
"138 705 LINE",
"96 705 LINE",
"96 0 LINE"
);
}
);
};
layerId = "F1F93986-3ED8-4AAE-84C4-CA3EEECDDFA0";
paths = (
{
closed = 1;
nodes = (
"138 0 LINE",
"138 705 LINE",
"96 705 LINE",
"96 0 LINE"
);
}
);
width = 234;
}
);
leftKerningGroup = H;
leftMetricsKey = H;
rightKerningGroup = H;
rightMetricsKey = H;
unicode = 0049;
userData = {
anchors = (
);
b = {
};
com.typemytype.robofont.layerData = {
b = {
anchors = (
);
components = (
);
contours = (
);
lib = {
};
name = I;
unicodes = (
);
width = 592;
};
};
components = (
);
contours = (
);
lib = {
};
name = I;
unicodes = (
);
width = 637;
};
},
{
color = 5;
glyphname = J;
lastChange = "2019-08-06 12:42:42 +0000";
layers = (
{
anchors = (
{
name = bottom;
position = "{243, 0}";
},
{
name = top;
position = "{244, 705}";
}
);
background = {
anchors = (
{
name = bottom;
position = "{241, 0}";
},
{
name = top;
position = "{240, 705}";
}
);
paths = (
{
closed = 1;
nodes = (
"104 -2 LINE SMOOTH",
"205 5 OFFCURVE",
"261 70 OFFCURVE",
"261 177 CURVE SMOOTH",
"261 705 LINE",
"219 705 LINE",
"219 179 LINE SMOOTH",
"219 96 OFFCURVE",
"176 42 OFFCURVE",
"101 36 CURVE SMOOTH",
"50 32 LINE",
"54 -6 LINE"
);
}
);
};
layerId = "B0DFB0A8-5D2F-4351-A1F8-6629D0DA694C";
paths = (
{
closed = 1;
nodes = (
"86 -2 LINE SMOOTH",
"187 3 OFFCURVE",
"273 80 OFFCURVE",
"273 187 CURVE SMOOTH",
"273 705 LINE",
"221 705 LINE",
"221 189 LINE SMOOTH",
"221 106 OFFCURVE",
"158 53 OFFCURVE",
"83 49 CURVE SMOOTH",
"2 45 LINE",
"6 -6 LINE"
);
}
);
width = 387;
},
{
anchors = (
{
name = bottom;
position = "{181, 0}";
},
{
name = top;
position = "{180, 705}";
}
);
background = {
anchors = (
{
name = bottom;
position = "{181, 0}";
},
{
name = top;
position = "{180, 705}";
}
);
paths = (
{
closed = 1;
nodes = (
"44 -2 LINE SMOOTH",
"145 5 OFFCURVE",
"201 70 OFFCURVE",
"201 177 CURVE SMOOTH",
"201 705 LINE",
"159 705 LINE",
"159 179 LINE SMOOTH",
"159 96 OFFCURVE",
"116 42 OFFCURVE",
"41 36 CURVE SMOOTH",
"-10 32 LINE",
"-6 -6 LINE"
);
}
);
};
layerId = "F1F93986-3ED8-4AAE-84C4-CA3EEECDDFA0";
paths = (
{
closed = 1;
nodes = (
"44 -2 LINE SMOOTH",
"145 6 OFFCURVE",
"201 71 OFFCURVE",
"201 177 CURVE SMOOTH",
"201 705 LINE",
"159 705 LINE",
"159 179 LINE SMOOTH",
"159 96 OFFCURVE",
"116 42 OFFCURVE",
"41 36 CURVE SMOOTH",
"-10 32 LINE",
"-6 -6 LINE"
);
}
);
width = 297;
}
);
leftKerningGroup = J;
rightKerningGroup = J;
rightMetricsKey = H;
unicode = 004A;
userData = {
anchors = (
);
b = {
};
com.typemytype.robofont.layerData = {
b = {
anchors = (
);
components = (
);
contours = (
);
lib = {
};
name = J;
unicodes = (
);
width = 1003;
};
};
components = (
);
contours = (
);
lib = {
};
name = J;
unicodes = (
);
width = 1126;
};
},
{
color = 5;
glyphname = K;
lastChange = "2019-08-06 12:42:42 +0000";
layers = (
{
anchors = (
{
name = bottom;
position = "{334, 0}";
},
{
name = top;
position = "{333, 705}";
},
{
name = topleft;
position = "{49, 705}";
}
);
background = {
anchors = (
{
name = bottom;
position = "{322, 0}";
},
{
name = top;
position = "{321, 705}";
},
{
name = topleft;
position = "{47, 705}";
}
);
paths = (
{
closed = 1;
nodes = (
"178 376 LINE",
"178 341 LINE",
"589 705 LINE",
"529 705 LINE",
"158 375 LINE",
"158 705 LINE",
"116 705 LINE",
"116 0 LINE",
"158 0 LINE",
"158 340 LINE",
"550 0 LINE",
"612 0 LINE"
);
}
);
};
layerId = "B0DFB0A8-5D2F-4351-A1F8-6629D0DA694C";
paths = (
{
closed = 1;
nodes = (
"203 376 LINE",
"201 341 LINE",
"602 705 LINE",
"530 705 LINE",
"170 377 LINE",
"166 377 LINE",
"166 705 LINE",
"114 705 LINE",
"114 0 LINE",
"166 0 LINE",
"166 338 LINE",
"170 338 LINE",
"551 0 LINE",
"627 0 LINE"
);
}
);
width = 633;
},
{
anchors = (
{
name = bottom;
position = "{302, 0}";
},
{
name = top;
position = "{301, 705}";
},
{
name = topleft;
position = "{27, 705}";
}
);
background = {
anchors = (
{
name = bottom;
position = "{302, 0}";
},
{
name = top;
position = "{301, 705}";
},
{
name = topleft;
position = "{27, 705}";
}
);
paths = (
{
closed = 1;
nodes = (
"158 376 LINE",
"158 341 LINE",
"569 705 LINE",
"509 705 LINE",
"140 377 LINE",
"138 377 LINE",
"138 705 LINE",
"96 705 LINE",
"96 0 LINE",
"138 0 LINE",
"138 338 LINE",
"140 338 LINE",
"530 0 LINE",
"592 0 LINE"
);
}
);
};
layerId = "F1F93986-3ED8-4AAE-84C4-CA3EEECDDFA0";
paths = (
{
closed = 1;
nodes = (
"159 374 LINE",
"160 342 LINE",
"570 705 LINE",
"509 705 LINE",
"140 377 LINE",
"138 377 LINE",
"138 705 LINE",
"96 705 LINE",
"96 0 LINE",
"138 0 LINE",
"138 338 LINE",
"140 338 LINE",
"532 0 LINE",
"593 0 LINE"
);
}
);
width = 590;
}
);
leftKerningGroup = H;
leftMetricsKey = H;
rightKerningGroup = K;
unicode = 004B;
userData = {
anchors = (
);
b = {
};
com.typemytype.robofont.layerData = {
b = {
anchors = (
);
components = (
);
contours = (
);
lib = {
};
name = K;
unicodes = (
);
width = 1210;
};
};
components = (
);
contours = (
);
lib = {
};
name = K;
unicodes = (
);
width = 1329;
};
},
{
color = 5;
glyphname = L;
lastChange = "2019-08-06 12:42:42 +0000";
layers = (
{
anchors = (
{
name = bottom;
position = "{334, 0}";
},
{
name = center;
position = "{189, 387}";
},
{
name = dot;
position = "{407, 386}";
},
{
name = top;
position = "{142, 705}";
},
{
name = topright;
position = "{288, 705}";
}
);
background = {
anchors = (
{
name = bottom;
position = "{332, 0}";
},
{
name = center;
position = "{187, 387}";
},
{
name = dot;
position = "{405, 386}";
},
{
name = top;
position = "{143, 705}";
},
{
name = topright;
position = "{286, 705}";
}
);
paths = (
{
closed = 1;
nodes = (
"538 0 LINE",
"538 40 LINE",
"164 40 LINE",
"164 705 LINE",
"122 705 LINE",
"122 0 LINE"
);
}
);
};
layerId = "B0DFB0A8-5D2F-4351-A1F8-6629D0DA694C";
paths = (
{
closed = 1;
nodes = (
"540 0 LINE",
"540 50 LINE",
"166 50 LINE",
"166 705 LINE",
"114 705 LINE",
"114 0 LINE"
);
}
);
width = 567;
},
{
anchors = (
{
name = bottom;
position = "{305, 0}";
},
{
name = center;
position = "{161, 387}";
},
{
name = dot;
position = "{384, 386}";
},
{
name = top;
position = "{117, 705}";
},
{
name = topright;
position = "{260, 705}";
}
);
background = {
anchors = (
{
name = bottom;
position = "{306, 0}";
},
{
name = center;
position = "{161, 387}";
},
{
name = dot;
position = "{379, 386}";
},
{
name = top;
position = "{117, 705}";
},
{
name = topright;
position = "{260, 705}";
}
);
paths = (
{
closed = 1;
nodes = (
"512 0 LINE",
"512 40 LINE",
"138 40 LINE",
"138 705 LINE",
"96 705 LINE",
"96 0 LINE"
);
}
);
};
layerId = "F1F93986-3ED8-4AAE-84C4-CA3EEECDDFA0";
paths = (
{
closed = 1;
nodes = (
"514 0 LINE",
"514 39 LINE",
"138 39 LINE",
"138 705 LINE",
"96 705 LINE",
"96 0 LINE"
);
}
);
width = 527;
}
);
leftKerningGroup = H;
leftMetricsKey = H;
rightKerningGroup = L;
unicode = 004C;
userData = {
anchors = (
);
b = {
};
com.typemytype.robofont.layerData = {
b = {
anchors = (
);
components = (
);
contours = (
{
points = (
{
segmentType = curve;
smooth = 1;
x = 266;
y = 0;
},
{
segmentType = line;
smooth = 1;
x = 1035;
y = 0;
},
{
smooth = 0;
x = 1084;
y = 0;
},
{
smooth = 0;
x = 1108;
y = 34;
},
{
segmentType = curve;
smooth = 1;
x = 1108;
y = 71;
},
{
smooth = 0;
x = 1108;
y = 107;
},
{
smooth = 0;
x = 1084;
y = 141;
},
{
segmentType = curve;
smooth = 1;
x = 1035;
y = 141;
},
{
segmentType = line;
smooth = 0;
x = 356;
y = 141;
},
{
segmentType = line;
smooth = 0;
x = 356;
y = 665;
},
{
segmentType = line;
smooth = 1;
x = 975;
y = 665;
},
{
smooth = 0;
x = 1024;
y = 665;
},
{
smooth = 0;
x = 1049;
y = 698;
},
{
segmentType = curve;
smooth = 1;
x = 1049;
y = 734;
},
{
smooth = 0;
x = 1049;
y = 770;
},
{
smooth = 0;
x = 1026;
y = 803;
},
{
segmentType = curve;
smooth = 1;
x = 975;
y = 803;
},
{
segmentType = line;
smooth = 0;
x = 356;
y = 803;
},
{
segmentType = line;
smooth = 0;
x = 356;
y = 1285;
},
{
segmentType = line;
smooth = 1;
x = 1007;
y = 1285;
},
{
smooth = 0;
x = 1056;
y = 1285;
},
{
smooth = 0;
x = 1080;
y = 1319;
},
{
segmentType = curve;
smooth = 1;
x = 1080;
y = 1356;
},
{
smooth = 0;
x = 1080;
y = 1392;
},
{
smooth = 0;
x = 1056;
y = 1426;
},
{
segmentType = curve;
smooth = 1;
x = 1007;
y = 1426;
},
{
segmentType = line;
smooth = 1;
x = 261;
y = 1426;
},
{
smooth = 0;
x = 213;
y = 1426;
},
{
smooth = 0;
x = 178;
y = 1383;
},
{
segmentType = curve;
smooth = 1;
x = 178;
y = 1340;
},
{
segmentType = line;
smooth = 1;
x = 178;
y = 86;
},
{
smooth = 0;
x = 178;
y = 41;
},
{
smooth = 0;
x = 222;
y = 0;
}
);
}
);
lib = {
};
name = L;
unicodes = (
);
width = 1095;
};
};
components = (
);
contours = (
);
lib = {
};
name = L;
unicodes = (
);
width = 1169;
};
},
{
color = 5;
glyphname = M;
lastChange = "2019-08-06 12:42:42 +0000";
layers = (
{
anchors = (
{
name = bottom;
position = "{445, 0}";
},
{
name = top;
position = "{445, 705}";
}
);
background = {
anchors = (
{
name = bottom;
position = "{443, 0}";
},
{
name = top;
position = "{443, 705}";
}
);
paths = (
{
closed = 1;
nodes = (
"158 0 LINE",
"158 666 LINE",
"133 666 LINE",
"427 110 LINE",
"462 110 LINE",
"752 665 LINE",
"728 665 LINE",
"728 0 LINE",
"767 0 LINE",
"767 705 LINE",
"731 705 LINE",
"430 127 LINE",
"458 127 LINE",
"155 705 LINE",
"119 705 LINE",
"119 0 LINE"
);
}
);
};
layerId = "B0DFB0A8-5D2F-4351-A1F8-6629D0DA694C";
paths = (
{
closed = 1;
nodes = (
"166 0 LINE",
"166 635 LINE",
"170 635 LINE",
"430 110 LINE",
"474 110 LINE",
"732 635 LINE",
"736 635 LINE",
"736 0 LINE",
"786 0 LINE",
"786 705 LINE",
"715 705 LINE",
"454 173 LINE",
"450 173 LINE",
"187 705 LINE",
"116 705 LINE",
"116 0 LINE"
);
}
);
width = 902;
},
{
anchors = (
{
name = bottom;
position = "{422, 0}";
},
{
name = top;
position = "{422, 705}";
}
);
background = {
anchors = (
{
name = bottom;
position = "{422, 0}";
},
{
name = top;
position = "{422, 705}";
}
);
paths = (
{
closed = 1;
nodes = (
"137 0 LINE",
"137 666 LINE",
"112 666 LINE",
"406 110 LINE",
"441 110 LINE",
"731 665 LINE",
"707 665 LINE",
"707 0 LINE",
"746 0 LINE",
"746 705 LINE",
"710 705 LINE",
"409 127 LINE",
"437 127 LINE",
"134 705 LINE",
"98 705 LINE",
"98 0 LINE"
);
}
);
};
layerId = "F1F93986-3ED8-4AAE-84C4-CA3EEECDDFA0";
paths = (
{
closed = 1;
nodes = (
"137 0 LINE",
"137 666 LINE",
"112 666 LINE",
"406 110 LINE",
"441 110 LINE",
"731 665 LINE",
"707 665 LINE",
"707 0 LINE",
"746 0 LINE",
"746 705 LINE",
"710 705 LINE",
"409 127 LINE",
"437 127 LINE",
"134 705 LINE",
"98 705 LINE",
"98 0 LINE"
);
}
);
width = 844;
}
);
leftKerningGroup = H;
leftMetricsKey = "=H+2";
rightKerningGroup = H;
rightMetricsKey = "=H+2";
unicode = 004D;
userData = {
anchors = (
);
b = {
};
com.typemytype.robofont.layerData = {
b = {
anchors = (
);
components = (
);
contours = (
);
lib = {
};
name = M;
unicodes = (
);
width = 1899;
};
};
components = (
);
contours = (
);
lib = {
};
name = M;
unicodes = (
);
width = 1984;
};
},
{
color = 5;
glyphname = N;
lastChange = "2019-08-06 12:42:42 +0000";
layers = (
{
anchors = (
{
name = bottom;
position = "{404, 0}";
},
{
name = top;
position = "{404, 705}";
}
);
background = {
anchors = (
{
name = bottom;
position = "{387, 0}";
},
{
name = top;
position = "{387, 705}";
}
);
paths = (
{
closed = 1;
nodes = (
"156 0 LINE",
"156 663 LINE",
"135 663 LINE",
"623 0 LINE",
"657 0 LINE",
"657 705 LINE",
"618 705 LINE",
"618 42 LINE",
"640 42 LINE",
"152 705 LINE",
"117 705 LINE",
"117 0 LINE"
);
}
);
};
layerId = "B0DFB0A8-5D2F-4351-A1F8-6629D0DA694C";
paths = (
{
closed = 1;
nodes = (
"164 0 LINE",
"164 621 LINE",
"168 621 LINE",
"642 0 LINE",
"694 0 LINE",
"694 705 LINE",
"644 705 LINE",
"644 84 LINE",
"640 84 LINE",
"167 705 LINE",
"114 705 LINE",
"114 0 LINE"
);
}
);
width = 808;
},
{
anchors = (
{
name = bottom;
position = "{366, 0}";
},
{
name = top;
position = "{366, 705}";
}
);
background = {
anchors = (
{
name = bottom;
position = "{366, 0}";
},
{
name = top;
position = "{366, 705}";
}
);
paths = (
{
closed = 1;
nodes = (
"135 0 LINE",
"135 663 LINE",
"114 663 LINE",
"602 0 LINE",
"636 0 LINE",
"636 705 LINE",
"597 705 LINE",
"597 42 LINE",
"619 42 LINE",
"131 705 LINE",
"96 705 LINE",
"96 0 LINE"
);
}
);
};
layerId = "F1F93986-3ED8-4AAE-84C4-CA3EEECDDFA0";
paths = (
{
closed = 1;
nodes = (
"135 0 LINE",
"135 663 LINE",
"114 663 LINE",
"602 0 LINE",
"636 0 LINE",
"636 705 LINE",
"597 705 LINE",
"597 42 LINE",
"619 42 LINE",
"131 705 LINE",
"96 705 LINE",
"96 0 LINE"
);
}
);
width = 732;
}
);
leftKerningGroup = H;
leftMetricsKey = H;
rightKerningGroup = H;
rightMetricsKey = H;
unicode = 004E;
userData = {
anchors = (
);
b = {
};
com.typemytype.robofont.layerData = {
b = {
anchors = (
);
components = (
);
contours = (
);
lib = {
};
name = N;
unicodes = (
);
width = 1499;
};
};
components = (
);
contours = (
);
lib = {
};
name = N;
unicodes = (
);
width = 1557;
};
},
{
color = 5;
glyphname = Eng;
lastChange = "2019-08-06 12:42:42 +0000";
layers = (
{
anchors = (
{
name = bottom;
position = "{384, 0}";
},
{
name = top;
position = "{384, 705}";
}
);
background = {
anchors = (
{
name = bottom;
position = "{382, 0}";
},
{
name = top;
position = "{382, 705}";
}
);
paths = (
{
closed = 1;
nodes = (
"652 705 LINE",
"613 705 LINE",
"613 42 LINE",
"635 42 LINE",
"147 705 LINE",
"112 705 LINE",
"112 0 LINE",
"151 0 LINE",
"151 663 LINE",
"130 663 LINE",
"618 0 LINE",
"613 25 LINE",
"613 -22 LINE SMOOTH",
"613 -102 OFFCURVE",
"575 -147 OFFCURVE",
"505 -152 CURVE SMOOTH",
"464 -155 LINE",
"467 -193 LINE",
"510 -190 LINE SMOOTH",
"600 -184 OFFCURVE",
"652 -124 OFFCURVE",
"652 -21 CURVE SMOOTH"
);
}
);
};
layerId = "B0DFB0A8-5D2F-4351-A1F8-6629D0DA694C";
paths = (
{
closed = 1;
nodes = (
"674 705 LINE",
"624 705 LINE",
"624 84 LINE",
"620 84 LINE",
"166 705 LINE",
"114 705 LINE",
"114 0 LINE",
"164 0 LINE",
"164 621 LINE",
"168 621 LINE",
"632 -16 LINE",
"624 45 LINE",
"624 -23 LINE SMOOTH",
"624 -103 OFFCURVE",
"585 -131 OFFCURVE",
"517 -139 CURVE SMOOTH",
"476 -144 LINE",
"479 -193 LINE",
"522 -188 LINE SMOOTH",
"616 -177 OFFCURVE",
"674 -120 OFFCURVE",
"674 -21 CURVE SMOOTH"
);
}
);
width = 808;
},
{
anchors = (
{
name = bottom;
position = "{366, 0}";
},
{
name = top;
position = "{366, 705}";
}
);
background = {
anchors = (
{
name = bottom;
position = "{366, 0}";
},
{
name = top;
position = "{366, 705}";
}
);
paths = (
{
closed = 1;
nodes = (
"1336 705 LINE",
"1297 705 LINE",
"1297 42 LINE",
"1319 42 LINE",
"831 705 LINE",
"796 705 LINE",
"796 0 LINE",
"835 0 LINE",
"835 663 LINE",
"814 663 LINE",
"1302 0 LINE",
"1297 25 LINE",
"1297 -22 LINE SMOOTH",
"1297 -102 OFFCURVE",
"1259 -147 OFFCURVE",
"1189 -152 CURVE SMOOTH",
"1148 -155 LINE",
"1151 -193 LINE",
"1194 -190 LINE SMOOTH",
"1284 -184 OFFCURVE",
"1336 -124 OFFCURVE",
"1336 -21 CURVE SMOOTH"
);
},
{
closed = 1;
nodes = (
"135 0 LINE",
"135 663 LINE",
"114 663 LINE",
"602 0 LINE",
"636 0 LINE",
"636 705 LINE",
"597 705 LINE",
"597 42 LINE",
"619 42 LINE",
"131 705 LINE",
"96 705 LINE",
"96 0 LINE"
);
}
);
};
layerId = "F1F93986-3ED8-4AAE-84C4-CA3EEECDDFA0";
paths = (
{
closed = 1;
nodes = (
"636 705 LINE",
"597 705 LINE",
"597 42 LINE",
"619 42 LINE",
"131 705 LINE",
"96 705 LINE",
"96 0 LINE",
"135 0 LINE",
"135 663 LINE",
"114 663 LINE",
"602 0 LINE",
"597 25 LINE",
"597 -22 LINE SMOOTH",
"597 -101 OFFCURVE",
"559 -147 OFFCURVE",
"489 -152 CURVE SMOOTH",
"448 -155 LINE",
"451 -193 LINE",
"494 -190 LINE SMOOTH",
"584 -184 OFFCURVE",
"636 -123 OFFCURVE",
"636 -21 CURVE SMOOTH"
);
}
);
width = 732;
}
);
leftKerningGroup = H;
leftMetricsKey = N;
widthMetricsKey = N;
rightKerningGroup = H;
unicode = 014A;
userData = {
com.typemytype.robofont.layerData = {
b = {
anchors = (
);
components = (
);
contours = (
);
lib = {
};
name = Eng;
unicodes = (
);
width = 1495;
};
};
};
},
{
color = 5;
glyphname = O;
lastChange = "2019-08-06 12:42:42 +0000";
layers = (
{
anchors = (
{
name = Qtail;
position = "{407, -8}";
},
{
name = bottom;
position = "{396, 0}";
},
{
name = center;
position = "{408, 359}";
},
{
name = ogonek;
position = "{451, 0}";
},
{
name = top;
position = "{396, 705}";
},
{
name = topleft;
position = "{30, 705}";
},
{
name = topright;
position = "{487, 705}";
}
);
background = {
anchors = (
{
name = Qtail;
position = "{375, -8}";
},
{
name = bottom;
position = "{375, 0}";
},
{
name = center;
position = "{376, 353}";
},
{
name = ogonek;
position = "{430, 0}";
},
{
name = top;
position = "{375, 705}";
},
{
name = topleft;
position = "{26, 705}";
},
{
name = topright;
position = "{449, 705}";
}
);
paths = (
{
closed = 1;
nodes = (
"566 -8 OFFCURVE",
"684 130 OFFCURVE",
"684 353 CURVE SMOOTH",
"684 576 OFFCURVE",
"567 713 OFFCURVE",
"375 713 CURVE SMOOTH",
"183 713 OFFCURVE",
"67 576 OFFCURVE",
"67 352 CURVE SMOOTH",
"67 130 OFFCURVE",
"185 -8 OFFCURVE",
"375 -8 CURVE SMOOTH"
);
},
{
closed = 1;
nodes = (
"208 33 OFFCURVE",
"112 151 OFFCURVE",
"112 353 CURVE SMOOTH",
"112 555 OFFCURVE",
"208 672 OFFCURVE",
"375 672 CURVE SMOOTH",
"544 672 OFFCURVE",
"639 556 OFFCURVE",
"639 353 CURVE SMOOTH",
"639 150 OFFCURVE",
"543 33 OFFCURVE",
"375 33 CURVE SMOOTH"
);
}
);
};
layerId = "B0DFB0A8-5D2F-4351-A1F8-6629D0DA694C";
paths = (
{
closed = 1;
nodes = (
"595 -8 OFFCURVE",
"712 126 OFFCURVE",
"712 353 CURVE SMOOTH",
"712 579 OFFCURVE",
"596 713 OFFCURVE",
"396 713 CURVE SMOOTH",
"196 713 OFFCURVE",
"81 579 OFFCURVE",
"81 352 CURVE SMOOTH",
"81 126 OFFCURVE",
"198 -8 OFFCURVE",
"396 -8 CURVE SMOOTH"
);
},
{
closed = 1;
nodes = (
"232 43 OFFCURVE",
"136 148 OFFCURVE",
"136 353 CURVE SMOOTH",
"136 558 OFFCURVE",
"232 662 OFFCURVE",
"396 662 CURVE SMOOTH",
"562 662 OFFCURVE",
"657 559 OFFCURVE",
"657 353 CURVE SMOOTH",
"657 147 OFFCURVE",
"561 43 OFFCURVE",
"396 43 CURVE SMOOTH"
);
}
);
width = 793;
},
{
anchors = (
{
name = Qtail;
position = "{375, -8}";
},
{
name = bottom;
position = "{375, 0}";
},
{
name = center;
position = "{376, 353}";
},
{
name = ogonek;
position = "{430, 0}";
},
{
name = top;
position = "{375, 705}";
},
{
name = topleft;
position = "{26, 705}";
},
{
name = topright;
position = "{448, 705}";
}
);
background = {
anchors = (
{
name = Qtail;
position = "{375, -8}";
},
{
name = bottom;
position = "{375, 0}";
},
{
name = center;
position = "{376, 353}";
},
{
name = ogonek;
position = "{430, 0}";
},
{
name = top;
position = "{375, 705}";
},
{
name = topleft;
position = "{26, 705}";
},
{
name = topright;
position = "{449, 705}";
}
);
paths = (
{
closed = 1;
nodes = (
"566 -8 OFFCURVE",
"684 130 OFFCURVE",
"684 353 CURVE SMOOTH",
"684 576 OFFCURVE",
"567 713 OFFCURVE",
"375 713 CURVE SMOOTH",
"183 713 OFFCURVE",
"67 576 OFFCURVE",
"67 352 CURVE SMOOTH",
"67 130 OFFCURVE",
"185 -8 OFFCURVE",
"375 -8 CURVE SMOOTH"
);
},
{
closed = 1;
nodes = (
"208 33 OFFCURVE",
"112 151 OFFCURVE",
"112 353 CURVE SMOOTH",
"112 555 OFFCURVE",
"208 672 OFFCURVE",
"375 672 CURVE SMOOTH",
"544 672 OFFCURVE",
"639 556 OFFCURVE",
"639 353 CURVE SMOOTH",
"639 150 OFFCURVE",
"543 33 OFFCURVE",
"375 33 CURVE SMOOTH"
);
}
);
};
layerId = "F1F93986-3ED8-4AAE-84C4-CA3EEECDDFA0";
paths = (
{
closed = 1;
nodes = (
"566 -8 OFFCURVE",
"684 130 OFFCURVE",
"684 353 CURVE SMOOTH",
"684 576 OFFCURVE",
"567 713 OFFCURVE",
"375 713 CURVE SMOOTH",
"183 713 OFFCURVE",
"67 576 OFFCURVE",
"67 352 CURVE SMOOTH",
"67 130 OFFCURVE",
"185 -8 OFFCURVE",
"375 -8 CURVE SMOOTH"
);
},
{
closed = 1;
nodes = (
"208 33 OFFCURVE",
"112 151 OFFCURVE",
"112 353 CURVE SMOOTH",
"112 555 OFFCURVE",
"208 672 OFFCURVE",
"375 672 CURVE SMOOTH",
"544 672 OFFCURVE",
"639 556 OFFCURVE",
"639 353 CURVE SMOOTH",
"639 150 OFFCURVE",
"543 33 OFFCURVE",
"375 33 CURVE SMOOTH"
);
}
);
width = 751;
}
);
leftKerningGroup = O;
rightKerningGroup = O;
unicode = 004F;
userData = {
anchors = (
);
b = {
};
com.typemytype.robofont.guides = (
);
com.typemytype.robofont.layerData = {
b = {
anchors = (
);
components = (
);
contours = (
);
lib = {
};
name = O;
unicodes = (
);
width = 1597;
};
};
components = (
);
contours = (
);
lib = {
};
name = O;
unicodes = (
);
width = 1604;
};
},
{
color = 5;
glyphname = OE;
lastChange = "2019-08-06 12:42:42 +0000";
layers = (
{
anchors = (
{
name = bottom;
position = "{623, 0}";
},
{
name = top;
position = "{623, 705}";
}
);
background = {
anchors = (
{
name = bottom;
position = "{621, 0}";
},
{
name = top;
position = "{621, 705}";
}
);
paths = (
{
closed = 1;
nodes = (
"1023 705 LINE",
"459 705 LINE SMOOTH",
"223 705 OFFCURVE",
"101 580 OFFCURVE",
"101 353 CURVE SMOOTH",
"101 127 OFFCURVE",
"224 0 OFFCURVE",
"459 0 CURVE SMOOTH",
"1023 0 LINE",
"1023 39 LINE",
"641 39 LINE",
"641 338 LINE",
"1003 338 LINE",
"1003 377 LINE",
"641 377 LINE",
"641 666 LINE",
"1023 666 LINE"
);
},
{
closed = 1;
nodes = (
"457 39 LINE SMOOTH",
"247 39 OFFCURVE",
"146 145 OFFCURVE",
"146 353 CURVE SMOOTH",
"146 562 OFFCURVE",
"246 666 OFFCURVE",
"457 666 CURVE SMOOTH",
"599 666 LINE",
"599 39 LINE"
);
}
);
};
layerId = "B0DFB0A8-5D2F-4351-A1F8-6629D0DA694C";
paths = (
{
closed = 1;
nodes = (
"1045 705 LINE",
"426 705 LINE SMOOTH",
"206 705 OFFCURVE",
"81 578 OFFCURVE",
"81 352 CURVE SMOOTH",
"81 126 OFFCURVE",
"204 0 OFFCURVE",
"426 0 CURVE SMOOTH",
"1045 0 LINE",
"1045 50 LINE",
"653 50 LINE",
"653 332 LINE",
"1025 332 LINE",
"1025 382 LINE",
"653 382 LINE",
"653 655 LINE",
"1045 655 LINE"
);
},
{
closed = 1;
nodes = (
"427 50 LINE SMOOTH",
"237 50 OFFCURVE",
"136 144 OFFCURVE",
"136 352 CURVE SMOOTH",
"136 560 OFFCURVE",
"238 655 OFFCURVE",
"427 655 CURVE SMOOTH",
"601 655 LINE",
"601 50 LINE"
);
}
);
width = 1127;
},
{
anchors = (
{
name = bottom;
position = "{585, 0}";
},
{
name = top;
position = "{585, 705}";
}
);
background = {
anchors = (
{
name = bottom;
position = "{587, 0}";
},
{
name = top;
position = "{587, 705}";
}
);
paths = (
{
closed = 1;
nodes = (
"629 705 LINE",
"412 705 LINE SMOOTH",
"191 705 OFFCURVE",
"67 579 OFFCURVE",
"67 353 CURVE SMOOTH",
"67 127 OFFCURVE",
"191 0 OFFCURVE",
"412 0 CURVE SMOOTH",
"629 0 LINE"
);
},
{
closed = 1;
nodes = (
"416 39 LINE SMOOTH",
"213 39 OFFCURVE",
"112 145 OFFCURVE",
"112 353 CURVE SMOOTH",
"112 561 OFFCURVE",
"213 666 OFFCURVE",
"416 666 CURVE SMOOTH",
"587 666 LINE",
"587 39 LINE"
);
},
{
closed = 1;
nodes = (
"998 705 LINE",
"574 705 LINE",
"574 0 LINE",
"998 0 LINE",
"998 39 LINE",
"616 39 LINE",
"616 338 LINE",
"978 338 LINE",
"978 377 LINE",
"616 377 LINE",
"616 666 LINE",
"998 666 LINE"
);
}
);
};
layerId = "F1F93986-3ED8-4AAE-84C4-CA3EEECDDFA0";
paths = (
{
closed = 1;
nodes = (
"988 705 LINE",
"412 705 LINE SMOOTH",
"191 705 OFFCURVE",
"67 583 OFFCURVE",
"67 353 CURVE SMOOTH",
"67 123 OFFCURVE",
"191 0 OFFCURVE",
"412 0 CURVE SMOOTH",
"988 0 LINE",
"988 39 LINE",
"606 39 LINE",
"606 338 LINE",
"968 338 LINE",
"968 377 LINE",
"606 377 LINE",
"606 666 LINE",
"988 666 LINE"
);
},
{
closed = 1;
nodes = (
"416 39 LINE SMOOTH",
"213 39 OFFCURVE",
"112 145 OFFCURVE",
"112 353 CURVE SMOOTH",
"112 561 OFFCURVE",
"213 666 OFFCURVE",
"416 666 CURVE SMOOTH",
"564 666 LINE",
"564 39 LINE"
);
}
);
width = 1038;
}
);
leftKerningGroup = O;
leftMetricsKey = O;
rightKerningGroup = E;
rightMetricsKey = E;
unicode = 0152;
},
{
color = 5;
glyphname = P;
lastChange = "2019-08-06 12:42:42 +0000";
layers = (
{
anchors = (
{
name = bottom;
position = "{338, 0}";
},
{
name = top;
position = "{338, 705}";
}
);
background = {
anchors = (
{
name = bottom;
position = "{336, 0}";
},
{
name = top;
position = "{336, 705}";
}
);
paths = (
{
closed = 1;
nodes = (
"116 705 LINE",
"116 0 LINE",
"158 0 LINE",
"158 303 LINE",
"370 303 LINE SMOOTH",
"517 303 OFFCURVE",
"599 376 OFFCURVE",
"599 505 CURVE SMOOTH",
"599 634 OFFCURVE",
"518 705 OFFCURVE",
"370 705 CURVE SMOOTH"
);
},
{
closed = 1;
nodes = (
"158 342 LINE",
"158 666 LINE",
"369 666 LINE SMOOTH",
"493 666 OFFCURVE",
"555 611 OFFCURVE",
"555 505 CURVE SMOOTH",
"555 399 OFFCURVE",
"493 342 OFFCURVE",
"369 342 CURVE SMOOTH"
);
}
);
};
layerId = "B0DFB0A8-5D2F-4351-A1F8-6629D0DA694C";
paths = (
{
closed = 1;
nodes = (
"114 705 LINE",
"114 0 LINE",
"166 0 LINE",
"166 293 LINE",
"384 293 LINE SMOOTH",
"531 293 OFFCURVE",
"618 371 OFFCURVE",
"618 500 CURVE SMOOTH",
"618 629 OFFCURVE",
"532 705 OFFCURVE",
"384 705 CURVE SMOOTH"
);
},
{
closed = 1;
nodes = (
"166 343 LINE",
"166 655 LINE",
"378 655 LINE SMOOTH",
"500 655 OFFCURVE",
"564 606 OFFCURVE",
"564 500 CURVE SMOOTH",
"564 394 OFFCURVE",
"500 343 OFFCURVE",
"378 343 CURVE SMOOTH"
);
}
);
width = 682;
},
{
anchors = (
{
name = bottom;
position = "{316, 0}";
},
{
name = top;
position = "{316, 705}";
}
);
background = {
anchors = (
{
name = bottom;
position = "{316, 0}";
},
{
name = top;
position = "{316, 705}";
}
);
paths = (
{
closed = 1;
nodes = (
"96 705 LINE",
"96 0 LINE",
"138 0 LINE",
"138 303 LINE",
"350 303 LINE SMOOTH",
"497 303 OFFCURVE",
"579 376 OFFCURVE",
"579 505 CURVE SMOOTH",
"579 634 OFFCURVE",
"498 705 OFFCURVE",
"350 705 CURVE SMOOTH"
);
},
{
closed = 1;
nodes = (
"138 342 LINE",
"138 666 LINE",
"349 666 LINE SMOOTH",
"473 666 OFFCURVE",
"535 611 OFFCURVE",
"535 505 CURVE SMOOTH",
"535 399 OFFCURVE",
"473 342 OFFCURVE",
"349 342 CURVE SMOOTH"
);
}
);
};
layerId = "F1F93986-3ED8-4AAE-84C4-CA3EEECDDFA0";
paths = (
{
closed = 1;
nodes = (
"96 705 LINE",
"96 0 LINE",
"138 0 LINE",
"138 297 LINE",
"351 297 LINE SMOOTH",
"499 297 OFFCURVE",
"580 370 OFFCURVE",
"580 501 CURVE SMOOTH",
"580 632 OFFCURVE",
"499 705 OFFCURVE",
"351 705 CURVE SMOOTH"
);
},
{
closed = 1;
nodes = (
"138 336 LINE",
"138 666 LINE",
"350 666 LINE SMOOTH",
"474 666 OFFCURVE",
"536 609 OFFCURVE",
"536 501 CURVE SMOOTH",
"536 393 OFFCURVE",
"474 336 OFFCURVE",
"350 336 CURVE SMOOTH"
);
}
);
width = 616;
}
);
leftKerningGroup = H;
leftMetricsKey = H;
rightKerningGroup = P;
unicode = 0050;
userData = {
anchors = (
);
b = {
};
com.typemytype.robofont.layerData = {
b = {
anchors = (
);
components = (
);
contours = (
{
points = (
{
segmentType = curve;
smooth = 1;
x = 266;
y = 0;
},
{
segmentType = line;
smooth = 1;
x = 1035;
y = 0;
},
{
smooth = 0;
x = 1084;
y = 0;
},
{
smooth = 0;
x = 1108;
y = 34;
},
{
segmentType = curve;
smooth = 1;
x = 1108;
y = 71;
},
{
smooth = 0;
x = 1108;
y = 107;
},
{
smooth = 0;
x = 1084;
y = 141;
},
{
segmentType = curve;
smooth = 1;
x = 1035;
y = 141;
},
{
segmentType = line;
smooth = 0;
x = 356;
y = 141;
},
{
segmentType = line;
smooth = 0;
x = 356;
y = 665;
},
{
segmentType = line;
smooth = 1;
x = 975;
y = 665;
},
{
smooth = 0;
x = 1024;
y = 665;
},
{
smooth = 0;
x = 1049;
y = 698;
},
{
segmentType = curve;
smooth = 1;
x = 1049;
y = 734;
},
{
smooth = 0;
x = 1049;
y = 770;
},
{
smooth = 0;
x = 1026;
y = 803;
},
{
segmentType = curve;
smooth = 1;
x = 975;
y = 803;
},
{
segmentType = line;
smooth = 0;
x = 356;
y = 803;
},
{
segmentType = line;
smooth = 0;
x = 356;
y = 1285;
},
{
segmentType = line;
smooth = 1;
x = 1007;
y = 1285;
},
{
smooth = 0;
x = 1056;
y = 1285;
},
{
smooth = 0;
x = 1080;
y = 1319;
},
{
segmentType = curve;
smooth = 1;
x = 1080;
y = 1356;
},
{
smooth = 0;
x = 1080;
y = 1392;
},
{
smooth = 0;
x = 1056;
y = 1426;
},
{
segmentType = curve;
smooth = 1;
x = 1007;
y = 1426;
},
{
segmentType = line;
smooth = 1;
x = 261;
y = 1426;
},
{
smooth = 0;
x = 213;
y = 1426;
},
{
smooth = 0;
x = 178;
y = 1383;
},
{
segmentType = curve;
smooth = 1;
x = 178;
y = 1340;
},
{
segmentType = line;
smooth = 1;
x = 178;
y = 86;
},
{
smooth = 0;
x = 178;
y = 41;
},
{
smooth = 0;
x = 222;
y = 0;
}
);
}
);
lib = {
};
name = P;
unicodes = (
);
width = 1201;
};
};
components = (
);
contours = (
);
lib = {
};
name = P;
unicodes = (
);
width = 1319;
};
},
{
color = 5;
glyphname = Thorn;
lastChange = "2019-08-06 12:42:42 +0000";
layers = (
{
anchors = (
{
name = bottom;
position = "{334, 0}";
},
{
name = top;
position = "{334, 705}";
}
);
background = {
paths = (
{
closed = 1;
nodes = (
"154 566 LINE",
"154 705 LINE",
"112 705 LINE",
"112 0 LINE",
"154 0 LINE",
"154 164 LINE",
"366 164 LINE SMOOTH",
"513 164 OFFCURVE",
"595 237 OFFCURVE",
"595 366 CURVE SMOOTH",
"595 495 OFFCURVE",
"514 566 OFFCURVE",
"366 566 CURVE SMOOTH"
);
},
{
closed = 1;
nodes = (
"154 203 LINE",
"154 527 LINE",
"365 527 LINE SMOOTH",
"489 527 OFFCURVE",
"551 472 OFFCURVE",
"551 366 CURVE SMOOTH",
"551 260 OFFCURVE",
"489 203 OFFCURVE",
"365 203 CURVE SMOOTH"
);
}
);
};
layerId = "B0DFB0A8-5D2F-4351-A1F8-6629D0DA694C";
paths = (
{
closed = 1;
nodes = (
"166 568 LINE",
"166 705 LINE",
"114 705 LINE",
"114 0 LINE",
"166 0 LINE",
"166 164 LINE",
"384 164 LINE SMOOTH",
"531 164 OFFCURVE",
"618 238 OFFCURVE",
"618 367 CURVE SMOOTH",
"618 496 OFFCURVE",
"532 568 OFFCURVE",
"384 568 CURVE SMOOTH"
);
},
{
closed = 1;
nodes = (
"166 214 LINE",
"166 518 LINE",
"378 518 LINE SMOOTH",
"500 518 OFFCURVE",
"564 473 OFFCURVE",
"564 367 CURVE SMOOTH",
"564 261 OFFCURVE",
"500 214 OFFCURVE",
"378 214 CURVE SMOOTH"
);
}
);
width = 666;
},
{
anchors = (
{
name = bottom;
position = "{316, 0}";
},
{
name = top;
position = "{316, 705}";
}
);
background = {
anchors = (
{
name = bottom;
position = "{316, 0}";
},
{
name = top;
position = "{316, 705}";
}
);
paths = (
{
closed = 1;
nodes = (
"738 566 LINE",
"738 705 LINE",
"696 705 LINE",
"696 0 LINE",
"738 0 LINE",
"738 164 LINE",
"950 164 LINE SMOOTH",
"1097 164 OFFCURVE",
"1179 237 OFFCURVE",
"1179 366 CURVE SMOOTH",
"1179 495 OFFCURVE",
"1098 566 OFFCURVE",
"950 566 CURVE SMOOTH"
);
},
{
closed = 1;
nodes = (
"738 203 LINE",
"738 527 LINE",
"949 527 LINE SMOOTH",
"1073 527 OFFCURVE",
"1135 472 OFFCURVE",
"1135 366 CURVE SMOOTH",
"1135 260 OFFCURVE",
"1073 203 OFFCURVE",
"949 203 CURVE SMOOTH"
);
},
{
closed = 1;
nodes = (
"96 569 LINE",
"96 -136 LINE",
"138 -136 LINE",
"138 161 LINE",
"351 161 LINE SMOOTH",
"499 161 OFFCURVE",
"580 234 OFFCURVE",
"580 365 CURVE SMOOTH",
"580 496 OFFCURVE",
"499 569 OFFCURVE",
"351 569 CURVE SMOOTH"
);
},
{
closed = 1;
nodes = (
"138 200 LINE",
"138 530 LINE",
"350 530 LINE SMOOTH",
"474 530 OFFCURVE",
"536 473 OFFCURVE",
"536 365 CURVE SMOOTH",
"536 257 OFFCURVE",
"474 200 OFFCURVE",
"350 200 CURVE SMOOTH"
);
}
);
};
layerId = "F1F93986-3ED8-4AAE-84C4-CA3EEECDDFA0";
paths = (
{
closed = 1;
nodes = (
"138 569 LINE",
"138 705 LINE",
"96 705 LINE",
"96 0 LINE",
"138 0 LINE",
"138 161 LINE",
"351 161 LINE SMOOTH",
"499 161 OFFCURVE",
"580 234 OFFCURVE",
"580 365 CURVE SMOOTH",
"580 496 OFFCURVE",
"499 569 OFFCURVE",
"351 569 CURVE SMOOTH"
);
},
{
closed = 1;
nodes = (
"138 200 LINE",
"138 530 LINE",
"350 530 LINE SMOOTH",
"474 530 OFFCURVE",
"536 473 OFFCURVE",
"536 365 CURVE SMOOTH",
"536 257 OFFCURVE",
"474 200 OFFCURVE",
"350 200 CURVE SMOOTH"
);
}
);
width = 616;
}
);
leftKerningGroup = H;
leftMetricsKey = H;
rightKerningGroup = THORN;
unicode = 00DE;
},
{
color = 5;
glyphname = R;
lastChange = "2019-08-06 12:42:42 +0000";
layers = (
{
anchors = (
{
name = bottom;
position = "{356, 0}";
},
{
name = top;
position = "{356, 705}";
}
);
background = {
paths = (
{
closed = 1;
nodes = (
"164 0 LINE",
"164 307 LINE",
"326 307 LINE SMOOTH",
"404 307 OFFCURVE",
"441 291 OFFCURVE",
"475 226 CURVE SMOOTH",
"594 0 LINE",
"652 0 LINE",
"524 242 LINE SMOOTH",
"489 308 OFFCURVE",
"449 322 OFFCURVE",
"397 322 CURVE SMOOTH",
"393 322 LINE",
"393 311 LINE",
"537 311 OFFCURVE",
"614 387 OFFCURVE",
"614 510 CURVE SMOOTH",
"614 639 OFFCURVE",
"530 705 OFFCURVE",
"386 705 CURVE SMOOTH",
"112 705 LINE",
"112 0 LINE"
);
},
{
closed = 1;
nodes = (
"164 655 LINE",
"382 655 LINE SMOOTH",
"506 655 OFFCURVE",
"560 615 OFFCURVE",
"560 511 CURVE SMOOTH",
"560 405 OFFCURVE",
"511 356 OFFCURVE",
"390 356 CURVE SMOOTH",
"164 356 LINE"
);
}
);
};
layerId = "B0DFB0A8-5D2F-4351-A1F8-6629D0DA694C";
paths = (
{
closed = 1;
nodes = (
"166 0 LINE",
"166 307 LINE",
"328 307 LINE SMOOTH",
"406 307 OFFCURVE",
"443 291 OFFCURVE",
"477 226 CURVE SMOOTH",
"596 0 LINE",
"654 0 LINE",
"526 242 LINE SMOOTH",
"505 281 OFFCURVE",
"486 300 OFFCURVE",
"462 310 CURVE SMOOTH",
"457 312 LINE",
"457 316 LINE",
"557 335 OFFCURVE",
"616 402 OFFCURVE",
"616 510 CURVE SMOOTH",
"616 639 OFFCURVE",
"532 705 OFFCURVE",
"388 705 CURVE SMOOTH",
"114 705 LINE",
"114 0 LINE"
);
},
{
closed = 1;
nodes = (
"166 655 LINE",
"384 655 LINE SMOOTH",
"508 655 OFFCURVE",
"562 615 OFFCURVE",
"562 511 CURVE SMOOTH",
"562 405 OFFCURVE",
"513 356 OFFCURVE",
"392 356 CURVE SMOOTH",
"166 356 LINE"
);
}
);
width = 712;
},
{
anchors = (
{
name = bottom;
position = "{334, 0}";
},
{
name = top;
position = "{334, 705}";
}
);
background = {
anchors = (
{
name = bottom;
position = "{334, 0}";
},
{
name = top;
position = "{334, 705}";
}
);
paths = (
{
closed = 1;
nodes = (
"96 705 LINE",
"96 0 LINE",
"138 0 LINE",
"138 297 LINE",
"351 297 LINE SMOOTH",
"499 297 OFFCURVE",
"580 370 OFFCURVE",
"580 501 CURVE SMOOTH",
"580 632 OFFCURVE",
"499 705 OFFCURVE",
"351 705 CURVE SMOOTH"
);
},
{
closed = 1;
nodes = (
"138 336 LINE",
"138 666 LINE",
"350 666 LINE SMOOTH",
"474 666 OFFCURVE",
"536 609 OFFCURVE",
"536 501 CURVE SMOOTH",
"536 393 OFFCURVE",
"474 336 OFFCURVE",
"350 336 CURVE SMOOTH"
);
}
);
};
layerId = "F1F93986-3ED8-4AAE-84C4-CA3EEECDDFA0";
paths = (
{
closed = 1;
nodes = (
"138 0 LINE",
"138 312 LINE",
"295 312 LINE SMOOTH",
"373 312 OFFCURVE",
"413 295 OFFCURVE",
"450 226 CURVE SMOOTH",
"572 0 LINE",
"618 0 LINE",
"487 242 LINE SMOOTH",
"455 302 OFFCURVE",
"420 327 OFFCURVE",
"370 327 CURVE SMOOTH",
"362 327 LINE",
"351 315 LINE",
"495 315 OFFCURVE",
"580 385 OFFCURVE",
"580 508 CURVE SMOOTH",
"580 635 OFFCURVE",
"499 705 OFFCURVE",
"351 705 CURVE SMOOTH",
"96 705 LINE",
"96 0 LINE"
);
},
{
closed = 1;
nodes = (
"138 666 LINE",
"347 666 LINE SMOOTH",
"473 666 OFFCURVE",
"536 612 OFFCURVE",
"536 509 CURVE SMOOTH",
"536 405 OFFCURVE",
"473 351 OFFCURVE",
"347 351 CURVE SMOOTH",
"138 351 LINE"
);
}
);
width = 654;
}
);
leftKerningGroup = H;
leftMetricsKey = H;
rightKerningGroup = R;
unicode = 0052;
userData = {
anchors = (
);
b = {
};
com.typemytype.robofont.guides = (
);
com.typemytype.robofont.layerData = {
b = {
anchors = (
);
components = (
);
contours = (
{
points = (
{
segmentType = curve;
smooth = 1;
x = 267;
y = 0;
},
{
smooth = 0;
x = 311;
y = 0;
},
{
smooth = 0;
x = 356;
y = 27;
},
{
segmentType = curve;
smooth = 1;
x = 356;
y = 84;
},
{
segmentType = line;
smooth = 0;
x = 356;
y = 628;
},
{
segmentType = line;
smooth = 1;
x = 669;
y = 628;
},
{
smooth = 0;
x = 962;
y = 628;
},
{
smooth = 0;
x = 1182;
y = 722;
},
{
segmentType = curve;
smooth = 1;
x = 1182;
y = 1026;
},
{
smooth = 0;
x = 1182;
y = 1324;
},
{
smooth = 0;
x = 993;
y = 1426;
},
{
segmentType = curve;
smooth = 1;
x = 684;
y = 1426;
},
{
segmentType = line;
smooth = 1;
x = 268;
y = 1426;
},
{
smooth = 0;
x = 217;
y = 1426;
},
{
smooth = 0;
x = 178;
y = 1387;
},
{
segmentType = curve;
smooth = 1;
x = 178;
y = 1339;
},
{
segmentType = line;
smooth = 1;
x = 178;
y = 84;
},
{
smooth = 0;
x = 178;
y = 28;
},
{
smooth = 0;
x = 222;
y = 0;
}
);
},
{
points = (
{
segmentType = line;
smooth = 0;
x = 356;
y = 764;
},
{
segmentType = line;
smooth = 0;
x = 356;
y = 1285;
},
{
segmentType = line;
smooth = 1;
x = 684;
y = 1285;
},
{
smooth = 0;
x = 914;
y = 1285;
},
{
smooth = 0;
x = 1008;
y = 1210;
},
{
segmentType = curve;
smooth = 1;
x = 1008;
y = 1026;
},
{
smooth = 0;
x = 1008;
y = 838;
},
{
smooth = 0;
x = 901;
y = 764;
},
{
segmentType = curve;
smooth = 1;
x = 670;
y = 764;
}
);
}
);
lib = {
};
name = R;
unicodes = (
);
width = 1363;
};
};
components = (
);
contours = (
);
lib = {
};
name = R;
unicodes = (
);
width = 1408;
};
},
{
color = 5;
glyphname = S;
lastChange = "2019-08-06 12:42:42 +0000";
layers = (
{
anchors = (
{
name = bottom;
position = "{317, 0}";
},
{
name = top;
position = "{311, 705}";
}
);
background = {
anchors = (
{
name = bottom;
position = "{315, 0}";
},
{
name = top;
position = "{309, 705}";
}
);
paths = (
{
closed = 1;
nodes = (
"463 -8 OFFCURVE",
"559 68 OFFCURVE",
"559 183 CURVE SMOOTH",
"559 273 OFFCURVE",
"508 325 OFFCURVE",
"370 355 CURVE SMOOTH",
"261 379 LINE SMOOTH",
"159 401 OFFCURVE",
"116 444 OFFCURVE",
"116 517 CURVE SMOOTH",
"116 614 OFFCURVE",
"190 672 OFFCURVE",
"317 672 CURVE SMOOTH",
"401 672 OFFCURVE",
"474 646 OFFCURVE",
"532 583 CURVE",
"556 619 LINE",
"498 682 OFFCURVE",
"412 713 OFFCURVE",
"317 713 CURVE SMOOTH",
"167 713 OFFCURVE",
"74 637 OFFCURVE",
"74 519 CURVE SMOOTH",
"74 429 OFFCURVE",
"122 367 OFFCURVE",
"248 339 CURVE SMOOTH",
"358 315 LINE SMOOTH",
"470 291 OFFCURVE",
"517 255 OFFCURVE",
"517 182 CURVE SMOOTH",
"517 88 OFFCURVE",
"444 33 OFFCURVE",
"318 33 CURVE SMOOTH",
"215 33 OFFCURVE",
"153 57 OFFCURVE",
"82 122 CURVE",
"59 87 LINE",
"121 26 OFFCURVE",
"206 -8 OFFCURVE",
"318 -8 CURVE SMOOTH"
);
}
);
};
layerId = "B0DFB0A8-5D2F-4351-A1F8-6629D0DA694C";
paths = (
{
closed = 1;
nodes = (
"485 -8 OFFCURVE",
"581 78 OFFCURVE",
"581 193 CURVE SMOOTH",
"581 283 OFFCURVE",
"520 340 OFFCURVE",
"382 368 CURVE SMOOTH",
"263 392 LINE SMOOTH",
"164 412 OFFCURVE",
"128 450 OFFCURVE",
"128 517 CURVE SMOOTH",
"128 612 OFFCURVE",
"222 662 OFFCURVE",
"339 662 CURVE SMOOTH",
"423 662 OFFCURVE",
"486 639 OFFCURVE",
"544 575 CURVE",
"572 619 LINE",
"514 679 OFFCURVE",
"441 713 OFFCURVE",
"339 713 CURVE SMOOTH",
"189 713 OFFCURVE",
"76 637 OFFCURVE",
"76 519 CURVE SMOOTH",
"76 429 OFFCURVE",
"122 369 OFFCURVE",
"250 342 CURVE SMOOTH",
"370 317 LINE SMOOTH",
"479 294 OFFCURVE",
"529 263 OFFCURVE",
"529 192 CURVE SMOOTH",
"529 100 OFFCURVE",
"456 43 OFFCURVE",
"340 43 CURVE SMOOTH",
"237 43 OFFCURVE",
"155 65 OFFCURVE",
"84 130 CURVE",
"57 87 LINE",
"119 26 OFFCURVE",
"220 -8 OFFCURVE",
"340 -8 CURVE SMOOTH"
);
}
);
width = 641;
},
{
anchors = (
{
name = bottom;
position = "{310, 0}";
},
{
name = top;
position = "{304, 705}";
}
);
background = {
paths = (
{
closed = 1;
nodes = (
"1058 -8 OFFCURVE",
"1154 68 OFFCURVE",
"1154 183 CURVE SMOOTH",
"1154 273 OFFCURVE",
"1103 325 OFFCURVE",
"965 355 CURVE SMOOTH",
"856 379 LINE SMOOTH",
"754 401 OFFCURVE",
"711 444 OFFCURVE",
"711 517 CURVE SMOOTH",
"711 614 OFFCURVE",
"785 672 OFFCURVE",
"912 672 CURVE SMOOTH",
"996 672 OFFCURVE",
"1069 646 OFFCURVE",
"1127 583 CURVE",
"1151 619 LINE",
"1093 682 OFFCURVE",
"1007 713 OFFCURVE",
"912 713 CURVE SMOOTH",
"762 713 OFFCURVE",
"669 637 OFFCURVE",
"669 519 CURVE SMOOTH",
"669 429 OFFCURVE",
"717 367 OFFCURVE",
"843 339 CURVE SMOOTH",
"953 315 LINE SMOOTH",
"1065 291 OFFCURVE",
"1112 255 OFFCURVE",
"1112 182 CURVE SMOOTH",
"1112 88 OFFCURVE",
"1039 33 OFFCURVE",
"913 33 CURVE SMOOTH",
"810 33 OFFCURVE",
"748 57 OFFCURVE",
"677 122 CURVE",
"654 87 LINE",
"716 26 OFFCURVE",
"801 -8 OFFCURVE",
"913 -8 CURVE SMOOTH"
);
},
{
closed = 1;
nodes = (
"403 -8 OFFCURVE",
"485 24 OFFCURVE",
"543 87 CURVE",
"521 122 LINE",
"458 59 OFFCURVE",
"392 33 OFFCURVE",
"304 33 CURVE SMOOTH",
"132 33 OFFCURVE",
"36 150 OFFCURVE",
"36 353 CURVE SMOOTH",
"36 555 OFFCURVE",
"132 672 OFFCURVE",
"304 672 CURVE SMOOTH",
"392 672 OFFCURVE",
"458 646 OFFCURVE",
"521 583 CURVE",
"543 618 LINE",
"485 681 OFFCURVE",
"403 713 OFFCURVE",
"305 713 CURVE SMOOTH",
"107 713 OFFCURVE",
"-9 576 OFFCURVE",
"-9 353 CURVE SMOOTH",
"-9 129 OFFCURVE",
"107 -8 OFFCURVE",
"305 -8 CURVE SMOOTH"
);
}
);
};
layerId = "F1F93986-3ED8-4AAE-84C4-CA3EEECDDFA0";
paths = (
{
closed = 1;
nodes = (
"462 -8 OFFCURVE",
"554 69 OFFCURVE",
"554 180 CURVE SMOOTH",
"554 285 OFFCURVE",
"477 328 OFFCURVE",
"355 353 CURVE SMOOTH",
"256 373 LINE SMOOTH",
"155 393 OFFCURVE",
"111 435 OFFCURVE",
"111 513 CURVE SMOOTH",
"111 609 OFFCURVE",
"190 672 OFFCURVE",
"308 672 CURVE SMOOTH",
"393 672 OFFCURVE",
"456 647 OFFCURVE",
"519 586 CURVE",
"539 622 LINE",
"482 682 OFFCURVE",
"403 713 OFFCURVE",
"308 713 CURVE SMOOTH",
"167 713 OFFCURVE",
"69 632 OFFCURVE",
"69 513 CURVE SMOOTH",
"69 413 OFFCURVE",
"129 356 OFFCURVE",
"254 331 CURVE SMOOTH",
"353 311 LINE SMOOTH",
"465 288 OFFCURVE",
"512 252 OFFCURVE",
"512 179 CURVE SMOOTH",
"512 91 OFFCURVE",
"443 33 OFFCURVE",
"310 33 CURVE SMOOTH",
"205 33 OFFCURVE",
"142 58 OFFCURVE",
"72 115 CURVE",
"52 79 LINE",
"116 22 OFFCURVE",
"200 -8 OFFCURVE",
"310 -8 CURVE SMOOTH"
);
}
);
width = 600;
}
);
leftKerningGroup = S;
rightKerningGroup = S;
unicode = 0053;
userData = {
anchors = (
);
b = {
};
com.typemytype.robofont.layerData = {
b = {
anchors = (
);
components = (
);
contours = (
);
lib = {
};
name = S;
unicodes = (
);
width = 1274;
};
};
components = (
);
contours = (
);
lib = {
};
name = S;
unicodes = (
);
width = 1317;
};
},
{
color = 5;
glyphname = Germandbls;
lastChange = "2019-08-06 12:42:42 +0000";
layers = (
{
background = {
paths = (
{
closed = 1;
nodes = (
"154 0 LINE",
"154 457 LINE SMOOTH",
"154 604 OFFCURVE",
"234 672 OFFCURVE",
"373 672 CURVE SMOOTH",
"490 672 OFFCURVE",
"559 619 OFFCURVE",
"559 529 CURVE SMOOTH",
"559 430 OFFCURVE",
"493 377 OFFCURVE",
"391 377 CURVE SMOOTH",
"271 377 LINE",
"271 338 LINE",
"418 338 LINE SMOOTH",
"538 338 OFFCURVE",
"604 288 OFFCURVE",
"604 192 CURVE SMOOTH",
"604 96 OFFCURVE",
"539 33 OFFCURVE",
"429 33 CURVE SMOOTH",
"359 33 OFFCURVE",
"306 50 OFFCURVE",
"254 97 CURVE",
"232 62 LINE",
"278 16 OFFCURVE",
"348 -7 OFFCURVE",
"426 -7 CURVE SMOOTH",
"563 -7 OFFCURVE",
"642 72 OFFCURVE",
"642 191 CURVE SMOOTH",
"642 290 OFFCURVE",
"587 353 OFFCURVE",
"470 371 CURVE",
"470 358 LINE",
"548 375 OFFCURVE",
"601 440 OFFCURVE",
"601 529 CURVE SMOOTH",
"601 643 OFFCURVE",
"510 713 OFFCURVE",
"372 713 CURVE SMOOTH",
"210 713 OFFCURVE",
"112 630 OFFCURVE",
"112 464 CURVE SMOOTH",
"112 0 LINE"
);
}
);
};
layerId = "B0DFB0A8-5D2F-4351-A1F8-6629D0DA694C";
paths = (
{
closed = 1;
nodes = (
"164 0 LINE",
"164 457 LINE SMOOTH",
"164 604 OFFCURVE",
"237 662 OFFCURVE",
"386 662 CURVE SMOOTH",
"501 662 OFFCURVE",
"569 619 OFFCURVE",
"569 529 CURVE SMOOTH",
"569 430 OFFCURVE",
"490 383 OFFCURVE",
"401 383 CURVE SMOOTH",
"291 383 LINE",
"291 333 LINE",
"428 333 LINE SMOOTH",
"548 333 OFFCURVE",
"614 288 OFFCURVE",
"614 192 CURVE SMOOTH",
"614 96 OFFCURVE",
"549 43 OFFCURVE",
"439 43 CURVE SMOOTH",
"369 43 OFFCURVE",
"326 60 OFFCURVE",
"264 107 CURVE",
"242 61 LINE",
"298 15 OFFCURVE",
"358 -8 OFFCURVE",
"436 -8 CURVE SMOOTH",
"583 -8 OFFCURVE",
"667 72 OFFCURVE",
"667 193 CURVE SMOOTH",
"667 286 OFFCURVE",
"605 348 OFFCURVE",
"520 363 CURVE",
"520 367 LINE",
"577 393 OFFCURVE",
"622 452 OFFCURVE",
"622 529 CURVE SMOOTH",
"622 643 OFFCURVE",
"535 713 OFFCURVE",
"385 713 CURVE SMOOTH",
"213 713 OFFCURVE",
"114 630 OFFCURVE",
"114 464 CURVE SMOOTH",
"114 0 LINE"
);
}
);
width = 752;
},
{
background = {
paths = (
{
closed = 1;
nodes = (
"1038 0 LINE",
"1038 457 LINE SMOOTH",
"1038 604 OFFCURVE",
"1118 672 OFFCURVE",
"1257 672 CURVE SMOOTH",
"1374 672 OFFCURVE",
"1443 619 OFFCURVE",
"1443 529 CURVE SMOOTH",
"1443 430 OFFCURVE",
"1377 377 OFFCURVE",
"1275 377 CURVE SMOOTH",
"1155 377 LINE",
"1155 338 LINE",
"1302 338 LINE SMOOTH",
"1422 338 OFFCURVE",
"1488 288 OFFCURVE",
"1488 192 CURVE SMOOTH",
"1488 96 OFFCURVE",
"1423 33 OFFCURVE",
"1313 33 CURVE SMOOTH",
"1243 33 OFFCURVE",
"1190 50 OFFCURVE",
"1138 97 CURVE",
"1116 62 LINE",
"1162 16 OFFCURVE",
"1232 -7 OFFCURVE",
"1310 -7 CURVE SMOOTH",
"1447 -7 OFFCURVE",
"1526 72 OFFCURVE",
"1526 191 CURVE SMOOTH",
"1526 290 OFFCURVE",
"1471 353 OFFCURVE",
"1354 371 CURVE",
"1354 358 LINE",
"1432 375 OFFCURVE",
"1485 440 OFFCURVE",
"1485 529 CURVE SMOOTH",
"1485 643 OFFCURVE",
"1394 713 OFFCURVE",
"1256 713 CURVE SMOOTH",
"1094 713 OFFCURVE",
"996 630 OFFCURVE",
"996 464 CURVE SMOOTH",
"996 0 LINE"
);
},
{
closed = 1;
nodes = (
"138 0 LINE",
"138 467 LINE SMOOTH",
"138 604 OFFCURVE",
"219 673 OFFCURVE",
"359 673 CURVE SMOOTH",
"478 673 OFFCURVE",
"544 619 OFFCURVE",
"544 529 CURVE SMOOTH",
"544 430 OFFCURVE",
"477 374 OFFCURVE",
"375 374 CURVE SMOOTH",
"255 374 LINE",
"255 335 LINE",
"402 335 LINE SMOOTH",
"522 335 OFFCURVE",
"582 288 OFFCURVE",
"582 192 CURVE SMOOTH",
"582 96 OFFCURVE",
"523 33 OFFCURVE",
"413 33 CURVE SMOOTH",
"343 33 OFFCURVE",
"290 50 OFFCURVE",
"238 97 CURVE",
"216 62 LINE",
"262 17 OFFCURVE",
"332 -7 OFFCURVE",
"410 -7 CURVE SMOOTH",
"547 -7 OFFCURVE",
"626 72 OFFCURVE",
"626 191 CURVE SMOOTH",
"626 290 OFFCURVE",
"570 350 OFFCURVE",
"456 368 CURVE",
"457 355 LINE",
"535 372 OFFCURVE",
"588 440 OFFCURVE",
"588 529 CURVE SMOOTH",
"588 643 OFFCURVE",
"498 713 OFFCURVE",
"358 713 CURVE SMOOTH",
"195 713 OFFCURVE",
"96 630 OFFCURVE",
"96 474 CURVE SMOOTH",
"96 0 LINE"
);
}
);
};
layerId = "F1F93986-3ED8-4AAE-84C4-CA3EEECDDFA0";
paths = (
{
closed = 1;
nodes = (
"138 0 LINE",
"138 467 LINE SMOOTH",
"138 604 OFFCURVE",
"215 673 OFFCURVE",
"359 673 CURVE SMOOTH",
"478 673 OFFCURVE",
"544 621 OFFCURVE",
"544 524 CURVE SMOOTH",
"544 427 OFFCURVE",
"478 374 OFFCURVE",
"375 374 CURVE SMOOTH",
"255 374 LINE",
"255 335 LINE",
"402 335 LINE SMOOTH",
"523 335 OFFCURVE",
"582 281 OFFCURVE",
"582 186 CURVE SMOOTH",
"582 91 OFFCURVE",
"523 33 OFFCURVE",
"413 33 CURVE SMOOTH",
"343 33 OFFCURVE",
"290 50 OFFCURVE",
"238 97 CURVE",
"216 62 LINE",
"262 17 OFFCURVE",
"332 -7 OFFCURVE",
"413 -7 CURVE SMOOTH",
"547 -7 OFFCURVE",
"626 62 OFFCURVE",
"626 186 CURVE SMOOTH",
"626 290 OFFCURVE",
"560 354 OFFCURVE",
"456 367 CURVE",
"456 353 LINE",
"537 370 OFFCURVE",
"588 440 OFFCURVE",
"588 529 CURVE SMOOTH",
"588 643 OFFCURVE",
"498 713 OFFCURVE",
"358 713 CURVE SMOOTH",
"195 713 OFFCURVE",
"96 630 OFFCURVE",
"96 470 CURVE SMOOTH",
"96 0 LINE"
);
}
);
width = 697;
}
);
leftKerningGroup = H;
leftMetricsKey = H;
rightKerningGroup = Germandbls;
rightMetricsKey = B;
unicode = 1E9E;
},
{
color = 5;
glyphname = Schwa;
lastChange = "2019-08-06 12:42:42 +0000";
layers = (
{
anchors = (
{
name = bottom;
position = "{396, 0}";
},
{
name = top;
position = "{387, 705}";
}
);
background = {
paths = (
{
closed = 1;
nodes = (
"593 -8 OFFCURVE",
"710 126 OFFCURVE",
"710 353 CURVE SMOOTH",
"710 579 OFFCURVE",
"594 713 OFFCURVE",
"394 713 CURVE SMOOTH",
"194 713 OFFCURVE",
"79 579 OFFCURVE",
"79 352 CURVE SMOOTH",
"79 126 OFFCURVE",
"196 -8 OFFCURVE",
"394 -8 CURVE SMOOTH"
);
},
{
closed = 1;
nodes = (
"230 43 OFFCURVE",
"134 148 OFFCURVE",
"134 353 CURVE SMOOTH",
"134 558 OFFCURVE",
"230 662 OFFCURVE",
"394 662 CURVE SMOOTH",
"560 662 OFFCURVE",
"655 559 OFFCURVE",
"655 353 CURVE SMOOTH",
"655 147 OFFCURVE",
"559 43 OFFCURVE",
"394 43 CURVE SMOOTH"
);
}
);
};
layerId = "B0DFB0A8-5D2F-4351-A1F8-6629D0DA694C";
paths = (
{
closed = 1;
nodes = (
"580 -8 OFFCURVE",
"712 129 OFFCURVE",
"712 353 CURVE SMOOTH",
"712 596 OFFCURVE",
"586 713 OFFCURVE",
"387 713 CURVE SMOOTH",
"290 713 OFFCURVE",
"166 678 OFFCURVE",
"107 618 CURVE",
"128 573 LINE",
"194 634 OFFCURVE",
"299 663 OFFCURVE",
"389 663 CURVE SMOOTH",
"569 663 OFFCURVE",
"658 551 OFFCURVE",
"658 353 CURVE SMOOTH",
"658 151 OFFCURVE",
"556 43 OFFCURVE",
"396 43 CURVE SMOOTH",
"238 43 OFFCURVE",
"135 146 OFFCURVE",
"135 353 CURVE",
"113 332 LINE",
"695 332 LINE",
"695 381 LINE",
"81 381 LINE",
"81 348 LINE SMOOTH",
"81 128 OFFCURVE",
"214 -8 OFFCURVE",
"396 -8 CURVE SMOOTH"
);
}
);
width = 793;
},
{
anchors = (
{
name = bottom;
position = "{371, 0}";
},
{
name = top;
position = "{371, 705}";
}
);
background = {
paths = (
{
closed = 1;
nodes = (
"566 -8 OFFCURVE",
"684 130 OFFCURVE",
"684 353 CURVE SMOOTH",
"684 576 OFFCURVE",
"567 713 OFFCURVE",
"375 713 CURVE SMOOTH",
"183 713 OFFCURVE",
"67 576 OFFCURVE",
"67 352 CURVE SMOOTH",
"67 130 OFFCURVE",
"185 -8 OFFCURVE",
"375 -8 CURVE SMOOTH"
);
},
{
closed = 1;
nodes = (
"208 33 OFFCURVE",
"112 151 OFFCURVE",
"112 353 CURVE SMOOTH",
"112 555 OFFCURVE",
"208 672 OFFCURVE",
"375 672 CURVE SMOOTH",
"544 672 OFFCURVE",
"639 556 OFFCURVE",
"639 353 CURVE SMOOTH",
"639 150 OFFCURVE",
"543 33 OFFCURVE",
"375 33 CURVE SMOOTH"
);
}
);
};
layerId = "F1F93986-3ED8-4AAE-84C4-CA3EEECDDFA0";
paths = (
{
closed = 1;
nodes = (
"566 -8 OFFCURVE",
"684 129 OFFCURVE",
"684 353 CURVE SMOOTH",
"684 577 OFFCURVE",
"558 713 OFFCURVE",
"355 713 CURVE SMOOTH",
"244 713 OFFCURVE",
"158 681 OFFCURVE",
"93 618 CURVE",
"114 583 LINE",
"182 646 OFFCURVE",
"248 672 OFFCURVE",
"354 672 CURVE SMOOTH",
"535 672 OFFCURVE",
"639 556 OFFCURVE",
"639 353 CURVE SMOOTH",
"639 151 OFFCURVE",
"541 33 OFFCURVE",
"379 33 CURVE SMOOTH",
"199 33 OFFCURVE",
"111 146 OFFCURVE",
"111 353 CURVE",
"99 337 LINE",
"644 337 LINE",
"644 376 LINE",
"67 376 LINE",
"67 348 LINE SMOOTH",
"67 132 OFFCURVE",
"170 -8 OFFCURVE",
"380 -8 CURVE SMOOTH"
);
}
);
width = 751;
}
);
leftKerningGroup = O;
leftMetricsKey = O;
rightKerningGroup = O;
rightMetricsKey = O;
unicode = 018F;
},
{
color = 5;
glyphname = T;
lastChange = "2019-08-06 12:42:42 +0000";
layers = (
{
anchors = (
{
name = bottom;
position = "{312, 0}";
},
{
name = center;
position = "{312, 358}";
},
{
name = top;
position = "{312, 705}";
}
);
background = {
anchors = (
{
name = bottom;
position = "{310, 0}";
},
{
name = center;
position = "{310, 358}";
},
{
name = top;
position = "{310, 705}";
}
);
paths = (
{
closed = 1;
nodes = (
"331 0 LINE",
"331 666 LINE",
"590 666 LINE",
"590 705 LINE",
"30 705 LINE",
"30 666 LINE",
"289 666 LINE",
"289 0 LINE"
);
}
);
};
layerId = "B0DFB0A8-5D2F-4351-A1F8-6629D0DA694C";
paths = (
{
closed = 1;
nodes = (
"338 0 LINE",
"338 655 LINE",
"602 655 LINE",
"602 705 LINE",
"22 705 LINE",
"22 655 LINE",
"286 655 LINE",
"286 0 LINE"
);
}
);
width = 624;
},
{
anchors = (
{
name = bottom;
position = "{293, 0}";
},
{
name = center;
position = "{293, 358}";
},
{
name = top;
position = "{293, 705}";
}
);
background = {
anchors = (
{
name = bottom;
position = "{293, 0}";
},
{
name = center;
position = "{293, 358}";
},
{
name = top;
position = "{293, 705}";
}
);
paths = (
{
closed = 1;
nodes = (
"314 0 LINE",
"314 666 LINE",
"573 666 LINE",
"573 705 LINE",
"13 705 LINE",
"13 666 LINE",
"272 666 LINE",
"272 0 LINE"
);
}
);
};
layerId = "F1F93986-3ED8-4AAE-84C4-CA3EEECDDFA0";
paths = (
{
closed = 1;
nodes = (
"314 0 LINE",
"314 666 LINE",
"583 666 LINE",
"583 705 LINE",
"3 705 LINE",
"3 666 LINE",
"272 666 LINE",
"272 0 LINE"
);
}
);
width = 586;
}
);
leftKerningGroup = T;
rightKerningGroup = T;
unicode = 0054;
userData = {
anchors = (
);
b = {
};
com.typemytype.robofont.layerData = {
b = {
anchors = (
);
components = (
);
contours = (
{
points = (
{
segmentType = curve;
smooth = 1;
x = 581;
y = 0;
},
{
segmentType = line;
smooth = 1;
x = 1350;
y = 0;
},
{
smooth = 0;
x = 1399;
y = 0;
},
{
smooth = 0;
x = 1423;
y = 34;
},
{
segmentType = curve;
smooth = 1;
x = 1423;
y = 71;
},
{
smooth = 0;
x = 1423;
y = 107;
},
{
smooth = 0;
x = 1399;
y = 141;
},
{
segmentType = curve;
smooth = 1;
x = 1350;
y = 141;
},
{
segmentType = line;
smooth = 0;
x = 671;
y = 141;
},
{
segmentType = line;
smooth = 0;
x = 671;
y = 665;
},
{
segmentType = line;
smooth = 1;
x = 1290;
y = 665;
},
{
smooth = 0;
x = 1339;
y = 665;
},
{
smooth = 0;
x = 1364;
y = 698;
},
{
segmentType = curve;
smooth = 1;
x = 1364;
y = 734;
},
{
smooth = 0;
x = 1364;
y = 770;
},
{
smooth = 0;
x = 1341;
y = 803;
},
{
segmentType = curve;
smooth = 1;
x = 1290;
y = 803;
},
{
segmentType = line;
smooth = 0;
x = 671;
y = 803;
},
{
segmentType = line;
smooth = 0;
x = 671;
y = 1285;
},
{
segmentType = line;
smooth = 1;
x = 1322;
y = 1285;
},
{
smooth = 0;
x = 1371;
y = 1285;
},
{
smooth = 0;
x = 1395;
y = 1319;
},
{
segmentType = curve;
smooth = 1;
x = 1395;
y = 1356;
},
{
smooth = 0;
x = 1395;
y = 1392;
},
{
smooth = 0;
x = 1371;
y = 1426;
},
{
segmentType = curve;
smooth = 1;
x = 1322;
y = 1426;
},
{
segmentType = line;
smooth = 1;
x = 576;
y = 1426;
},
{
smooth = 0;
x = 528;
y = 1426;
},
{
smooth = 0;
x = 493;
y = 1383;
},
{
segmentType = curve;
smooth = 1;
x = 493;
y = 1340;
},
{
segmentType = line;
smooth = 1;
x = 493;
y = 86;
},
{
smooth = 0;
x = 493;
y = 41;
},
{
smooth = 0;
x = 537;
y = 0;
}
);
}
);
lib = {
};
name = T;
unicodes = (
);
width = 1158;
};
};
components = (
);
contours = (
);
lib = {
};
name = T;
unicodes = (
);
width = 1199;
};
},
{
color = 5;
glyphname = U;
lastChange = "2019-08-06 12:42:42 +0000";
layers = (
{
anchors = (
{
name = bottom;
position = "{370, 0}";
},
{
name = ogonek;
position = "{427, 0}";
},
{
name = top;
position = "{370, 705}";
},
{
name = topright;
position = "{596, 705}";
}
);
background = {
anchors = (
{
name = bottom;
position = "{368, 0}";
},
{
name = ogonek;
position = "{425, 0}";
},
{
name = top;
position = "{368, 705}";
},
{
name = topright;
position = "{594, 705}";
}
);
paths = (
{
closed = 1;
nodes = (
"543 -8 OFFCURVE",
"635 86 OFFCURVE",
"635 267 CURVE SMOOTH",
"635 705 LINE",
"593 705 LINE",
"593 260 LINE SMOOTH",
"593 109 OFFCURVE",
"516 33 OFFCURVE",
"368 33 CURVE SMOOTH",
"218 33 OFFCURVE",
"143 109 OFFCURVE",
"143 260 CURVE SMOOTH",
"143 705 LINE",
"101 705 LINE",
"101 267 LINE SMOOTH",
"101 86 OFFCURVE",
"192 -8 OFFCURVE",
"368 -8 CURVE SMOOTH"
);
}
);
};
layerId = "B0DFB0A8-5D2F-4351-A1F8-6629D0DA694C";
paths = (
{
closed = 1;
nodes = (
"545 -8 OFFCURVE",
"637 86 OFFCURVE",
"637 267 CURVE SMOOTH",
"637 705 LINE",
"584 705 LINE",
"584 260 LINE SMOOTH",
"584 109 OFFCURVE",
"508 44 OFFCURVE",
"370 44 CURVE SMOOTH",
"230 44 OFFCURVE",
"155 109 OFFCURVE",
"155 260 CURVE SMOOTH",
"155 705 LINE",
"103 705 LINE",
"103 267 LINE SMOOTH",
"103 86 OFFCURVE",
"194 -8 OFFCURVE",
"370 -8 CURVE SMOOTH"
);
}
);
width = 740;
},
{
anchors = (
{
name = bottom;
position = "{360, 0}";
},
{
name = ogonek;
position = "{417, 0}";
},
{
name = top;
position = "{360, 705}";
},
{
name = topright;
position = "{588, 705}";
}
);
background = {
anchors = (
{
name = bottom;
position = "{358, 0}";
},
{
name = ogonek;
position = "{415, 0}";
},
{
name = top;
position = "{358, 705}";
},
{
name = topright;
position = "{584, 705}";
}
);
paths = (
{
closed = 1;
nodes = (
"533 -8 OFFCURVE",
"625 86 OFFCURVE",
"625 267 CURVE SMOOTH",
"625 705 LINE",
"583 705 LINE",
"583 260 LINE SMOOTH",
"583 109 OFFCURVE",
"506 33 OFFCURVE",
"358 33 CURVE SMOOTH",
"208 33 OFFCURVE",
"133 109 OFFCURVE",
"133 260 CURVE SMOOTH",
"133 705 LINE",
"91 705 LINE",
"91 267 LINE SMOOTH",
"91 86 OFFCURVE",
"182 -8 OFFCURVE",
"358 -8 CURVE SMOOTH"
);
}
);
};
layerId = "F1F93986-3ED8-4AAE-84C4-CA3EEECDDFA0";
paths = (
{
closed = 1;
nodes = (
"536 -8 OFFCURVE",
"629 90 OFFCURVE",
"629 271 CURVE SMOOTH",
"629 705 LINE",
"587 705 LINE",
"587 277 LINE SMOOTH",
"587 113 OFFCURVE",
"510 33 OFFCURVE",
"360 33 CURVE SMOOTH",
"210 33 OFFCURVE",
"133 113 OFFCURVE",
"133 277 CURVE SMOOTH",
"133 705 LINE",
"91 705 LINE",
"91 271 LINE SMOOTH",
"91 90 OFFCURVE",
"184 -8 OFFCURVE",
"360 -8 CURVE SMOOTH"
);
}
);
width = 720;
}
);
leftKerningGroup = U;
rightKerningGroup = U;
unicode = 0055;
userData = {
anchors = (
);
b = {
};
com.typemytype.robofont.layerData = {
b = {
anchors = (
);
components = (
);
contours = (
);
lib = {
};
name = U;
unicodes = (
);
width = 1490;
};
};
components = (
);
contours = (
);
lib = {
};
name = U;
unicodes = (
);
width = 1513;
};
},
{
color = 5;
glyphname = V;
lastChange = "2019-08-06 12:42:42 +0000";
layers = (
{
anchors = (
{
name = bottom;
position = "{329, 0}";
},
{
name = top;
position = "{328, 705}";
}
);
background = {
anchors = (
{
name = bottom;
position = "{327, 0}";
},
{
name = top;
position = "{326, 705}";
}
);
paths = (
{
closed = 1;
nodes = (
"348 0 LINE",
"652 705 LINE",
"606 705 LINE",
"314 24 LINE",
"338 24 LINE",
"46 705 LINE",
"1 705 LINE",
"303 0 LINE"
);
}
);
};
layerId = "B0DFB0A8-5D2F-4351-A1F8-6629D0DA694C";
paths = (
{
closed = 1;
nodes = (
"352 0 LINE",
"652 705 LINE",
"596 705 LINE",
"330 73 LINE",
"326 73 LINE",
"60 705 LINE",
"4 705 LINE",
"304 0 LINE"
);
}
);
width = 656;
},
{
anchors = (
{
name = bottom;
position = "{334, 0}";
},
{
name = top;
position = "{333, 705}";
}
);
background = {
anchors = (
{
name = bottom;
position = "{334, 0}";
},
{
name = top;
position = "{333, 705}";
}
);
paths = (
{
closed = 1;
nodes = (
"355 0 LINE",
"659 705 LINE",
"613 705 LINE",
"321 24 LINE",
"345 24 LINE",
"53 705 LINE",
"8 705 LINE",
"310 0 LINE"
);
}
);
};
layerId = "F1F93986-3ED8-4AAE-84C4-CA3EEECDDFA0";
paths = (
{
closed = 1;
nodes = (
"355 0 LINE",
"659 705 LINE",
"613 705 LINE",
"321 24 LINE",
"345 24 LINE",
"53 705 LINE",
"8 705 LINE",
"310 0 LINE"
);
}
);
width = 666;
}
);
leftKerningGroup = V;
rightKerningGroup = V;
unicode = 0056;
userData = {
anchors = (
);
b = {
};
com.typemytype.robofont.guides = (
);
com.typemytype.robofont.layerData = {
b = {
anchors = (
);
components = (
);
contours = (
{
points = (
{
segmentType = curve;
smooth = 1;
x = 644;
y = "-5";
},
{
smooth = 0;
x = 712;
y = "-5";
},
{
smooth = 0;
x = 764;
y = 38;
},
{
segmentType = curve;
smooth = 1;
x = 793;
y = 117;
},
{
segmentType = line;
smooth = 1;
x = 1243;
y = 1324;
},
{
smooth = 0;
x = 1247;
y = 1335;
},
{
smooth = 0;
x = 1248;
y = 1342;
},
{
segmentType = curve;
smooth = 1;
x = 1248;
y = 1351;
},
{
smooth = 0;
x = 1248;
y = 1395;
},
{
smooth = 0;
x = 1203;
y = 1427;
},
{
segmentType = curve;
smooth = 1;
x = 1160;
y = 1427;
},
{
smooth = 0;
x = 1125;
y = 1427;
},
{
smooth = 0;
x = 1090;
y = 1408;
},
{
segmentType = curve;
smooth = 1;
x = 1076;
y = 1369;
},
{
segmentType = line;
smooth = 0;
x = 651;
y = 192;
},
{
segmentType = line;
smooth = 0;
x = 650;
y = 190;
},
{
segmentType = line;
smooth = 1;
x = 214;
y = 1370;
},
{
smooth = 0;
x = 200;
y = 1407;
},
{
smooth = 0;
x = 170;
y = 1427;
},
{
segmentType = curve;
smooth = 1;
x = 135;
y = 1427;
},
{
smooth = 0;
x = 90;
y = 1427;
},
{
smooth = 0;
x = 43;
y = 1392;
},
{
segmentType = curve;
smooth = 1;
x = 43;
y = 1344;
},
{
smooth = 0;
x = 43;
y = 1336;
},
{
smooth = 0;
x = 44;
y = 1326;
},
{
segmentType = curve;
smooth = 0;
x = 48;
y = 1318;
},
{
segmentType = line;
smooth = 1;
x = 501;
y = 117;
},
{
smooth = 0;
x = 532;
y = 35;
},
{
smooth = 0;
x = 581;
y = "-5";
}
);
}
);
lib = {
};
name = V;
unicodes = (
);
width = 1289;
};
};
components = (
);
contours = (
);
lib = {
};
name = V;
unicodes = (
);
width = 1365;
};
},
{
color = 5;
glyphname = W;
lastChange = "2019-08-06 12:42:42 +0000";
layers = (
{
anchors = (
{
name = bottom;
position = "{558, 0}";
},
{
name = top;
position = "{557, 705}";
}
);
background = {
paths = (
{
closed = 1;
nodes = (
"348 0 LINE",
"566 671 LINE",
"546 671 LINE",
"761 0 LINE",
"819 0 LINE",
"1053 705 LINE",
"1004 705 LINE",
"777 19 LINE",
"801 19 LINE",
"580 705 LINE",
"531 705 LINE",
"308 19 LINE",
"334 19 LINE",
"108 705 LINE",
"58 705 LINE",
"292 0 LINE"
);
}
);
};
guideLines = (
{
position = "{329, 65}";
}
);
layerId = "B0DFB0A8-5D2F-4351-A1F8-6629D0DA694C";
paths = (
{
closed = 1;
nodes = (
"340 0 LINE",
"556 623 LINE",
"560 623 LINE",
"775 0 LINE",
"831 0 LINE",
"1065 705 LINE",
"1012 705 LINE",
"804 75 LINE",
"800 75 LINE",
"582 705 LINE",
"532 705 LINE",
"315 75 LINE",
"311 75 LINE",
"104 705 LINE",
"50 705 LINE",
"284 0 LINE"
);
}
);
width = 1115;
},
{
anchors = (
{
name = bottom;
position = "{546, 0}";
},
{
name = top;
position = "{545, 705}";
}
);
background = {
anchors = (
{
name = bottom;
position = "{546, 0}";
},
{
name = top;
position = "{545, 705}";
}
);
paths = (
{
closed = 1;
nodes = (
"323 0 LINE",
"555 671 LINE",
"535 671 LINE",
"766 0 LINE",
"809 0 LINE",
"1053 705 LINE",
"1010 705 LINE",
"773 19 LINE",
"801 19 LINE",
"564 705 LINE",
"525 705 LINE",
"288 19 LINE",
"318 19 LINE",
"82 705 LINE",
"38 705 LINE",
"282 0 LINE"
);
}
);
};
layerId = "F1F93986-3ED8-4AAE-84C4-CA3EEECDDFA0";
paths = (
{
closed = 1;
nodes = (
"323 0 LINE",
"555 671 LINE",
"535 671 LINE",
"766 0 LINE",
"809 0 LINE",
"1053 705 LINE",
"1010 705 LINE",
"773 19 LINE",
"801 19 LINE",
"564 705 LINE",
"525 705 LINE",
"288 19 LINE",
"318 19 LINE",
"82 705 LINE",
"38 705 LINE",
"282 0 LINE"
);
}
);
width = 1091;
}
);
leftKerningGroup = V;
rightKerningGroup = V;
unicode = 0057;
userData = {
anchors = (
);
b = {
};
com.typemytype.robofont.layerData = {
b = {
anchors = (
);
components = (
);
contours = (
);
lib = {
};
name = W;
unicodes = (
);
width = 2126;
};
};
components = (
);
contours = (
);
lib = {
};
name = W;
unicodes = (
);
width = 2070;
};
},
{
color = 5;
glyphname = X;
lastChange = "2019-08-06 12:42:42 +0000";
layers = (
{
anchors = (
{
name = bottom;
position = "{326, 0}";
},
{
name = top;
position = "{326, 705}";
}
);
background = {
paths = (
{
closed = 1;
nodes = (
"314 342 LINE",
"557 0 LINE",
"614 0 LINE",
"351 371 LINE",
"351 361 LINE",
"599 705 LINE",
"544 705 LINE",
"314 387 LINE",
"330 387 LINE",
"105 705 LINE",
"48 705 LINE",
"298 351 LINE",
"298 376 LINE",
"32 0 LINE",
"88 0 LINE",
"329 342 LINE"
);
},
{
closed = 0;
nodes = (
"104 705 LINE"
);
}
);
};
layerId = "B0DFB0A8-5D2F-4351-A1F8-6629D0DA694C";
paths = (
{
closed = 1;
nodes = (
"605 705 LINE",
"546 705 LINE",
"326 400 LINE",
"322 400 LINE",
"107 705 LINE",
"46 705 LINE",
"296 351 LINE",
"296 376 LINE",
"30 0 LINE",
"90 0 LINE",
"322 328 LINE",
"326 328 LINE",
"559 0 LINE",
"620 0 LINE",
"357 371 LINE",
"357 361 LINE"
);
}
);
width = 650;
},
{
anchors = (
{
name = bottom;
position = "{316, 0}";
},
{
name = top;
position = "{316, 705}";
}
);
background = {
anchors = (
{
name = bottom;
position = "{316, 0}";
},
{
name = top;
position = "{316, 705}";
}
);
paths = (
{
closed = 1;
nodes = (
"591 705 LINE",
"543 705 LINE",
"311 387 LINE",
"323 387 LINE",
"89 705 LINE",
"40 705 LINE",
"296 357 LINE",
"296 368 LINE",
"24 0 LINE",
"74 0 LINE",
"325 342 LINE",
"306 342 LINE",
"557 0 LINE",
"606 0 LINE",
"333 371 LINE",
"333 352 LINE"
);
}
);
};
layerId = "F1F93986-3ED8-4AAE-84C4-CA3EEECDDFA0";
paths = (
{
closed = 1;
nodes = (
"591 705 LINE",
"543 705 LINE",
"311 387 LINE",
"323 387 LINE",
"89 705 LINE",
"40 705 LINE",
"296 357 LINE",
"296 368 LINE",
"24 0 LINE",
"74 0 LINE",
"325 342 LINE",
"306 342 LINE",
"557 0 LINE",
"606 0 LINE",
"333 371 LINE",
"333 352 LINE"
);
}
);
width = 630;
}
);
leftKerningGroup = X;
rightKerningGroup = X;
unicode = 0058;
userData = {
anchors = (
);
b = {
};
com.typemytype.robofont.layerData = {
b = {
anchors = (
);
components = (
);
contours = (
{
points = (
{
segmentType = curve;
smooth = 1;
x = 151;
y = 0;
},
{
smooth = 0;
x = 176;
y = 0;
},
{
smooth = 0;
x = 201;
y = 12;
},
{
segmentType = curve;
smooth = 1;
x = 222;
y = 41;
},
{
segmentType = line;
smooth = 0;
x = 641;
y = 616;
},
{
segmentType = line;
smooth = 0;
x = 746;
y = 734;
},
{
segmentType = line;
smooth = 1;
x = 1175;
y = 1310;
},
{
smooth = 0;
x = 1186;
y = 1325;
},
{
smooth = 0;
x = 1190;
y = 1338;
},
{
segmentType = curve;
smooth = 1;
x = 1190;
y = 1353;
},
{
smooth = 0;
x = 1190;
y = 1393;
},
{
smooth = 0;
x = 1153;
y = 1426;
},
{
segmentType = curve;
smooth = 1;
x = 1110;
y = 1426;
},
{
smooth = 0;
x = 1083;
y = 1426;
},
{
smooth = 0;
x = 1058;
y = 1414;
},
{
segmentType = curve;
smooth = 1;
x = 1037;
y = 1385;
},
{
segmentType = line;
smooth = 0;
x = 648;
y = 844;
},
{
segmentType = line;
smooth = 0;
x = 542;
y = 732;
},
{
segmentType = line;
smooth = 1;
x = 84;
y = 121;
},
{
smooth = 0;
x = 73;
y = 106;
},
{
smooth = 0;
x = 68;
y = 91;
},
{
segmentType = curve;
smooth = 1;
x = 68;
y = 76;
},
{
smooth = 0;
x = 68;
y = 35;
},
{
smooth = 0;
x = 108;
y = 0;
}
);
},
{
points = (
{
segmentType = curve;
smooth = 1;
x = 1104;
y = 0;
},
{
smooth = 0;
x = 1151;
y = 0;
},
{
smooth = 0;
x = 1200;
y = 40;
},
{
segmentType = curve;
smooth = 1;
x = 1200;
y = 85;
},
{
smooth = 0;
x = 1200;
y = 98;
},
{
smooth = 0;
x = 1195;
y = 113;
},
{
segmentType = curve;
smooth = 0;
x = 1186;
y = 126;
},
{
segmentType = line;
smooth = 0;
x = 272;
y = 1385;
},
{
smooth = 0;
x = 252;
y = 1414;
},
{
smooth = 0;
x = 225;
y = 1426;
},
{
segmentType = curve;
smooth = 1;
x = 197;
y = 1426;
},
{
smooth = 0;
x = 149;
y = 1426;
},
{
smooth = 0;
x = 100;
y = 1388;
},
{
segmentType = curve;
smooth = 1;
x = 100;
y = 1343;
},
{
smooth = 0;
x = 100;
y = 1328;
},
{
smooth = 0;
x = 105;
y = 1315;
},
{
segmentType = curve;
smooth = 0;
x = 114;
y = 1303;
},
{
segmentType = line;
smooth = 0;
x = 1033;
y = 40;
},
{
smooth = 0;
x = 1052;
y = 13;
},
{
smooth = 0;
x = 1076;
y = 0;
}
);
}
);
lib = {
};
name = X;
unicodes = (
);
width = 1274;
};
};
components = (
);
contours = (
);
lib = {
};
name = X;
unicodes = (
);
width = 1322;
};
},
{
color = 5;
glyphname = Y;
lastChange = "2019-08-06 12:42:42 +0000";
layers = (
{
anchors = (
{
name = bottom;
position = "{297, 0}";
},
{
name = top;
position = "{297, 705}";
},
{
name = topleft;
position = "{46, 705}";
}
);
background = {
anchors = (
{
name = bottom;
position = "{295, 0}";
},
{
name = top;
position = "{295, 705}";
},
{
name = topleft;
position = "{24, 705}";
}
);
paths = (
{
closed = 1;
nodes = (
"316 0 LINE",
"316 367 LINE",
"306 328 LINE",
"584 705 LINE",
"537 705 LINE",
"289 368 LINE",
"304 368 LINE",
"55 705 LINE",
"6 705 LINE",
"285 328 LINE",
"274 367 LINE",
"274 0 LINE"
);
}
);
};
layerId = "B0DFB0A8-5D2F-4351-A1F8-6629D0DA694C";
paths = (
{
closed = 1;
nodes = (
"323 0 LINE",
"323 367 LINE",
"314 318 LINE",
"586 705 LINE",
"525 705 LINE",
"300 384 LINE",
"296 384 LINE",
"70 705 LINE",
"8 705 LINE",
"281 318 LINE",
"271 367 LINE",
"271 0 LINE"
);
}
);
width = 594;
},
{
anchors = (
{
name = bottom;
position = "{288, 0}";
},
{
name = top;
position = "{288, 705}";
},
{
name = topleft;
position = "{17, 705}";
}
);
background = {
anchors = (
{
name = bottom;
position = "{288, 0}";
},
{
name = top;
position = "{288, 705}";
},
{
name = topleft;
position = "{17, 705}";
}
);
paths = (
{
closed = 1;
nodes = (
"309 0 LINE",
"309 367 LINE",
"299 328 LINE",
"577 705 LINE",
"530 705 LINE",
"282 368 LINE",
"297 368 LINE",
"48 705 LINE",
"-1 705 LINE",
"278 328 LINE",
"267 367 LINE",
"267 0 LINE"
);
}
);
};
layerId = "F1F93986-3ED8-4AAE-84C4-CA3EEECDDFA0";
paths = (
{
closed = 1;
nodes = (
"309 0 LINE",
"309 367 LINE",
"299 328 LINE",
"578 705 LINE",
"531 705 LINE",
"282 368 LINE",
"297 368 LINE",
"48 705 LINE",
"-1 705 LINE",
"278 328 LINE",
"267 367 LINE",
"267 0 LINE"
);
}
);
width = 577;
}
);
leftKerningGroup = Y;
rightKerningGroup = Y;
unicode = 0059;
userData = {
anchors = (
);
b = {
};
com.typemytype.robofont.guides = (
);
com.typemytype.robofont.layerData = {
b = {
anchors = (
);
components = (
);
contours = (
{
points = (
{
segmentType = curve;
smooth = 1;
x = 641;
y = 0;
},
{
smooth = 0;
x = 685;
y = 0;
},
{
smooth = 0;
x = 730;
y = 29;
},
{
segmentType = curve;
smooth = 1;
x = 730;
y = 85;
},
{
segmentType = line;
smooth = 0;
x = 730;
y = 1285;
},
{
segmentType = line;
smooth = 1;
x = 1115;
y = 1285;
},
{
smooth = 0;
x = 1164;
y = 1285;
},
{
smooth = 0;
x = 1190;
y = 1319;
},
{
segmentType = curve;
smooth = 1;
x = 1190;
y = 1355;
},
{
smooth = 0;
x = 1190;
y = 1392;
},
{
smooth = 0;
x = 1166;
y = 1426;
},
{
segmentType = curve;
smooth = 1;
x = 1115;
y = 1426;
},
{
segmentType = line;
smooth = 1;
x = 160;
y = 1426;
},
{
smooth = 0;
x = 111;
y = 1426;
},
{
smooth = 0;
x = 86;
y = 1392;
},
{
segmentType = curve;
smooth = 1;
x = 86;
y = 1355;
},
{
smooth = 0;
x = 86;
y = 1319;
},
{
smooth = 0;
x = 111;
y = 1285;
},
{
segmentType = curve;
smooth = 1;
x = 160;
y = 1285;
},
{
segmentType = line;
smooth = 0;
x = 552;
y = 1285;
},
{
segmentType = line;
smooth = 1;
x = 552;
y = 85;
},
{
smooth = 0;
x = 552;
y = 29;
},
{
smooth = 0;
x = 596;
y = 0;
}
);
}
);
lib = {
};
name = Y;
unicodes = (
);
width = 1278;
};
};
components = (
);
contours = (
);
lib = {
};
name = Y;
unicodes = (
);
width = 1321;
};
},
{
color = 5;
glyphname = Z;
lastChange = "2019-08-06 12:42:42 +0000";
layers = (
{
anchors = (
{
name = bottom;
position = "{297, 0}";
},
{
name = top;
position = "{288, 705}";
}
);
background = {
anchors = (
{
name = bottom;
position = "{295, 0}";
},
{
name = top;
position = "{286, 705}";
}
);
paths = (
{
closed = 1;
nodes = (
"539 0 LINE",
"539 39 LINE",
"79 39 LINE",
"79 16 LINE",
"529 674 LINE",
"529 705 LINE",
"40 705 LINE",
"40 666 LINE",
"490 666 LINE",
"490 689 LINE",
"40 31 LINE",
"40 0 LINE"
);
}
);
};
layerId = "B0DFB0A8-5D2F-4351-A1F8-6629D0DA694C";
paths = (
{
closed = 1;
nodes = (
"541 0 LINE",
"541 50 LINE",
"81 50 LINE",
"92 16 LINE",
"531 674 LINE",
"531 705 LINE",
"42 705 LINE",
"42 655 LINE",
"492 655 LINE",
"481 689 LINE",
"42 31 LINE",
"42 0 LINE"
);
}
);
width = 579;
},
{
anchors = (
{
name = bottom;
position = "{301, 0}";
},
{
name = top;
position = "{300, 705}";
}
);
background = {
anchors = (
{
name = bottom;
position = "{304, 0}";
},
{
name = top;
position = "{295, 705}";
}
);
paths = (
{
closed = 1;
nodes = (
"548 0 LINE",
"548 39 LINE",
"88 39 LINE",
"88 16 LINE",
"538 674 LINE",
"538 705 LINE",
"49 705 LINE",
"49 666 LINE",
"499 666 LINE",
"499 689 LINE",
"49 31 LINE",
"49 0 LINE"
);
}
);
};
layerId = "F1F93986-3ED8-4AAE-84C4-CA3EEECDDFA0";
paths = (
{
closed = 1;
nodes = (
"552 0 LINE",
"552 39 LINE",
"88 39 LINE",
"88 16 LINE",
"538 674 LINE",
"538 705 LINE",
"49 705 LINE",
"49 666 LINE",
"499 666 LINE",
"499 689 LINE",
"49 31 LINE",
"49 0 LINE"
);
}
);
width = 575;
}
);
leftKerningGroup = Z;
rightKerningGroup = Z;
unicode = 005A;
userData = {
anchors = (
);
b = {
};
com.typemytype.robofont.layerData = {
b = {
anchors = (
);
components = (
);
contours = (
{
points = (
{
segmentType = curve;
smooth = 1;
x = 266;
y = 0;
},
{
segmentType = line;
smooth = 1;
x = 1035;
y = 0;
},
{
smooth = 0;
x = 1084;
y = 0;
},
{
smooth = 0;
x = 1108;
y = 34;
},
{
segmentType = curve;
smooth = 1;
x = 1108;
y = 71;
},
{
smooth = 0;
x = 1108;
y = 107;
},
{
smooth = 0;
x = 1084;
y = 141;
},
{
segmentType = curve;
smooth = 1;
x = 1035;
y = 141;
},
{
segmentType = line;
smooth = 0;
x = 356;
y = 141;
},
{
segmentType = line;
smooth = 0;
x = 356;
y = 665;
},
{
segmentType = line;
smooth = 1;
x = 975;
y = 665;
},
{
smooth = 0;
x = 1024;
y = 665;
},
{
smooth = 0;
x = 1049;
y = 698;
},
{
segmentType = curve;
smooth = 1;
x = 1049;
y = 734;
},
{
smooth = 0;
x = 1049;
y = 770;
},
{
smooth = 0;
x = 1026;
y = 803;
},
{
segmentType = curve;
smooth = 1;
x = 975;
y = 803;
},
{
segmentType = line;
smooth = 0;
x = 356;
y = 803;
},
{
segmentType = line;
smooth = 0;
x = 356;
y = 1285;
},
{
segmentType = line;
smooth = 1;
x = 1007;
y = 1285;
},
{
smooth = 0;
x = 1056;
y = 1285;
},
{
smooth = 0;
x = 1080;
y = 1319;
},
{
segmentType = curve;
smooth = 1;
x = 1080;
y = 1356;
},
{
smooth = 0;
x = 1080;
y = 1392;
},
{
smooth = 0;
x = 1056;
y = 1426;
},
{
segmentType = curve;
smooth = 1;
x = 1007;
y = 1426;
},
{
segmentType = line;
smooth = 1;
x = 261;
y = 1426;
},
{
smooth = 0;
x = 213;
y = 1426;
},
{
smooth = 0;
x = 178;
y = 1383;
},
{
segmentType = curve;
smooth = 1;
x = 178;
y = 1340;
},
{
segmentType = line;
smooth = 1;
x = 178;
y = 86;
},
{
smooth = 0;
x = 178;
y = 41;
},
{
smooth = 0;
x = 222;
y = 0;
}
);
}
);
lib = {
};
name = Z;
unicodes = (
);
width = 1165;
};
};
components = (
);
contours = (
);
lib = {
};
name = Z;
unicodes = (
);
width = 1222;
};
},
{
color = 5;
glyphname = a;
lastChange = "2019-08-06 12:42:42 +0000";
layers = (
{
anchors = (
{
name = bottom;
position = "{261, 0}";
},
{
name = ogonek;
position = "{504, 0}";
},
{
name = top;
position = "{311, 484}";
}
);
background = {
paths = (
{
closed = 1;
nodes = (
"337 -7 OFFCURVE",
"403 43 OFFCURVE",
"425 124 CURVE",
"414 124 LINE",
"414 0 LINE",
"457 0 LINE",
"457 324 LINE SMOOTH",
"457 447 OFFCURVE",
"402 504 OFFCURVE",
"288 504 CURVE SMOOTH",
"221 504 OFFCURVE",
"148 482 OFFCURVE",
"95 445 CURVE",
"116 408 LINE",
"175 447 OFFCURVE",
"227 462 OFFCURVE",
"290 462 CURVE SMOOTH",
"375 462 OFFCURVE",
"413 420 OFFCURVE",
"413 324 CURVE SMOOTH",
"413 205 LINE SMOOTH",
"413 106 OFFCURVE",
"346 35 OFFCURVE",
"251 35 CURVE SMOOTH",
"172 35 OFFCURVE",
"121 79 OFFCURVE",
"121 142 CURVE SMOOTH",
"121 221 OFFCURVE",
"177 240 OFFCURVE",
"383 240 CURVE SMOOTH",
"424 240 LINE",
"424 282 LINE",
"381 282 LINE SMOOTH",
"146 282 OFFCURVE",
"74 247 OFFCURVE",
"74 138 CURVE SMOOTH",
"74 57 OFFCURVE",
"150 -7 OFFCURVE",
"248 -7 CURVE SMOOTH"
);
}
);
};
layerId = "B0DFB0A8-5D2F-4351-A1F8-6629D0DA694C";
paths = (
{
closed = 1;
nodes = (
"344 -8 OFFCURVE",
"421 57 OFFCURVE",
"450 110 CURVE",
"455 110 LINE",
"455 0 LINE",
"504 0 LINE",
"504 324 LINE SMOOTH",
"504 447 OFFCURVE",
"421 502 OFFCURVE",
"303 502 CURVE SMOOTH",
"233 502 OFFCURVE",
"161 481 OFFCURVE",
"103 443 CURVE",
"125 399 LINE",
"186 438 OFFCURVE",
"239 453 OFFCURVE",
"303 453 CURVE SMOOTH",
"402 453 OFFCURVE",
"452 409 OFFCURVE",
"452 324 CURVE SMOOTH",
"452 205 LINE SMOOTH",
"452 118 OFFCURVE",
"352 41 OFFCURVE",
"245 41 CURVE SMOOTH",
"181 41 OFFCURVE",
"135 79 OFFCURVE",
"135 142 CURVE SMOOTH",
"135 222 OFFCURVE",
"208 234 OFFCURVE",
"381 234 CURVE SMOOTH",
"464 234 LINE",
"464 281 LINE",
"379 281 LINE SMOOTH",
"185 281 OFFCURVE",
"82 258 OFFCURVE",
"82 138 CURVE SMOOTH",
"82 57 OFFCURVE",
"147 -8 OFFCURVE",
"242 -8 CURVE SMOOTH"
);
}
);
width = 605;
},
{
anchors = (
{
name = bottom;
position = "{262, 0}";
},
{
name = ogonek;
position = "{431, 0}";
},
{
name = top;
position = "{265, 484}";
}
);
background = {
anchors = (
{
name = bottom;
position = "{1062, 0}";
},
{
name = ogonek;
position = "{1231, 0}";
},
{
name = top;
position = "{1065, 484}";
}
);
paths = (
{
closed = 1;
nodes = (
"1116 -8 OFFCURVE",
"1180 41 OFFCURVE",
"1201 121 CURVE",
"1190 121 LINE",
"1190 0 LINE",
"1231 0 LINE",
"1231 315 LINE SMOOTH",
"1231 436 OFFCURVE",
"1179 492 OFFCURVE",
"1069 492 CURVE SMOOTH",
"1005 492 OFFCURVE",
"935 470 OFFCURVE",
"884 434 CURVE",
"904 397 LINE",
"961 436 OFFCURVE",
"1011 451 OFFCURVE",
"1071 451 CURVE SMOOTH",
"1153 451 OFFCURVE",
"1189 409 OFFCURVE",
"1189 315 CURVE SMOOTH",
"1189 201 LINE SMOOTH",
"1189 103 OFFCURVE",
"1125 33 OFFCURVE",
"1034 33 CURVE SMOOTH",
"958 33 OFFCURVE",
"910 77 OFFCURVE",
"910 139 CURVE SMOOTH",
"910 216 OFFCURVE",
"963 237 OFFCURVE",
"1161 237 CURVE SMOOTH",
"1200 237 LINE",
"1200 276 LINE",
"1159 276 LINE SMOOTH",
"933 276 OFFCURVE",
"864 242 OFFCURVE",
"864 135 CURVE SMOOTH",
"864 55 OFFCURVE",
"937 -8 OFFCURVE",
"1031 -8 CURVE SMOOTH"
);
},
{
closed = 1;
nodes = (
"170 492 OFFCURVE",
"99 446 OFFCURVE",
"76 364 CURVE",
"87 364 LINE",
"87 484 LINE",
"46 484 LINE",
"46 0 LINE",
"88 0 LINE",
"88 278 LINE SMOOTH",
"88 384 OFFCURVE",
"155 453 OFFCURVE",
"258 453 CURVE SMOOTH",
"350 453 OFFCURVE",
"389 406 OFFCURVE",
"389 304 CURVE SMOOTH",
"389 0 LINE",
"431 0 LINE",
"431 308 LINE SMOOTH",
"431 432 OFFCURVE",
"372 492 OFFCURVE",
"255 492 CURVE SMOOTH"
);
}
);
};
layerId = "F1F93986-3ED8-4AAE-84C4-CA3EEECDDFA0";
paths = (
{
closed = 1;
nodes = (
"316 -8 OFFCURVE",
"380 41 OFFCURVE",
"401 121 CURVE",
"390 121 LINE",
"390 0 LINE",
"431 0 LINE",
"431 315 LINE SMOOTH",
"431 436 OFFCURVE",
"379 492 OFFCURVE",
"269 492 CURVE SMOOTH",
"205 492 OFFCURVE",
"135 470 OFFCURVE",
"84 434 CURVE",
"104 398 LINE",
"161 437 OFFCURVE",
"211 453 OFFCURVE",
"271 453 CURVE SMOOTH",
"353 453 OFFCURVE",
"389 411 OFFCURVE",
"389 315 CURVE SMOOTH",
"389 201 LINE SMOOTH",
"389 103 OFFCURVE",
"325 31 OFFCURVE",
"234 31 CURVE SMOOTH",
"158 31 OFFCURVE",
"110 75 OFFCURVE",
"110 139 CURVE SMOOTH",
"110 216 OFFCURVE",
"163 238 OFFCURVE",
"361 238 CURVE SMOOTH",
"400 238 LINE",
"400 275 LINE",
"359 275 LINE SMOOTH",
"133 275 OFFCURVE",
"64 242 OFFCURVE",
"64 135 CURVE SMOOTH",
"64 55 OFFCURVE",
"137 -8 OFFCURVE",
"231 -8 CURVE SMOOTH"
);
}
);
width = 514;
}
);
leftKerningGroup = a;
rightKerningGroup = n;
rightMetricsKey = n;
unicode = 0061;
userData = {
anchors = (
);
b = {
};
com.typemytype.robofont.layerData = {
b = {
anchors = (
);
components = (
);
contours = (
);
lib = {
};
name = a;
unicodes = (
);
width = 1040;
};
};
components = (
);
contours = (
);
lib = {
};
name = a;
unicodes = (
);
width = 1101;
};
},
{
color = 5;
glyphname = ae;
lastChange = "2019-08-06 12:42:42 +0000";
layers = (
{
anchors = (
{
name = bottom;
position = "{471, 0}";
},
{
name = top;
position = "{491, 484}";
}
);
background = {
components = (
{
name = e;
transform = "{1, 0, 0, 1, 381, 0}";
}
);
};
layerId = "B0DFB0A8-5D2F-4351-A1F8-6629D0DA694C";
paths = (
{
closed = 1;
nodes = (
"918 234 LINE",
"918 268 LINE SMOOTH",
"918 416 OFFCURVE",
"843 502 OFFCURVE",
"695 502 CURVE SMOOTH",
"602 502 OFFCURVE",
"530 463 OFFCURVE",
"492 400 CURVE",
"488 400 LINE",
"460 471 OFFCURVE",
"401 502 OFFCURVE",
"303 502 CURVE SMOOTH",
"233 502 OFFCURVE",
"161 481 OFFCURVE",
"103 443 CURVE",
"125 399 LINE",
"186 438 OFFCURVE",
"239 453 OFFCURVE",
"303 453 CURVE SMOOTH",
"402 453 OFFCURVE",
"452 409 OFFCURVE",
"452 324 CURVE SMOOTH",
"452 205 LINE SMOOTH",
"452 118 OFFCURVE",
"352 41 OFFCURVE",
"245 41 CURVE SMOOTH",
"181 41 OFFCURVE",
"135 79 OFFCURVE",
"135 142 CURVE SMOOTH",
"135 222 OFFCURVE",
"208 234 OFFCURVE",
"381 234 CURVE SMOOTH",
"476 234 LINE",
"476 281 LINE",
"379 281 LINE SMOOTH",
"185 281 OFFCURVE",
"82 258 OFFCURVE",
"82 138 CURVE SMOOTH",
"82 57 OFFCURVE",
"147 -8 OFFCURVE",
"242 -8 CURVE SMOOTH",
"344 -8 OFFCURVE",
"417 45 OFFCURVE",
"468 130 CURVE",
"473 130 LINE",
"506 40 OFFCURVE",
"589 -8 OFFCURVE",
"705 -8 CURVE SMOOTH",
"789 -8 OFFCURVE",
"858 15 OFFCURVE",
"909 60 CURVE",
"888 102 LINE",
"834 56 OFFCURVE",
"776 41 OFFCURVE",
"703 41 CURVE SMOOTH",
"575 41 OFFCURVE",
"502 125 OFFCURVE",
"502 245 CURVE",
"502 253 LINE SMOOTH",
"502 376 OFFCURVE",
"580 454 OFFCURVE",
"694 454 CURVE SMOOTH",
"825 454 OFFCURVE",
"867 386 OFFCURVE",
"867 267 CURVE",
"894 281 LINE",
"482 281 LINE",
"482 234 LINE"
);
}
);
width = 984;
},
{
anchors = (
{
name = bottom;
position = "{416, 0}";
},
{
name = top;
position = "{416, 484}";
}
);
background = {
paths = (
{
closed = 1;
nodes = (
"809 237 LINE",
"809 260 LINE SMOOTH",
"809 405 OFFCURVE",
"736 492 OFFCURVE",
"616 492 CURVE SMOOTH",
"520 492 OFFCURVE",
"449 443 OFFCURVE",
"416 354 CURVE",
"436 354 LINE",
"423 444 OFFCURVE",
"372 492 OFFCURVE",
"271 492 CURVE SMOOTH",
"204 492 OFFCURVE",
"135 470 OFFCURVE",
"84 434 CURVE",
"104 399 LINE",
"161 438 OFFCURVE",
"211 453 OFFCURVE",
"273 453 CURVE SMOOTH",
"355 453 OFFCURVE",
"394 411 OFFCURVE",
"394 312 CURVE SMOOTH",
"394 208 LINE SMOOTH",
"394 105 OFFCURVE",
"331 31 OFFCURVE",
"236 31 CURVE SMOOTH",
"158 31 OFFCURVE",
"110 75 OFFCURVE",
"110 139 CURVE SMOOTH",
"110 217 OFFCURVE",
"163 237 OFFCURVE",
"361 237 CURVE SMOOTH",
"404 237 LINE",
"404 274 LINE",
"359 274 LINE SMOOTH",
"136 274 OFFCURVE",
"64 243 OFFCURVE",
"64 135 CURVE SMOOTH",
"64 55 OFFCURVE",
"137 -8 OFFCURVE",
"233 -8 CURVE SMOOTH",
"335 -8 OFFCURVE",
"406 57 OFFCURVE",
"422 160 CURVE",
"404 160 LINE",
"430 50 OFFCURVE",
"508 -8 OFFCURVE",
"624 -8 CURVE SMOOTH",
"689 -8 OFFCURVE",
"760 18 OFFCURVE",
"801 60 CURVE",
"781 94 LINE",
"729 50 OFFCURVE",
"679 31 OFFCURVE",
"620 31 CURVE SMOOTH",
"502 31 OFFCURVE",
"437 109 OFFCURVE",
"437 243 CURVE SMOOTH",
"437 373 OFFCURVE",
"503 454 OFFCURVE",
"612 454 CURVE SMOOTH",
"716 454 OFFCURVE",
"770 380 OFFCURVE",
"770 263 CURVE",
"786 274 LINE",
"428 274 LINE",
"428 237 LINE"
);
}
);
};
layerId = "F1F93986-3ED8-4AAE-84C4-CA3EEECDDFA0";
paths = (
{
closed = 1;
nodes = (
"809 237 LINE",
"809 260 LINE SMOOTH",
"809 405 OFFCURVE",
"736 492 OFFCURVE",
"616 492 CURVE SMOOTH",
"520 492 OFFCURVE",
"449 443 OFFCURVE",
"416 354 CURVE",
"436 354 LINE",
"423 444 OFFCURVE",
"372 492 OFFCURVE",
"271 492 CURVE SMOOTH",
"204 492 OFFCURVE",
"135 470 OFFCURVE",
"84 434 CURVE",
"104 399 LINE",
"161 438 OFFCURVE",
"211 453 OFFCURVE",
"273 453 CURVE SMOOTH",
"355 453 OFFCURVE",
"394 411 OFFCURVE",
"394 312 CURVE SMOOTH",
"394 208 LINE SMOOTH",
"394 105 OFFCURVE",
"331 31 OFFCURVE",
"236 31 CURVE SMOOTH",
"158 31 OFFCURVE",
"110 75 OFFCURVE",
"110 139 CURVE SMOOTH",
"110 217 OFFCURVE",
"163 237 OFFCURVE",
"361 237 CURVE SMOOTH",
"404 237 LINE",
"404 274 LINE",
"359 274 LINE SMOOTH",
"136 274 OFFCURVE",
"64 243 OFFCURVE",
"64 135 CURVE SMOOTH",
"64 55 OFFCURVE",
"137 -8 OFFCURVE",
"233 -8 CURVE SMOOTH",
"335 -8 OFFCURVE",
"406 57 OFFCURVE",
"422 160 CURVE",
"404 160 LINE",
"430 50 OFFCURVE",
"508 -8 OFFCURVE",
"624 -8 CURVE SMOOTH",
"689 -8 OFFCURVE",
"760 18 OFFCURVE",
"801 60 CURVE",
"781 94 LINE",
"729 50 OFFCURVE",
"679 31 OFFCURVE",
"620 31 CURVE SMOOTH",
"502 31 OFFCURVE",
"437 109 OFFCURVE",
"437 243 CURVE SMOOTH",
"437 250 LINE SMOOTH",
"437 373 OFFCURVE",
"505 454 OFFCURVE",
"612 454 CURVE SMOOTH",
"716 454 OFFCURVE",
"770 380 OFFCURVE",
"770 263 CURVE",
"786 274 LINE",
"428 274 LINE",
"428 237 LINE"
);
}
);
width = 857;
}
);
leftKerningGroup = a;
leftMetricsKey = a;
rightKerningGroup = e;
rightMetricsKey = e;
unicode = 00E6;
userData = {
com.typemytype.robofont.layerData = {
b = {
anchors = (
);
components = (
);
contours = (
);
lib = {
};
name = ae;
unicodes = (
);
width = 1734;
};
};
};
},
{
color = 5;
glyphname = a.ss01;
lastChange = "2019-08-06 12:42:42 +0000";
layers = (
{
anchors = (
{
name = bottom;
position = "{308, 0}";
},
{
name = ogonek;
position = "{554, 0}";
},
{
name = top;
position = "{308, 484}";
}
);
background = {
anchors = (
{
name = bottom;
position = "{295, 0}";
},
{
name = ogonek;
position = "{497, 0}";
},
{
name = top;
position = "{295, 484}";
}
);
paths = (
{
closed = 1;
nodes = (
"379 -7 OFFCURVE",
"444 42 OFFCURVE",
"466 131 CURVE",
"455 131 LINE",
"455 0 LINE",
"497 0 LINE",
"497 484 LINE",
"455 484 LINE",
"455 360 LINE",
"466 360 LINE",
"444 447 OFFCURVE",
"379 496 OFFCURVE",
"285 496 CURVE SMOOTH",
"155 496 OFFCURVE",
"69 395 OFFCURVE",
"69 243 CURVE SMOOTH",
"69 92 OFFCURVE",
"154 -7 OFFCURVE",
"285 -7 CURVE SMOOTH"
);
},
{
closed = 1;
nodes = (
"177 34 OFFCURVE",
"114 111 OFFCURVE",
"114 243 CURVE SMOOTH",
"114 376 OFFCURVE",
"178 455 OFFCURVE",
"285 455 CURVE SMOOTH",
"394 455 OFFCURVE",
"455 380 OFFCURVE",
"455 245 CURVE SMOOTH",
"455 111 OFFCURVE",
"394 34 OFFCURVE",
"286 34 CURVE SMOOTH"
);
}
);
};
layerId = "B0DFB0A8-5D2F-4351-A1F8-6629D0DA694C";
paths = (
{
closed = 1;
nodes = (
"414 -8 OFFCURVE",
"476 59 OFFCURVE",
"498 110 CURVE",
"503 110 LINE",
"503 0 LINE",
"552 0 LINE",
"552 494 LINE",
"500 494 LINE",
"500 386 LINE",
"495 386 LINE",
"473 439 OFFCURVE",
"414 502 OFFCURVE",
"306 502 CURVE SMOOTH",
"168 502 OFFCURVE",
"71 414 OFFCURVE",
"71 247 CURVE SMOOTH",
"71 84 OFFCURVE",
"167 -8 OFFCURVE",
"306 -8 CURVE SMOOTH"
);
},
{
closed = 1;
nodes = (
"195 41 OFFCURVE",
"124 110 OFFCURVE",
"124 248 CURVE SMOOTH",
"124 382 OFFCURVE",
"197 453 OFFCURVE",
"312 453 CURVE SMOOTH",
"426 453 OFFCURVE",
"500 381 OFFCURVE",
"500 248 CURVE SMOOTH",
"500 110 OFFCURVE",
"430 41 OFFCURVE",
"313 41 CURVE SMOOTH"
);
}
);
width = 655;
},
{
anchors = (
{
name = bottom;
position = "{280, 0}";
},
{
name = ogonek;
position = "{483, 0}";
},
{
name = top;
position = "{280, 484}";
}
);
background = {
paths = (
{
closed = 1;
nodes = (
"402 -8 OFFCURVE",
"485 90 OFFCURVE",
"485 242 CURVE SMOOTH",
"485 394 OFFCURVE",
"402 492 OFFCURVE",
"269 492 CURVE SMOOTH",
"136 492 OFFCURVE",
"53 394 OFFCURVE",
"53 242 CURVE SMOOTH",
"53 90 OFFCURVE",
"136 -8 OFFCURVE",
"269 -8 CURVE SMOOTH"
);
},
{
closed = 1;
nodes = (
"160 31 OFFCURVE",
"96 106 OFFCURVE",
"96 242 CURVE SMOOTH",
"96 375 OFFCURVE",
"162 453 OFFCURVE",
"269 453 CURVE SMOOTH",
"376 453 OFFCURVE",
"442 375 OFFCURVE",
"442 242 CURVE SMOOTH",
"442 106 OFFCURVE",
"376 31 OFFCURVE",
"268 31 CURVE SMOOTH"
);
}
);
};
layerId = "F1F93986-3ED8-4AAE-84C4-CA3EEECDDFA0";
paths = (
{
closed = 1;
nodes = (
"364 -8 OFFCURVE",
"429 42 OFFCURVE",
"452 126 CURVE",
"441 126 LINE",
"441 0 LINE",
"483 0 LINE",
"483 484 LINE",
"441 484 LINE",
"441 358 LINE",
"452 358 LINE",
"429 442 OFFCURVE",
"364 492 OFFCURVE",
"270 492 CURVE SMOOTH",
"136 492 OFFCURVE",
"53 395 OFFCURVE",
"53 242 CURVE SMOOTH",
"53 89 OFFCURVE",
"137 -8 OFFCURVE",
"270 -8 CURVE SMOOTH"
);
},
{
closed = 1;
nodes = (
"160 31 OFFCURVE",
"96 106 OFFCURVE",
"96 242 CURVE SMOOTH",
"96 375 OFFCURVE",
"162 453 OFFCURVE",
"269 453 CURVE SMOOTH",
"376 453 OFFCURVE",
"442 375 OFFCURVE",
"442 242 CURVE SMOOTH",
"442 106 OFFCURVE",
"376 31 OFFCURVE",
"268 31 CURVE SMOOTH"
);
}
);
width = 568;
}
);
leftKerningGroup = o;
leftMetricsKey = o;
rightKerningGroup = u;
rightMetricsKey = "=|n";
userData = {
anchors = (
);
b = {
};
com.typemytype.robofont.layerData = {
b = {
anchors = (
);
components = (
);
contours = (
);
lib = {
};
name = p;
unicodes = (
);
width = 1181;
};
};
components = (
);
contours = (
);
lib = {
};
name = p;
unicodes = (
);
width = 1207;
};
},
{
color = 5;
glyphname = b;
lastChange = "2019-08-06 12:42:42 +0000";
layers = (
{
anchors = (
{
name = bottom;
position = "{348, 0}";
},
{
name = top;
position = "{342, 705}";
}
);
background = {
paths = (
{
closed = 1;
nodes = (
"492 -8 OFFCURVE",
"582 87 OFFCURVE",
"582 248 CURVE SMOOTH",
"582 408 OFFCURVE",
"492 502 OFFCURVE",
"341 502 CURVE SMOOTH",
"190 502 OFFCURVE",
"100 408 OFFCURVE",
"100 248 CURVE SMOOTH",
"100 87 OFFCURVE",
"190 -8 OFFCURVE",
"341 -8 CURVE SMOOTH"
);
},
{
closed = 1;
nodes = (
"223 41 OFFCURVE",
"153 110 OFFCURVE",
"153 248 CURVE SMOOTH",
"153 381 OFFCURVE",
"227 453 OFFCURVE",
"341 453 CURVE SMOOTH",
"456 453 OFFCURVE",
"529 382 OFFCURVE",
"529 248 CURVE SMOOTH",
"529 110 OFFCURVE",
"458 41 OFFCURVE",
"340 41 CURVE SMOOTH"
);
}
);
};
layerId = "B0DFB0A8-5D2F-4351-A1F8-6629D0DA694C";
paths = (
{
closed = 1;
nodes = (
"488 -8 OFFCURVE",
"584 84 OFFCURVE",
"584 247 CURVE SMOOTH",
"584 414 OFFCURVE",
"487 502 OFFCURVE",
"349 502 CURVE SMOOTH",
"241 502 OFFCURVE",
"182 439 OFFCURVE",
"160 386 CURVE",
"155 386 LINE",
"155 705 LINE",
"103 705 LINE",
"103 0 LINE",
"152 0 LINE",
"152 110 LINE",
"157 110 LINE",
"179 59 OFFCURVE",
"241 -8 OFFCURVE",
"349 -8 CURVE SMOOTH"
);
},
{
closed = 1;
nodes = (
"225 41 OFFCURVE",
"155 110 OFFCURVE",
"155 248 CURVE SMOOTH",
"155 381 OFFCURVE",
"229 453 OFFCURVE",
"343 453 CURVE SMOOTH",
"458 453 OFFCURVE",
"531 382 OFFCURVE",
"531 248 CURVE SMOOTH",
"531 110 OFFCURVE",
"460 41 OFFCURVE",
"342 41 CURVE SMOOTH"
);
}
);
width = 655;
},
{
anchors = (
{
name = bottom;
position = "{310, 0}";
},
{
name = top;
position = "{300, 705}";
}
);
background = {
paths = (
{
closed = 1;
nodes = (
"432 -8 OFFCURVE",
"515 90 OFFCURVE",
"515 242 CURVE SMOOTH",
"515 394 OFFCURVE",
"432 492 OFFCURVE",
"299 492 CURVE SMOOTH",
"166 492 OFFCURVE",
"83 394 OFFCURVE",
"83 242 CURVE SMOOTH",
"83 90 OFFCURVE",
"166 -8 OFFCURVE",
"299 -8 CURVE SMOOTH"
);
},
{
closed = 1;
nodes = (
"190 31 OFFCURVE",
"126 106 OFFCURVE",
"126 242 CURVE SMOOTH",
"126 375 OFFCURVE",
"192 453 OFFCURVE",
"299 453 CURVE SMOOTH",
"406 453 OFFCURVE",
"472 375 OFFCURVE",
"472 242 CURVE SMOOTH",
"472 106 OFFCURVE",
"406 31 OFFCURVE",
"298 31 CURVE SMOOTH"
);
}
);
};
layerId = "F1F93986-3ED8-4AAE-84C4-CA3EEECDDFA0";
paths = (
{
closed = 1;
nodes = (
"431 -8 OFFCURVE",
"515 89 OFFCURVE",
"515 242 CURVE SMOOTH",
"515 395 OFFCURVE",
"432 492 OFFCURVE",
"298 492 CURVE SMOOTH",
"204 492 OFFCURVE",
"139 442 OFFCURVE",
"116 358 CURVE",
"127 358 LINE",
"127 705 LINE",
"85 705 LINE",
"85 0 LINE",
"127 0 LINE",
"127 126 LINE",
"116 126 LINE",
"139 42 OFFCURVE",
"204 -8 OFFCURVE",
"298 -8 CURVE SMOOTH"
);
},
{
closed = 1;
nodes = (
"190 31 OFFCURVE",
"126 106 OFFCURVE",
"126 242 CURVE SMOOTH",
"126 375 OFFCURVE",
"192 453 OFFCURVE",
"299 453 CURVE SMOOTH",
"406 453 OFFCURVE",
"472 375 OFFCURVE",
"472 242 CURVE SMOOTH",
"472 106 OFFCURVE",
"406 31 OFFCURVE",
"298 31 CURVE SMOOTH"
);
}
);
width = 568;
}
);
leftKerningGroup = h;
leftMetricsKey = n;
rightKerningGroup = o;
rightMetricsKey = o;
unicode = 0062;
userData = {
anchors = (
);
b = {
};
com.typemytype.robofont.layerData = {
b = {
anchors = (
);
components = (
);
contours = (
{
points = (
{
segmentType = curve;
smooth = 1;
x = 238;
y = 1425;
},
{
smooth = 0;
x = 198;
y = 1425;
},
{
smooth = 0;
x = 158;
y = 1400;
},
{
segmentType = curve;
smooth = 1;
x = 158;
y = 1351;
},
{
segmentType = line;
smooth = 1;
x = 158;
y = 76;
},
{
smooth = 0;
x = 158;
y = 27;
},
{
smooth = 0;
x = 197;
y = 3;
},
{
segmentType = curve;
smooth = 1;
x = 237;
y = 3;
},
{
smooth = 0;
x = 297;
y = 3;
},
{
smooth = 0;
x = 318;
y = 38;
},
{
segmentType = curve;
smooth = 1;
x = 318;
y = 76;
},
{
segmentType = line;
smooth = 0;
x = 318;
y = 183;
},
{
smooth = 0;
x = 384;
y = 46;
},
{
smooth = 0;
x = 516;
y = "-20";
},
{
segmentType = curve;
smooth = 1;
x = 666;
y = "-20";
},
{
smooth = 0;
x = 957;
y = "-20";
},
{
smooth = 0;
x = 1095;
y = 225;
},
{
segmentType = curve;
smooth = 1;
x = 1095;
y = 502;
},
{
smooth = 0;
x = 1095;
y = 777;
},
{
smooth = 0;
x = 939;
y = 1013;
},
{
segmentType = curve;
smooth = 1;
x = 650;
y = 1013;
},
{
smooth = 0;
x = 503;
y = 1013;
},
{
smooth = 0;
x = 376;
y = 942;
},
{
segmentType = curve;
smooth = 0;
x = 318;
y = 814;
},
{
segmentType = line;
smooth = 1;
x = 318;
y = 1351;
},
{
smooth = 0;
x = 318;
y = 1400;
},
{
smooth = 0;
x = 278;
y = 1425;
}
);
},
{
points = (
{
segmentType = curve;
smooth = 1;
x = 632;
y = 903;
},
{
smooth = 0;
x = 859;
y = 903;
},
{
smooth = 0;
x = 935;
y = 685;
},
{
segmentType = curve;
smooth = 1;
x = 935;
y = 496;
},
{
smooth = 0;
x = 935;
y = 316;
},
{
smooth = 0;
x = 869;
y = 93;
},
{
segmentType = curve;
smooth = 0;
x = 645;
y = 90;
},
{
smooth = 0;
x = 395;
y = 90;
},
{
smooth = 0;
x = 319;
y = 279;
},
{
segmentType = curve;
smooth = 1;
x = 319;
y = 501;
},
{
smooth = 0;
x = 319;
y = 701;
},
{
smooth = 0;
x = 407;
y = 903;
}
);
}
);
lib = {
};
name = b;
unicodes = (
);
width = 1181;
};
};
components = (
);
contours = (
);
lib = {
};
name = b;
unicodes = (
);
width = 1203;
};
},
{
color = 5;
glyphname = c;
lastChange = "2019-08-06 12:42:42 +0000";
layers = (
{
anchors = (
{
name = bottom;
position = "{314, 0}";
},
{
name = top;
position = "{314, 484}";
}
);
background = {
components = (
{
name = o;
}
);
};
layerId = "B0DFB0A8-5D2F-4351-A1F8-6629D0DA694C";
paths = (
{
closed = 1;
nodes = (
"376 -8 OFFCURVE",
"445 17 OFFCURVE",
"484 58 CURVE",
"464 101 LINE",
"417 58 OFFCURVE",
"365 41 OFFCURVE",
"314 41 CURVE SMOOTH",
"203 41 OFFCURVE",
"124 114 OFFCURVE",
"124 245 CURVE SMOOTH",
"124 378 OFFCURVE",
"204 453 OFFCURVE",
"315 453 CURVE SMOOTH",
"365 453 OFFCURVE",
"418 437 OFFCURVE",
"464 393 CURVE",
"484 437 LINE",
"447 477 OFFCURVE",
"379 502 OFFCURVE",
"314 502 CURVE SMOOTH",
"165 502 OFFCURVE",
"71 401 OFFCURVE",
"71 246 CURVE SMOOTH",
"71 89 OFFCURVE",
"165 -8 OFFCURVE",
"313 -8 CURVE SMOOTH"
);
}
);
width = 516;
},
{
anchors = (
{
name = bottom;
position = "{273, 0}";
},
{
name = top;
position = "{273, 484}";
}
);
background = {
paths = (
{
closed = 1;
nodes = (
"1036 -8 OFFCURVE",
"1100 17 OFFCURVE",
"1139 58 CURVE",
"1119 91 LINE",
"1072 48 OFFCURVE",
"1025 31 OFFCURVE",
"976 31 CURVE SMOOTH",
"860 31 OFFCURVE",
"796 106 OFFCURVE",
"796 240 CURVE SMOOTH",
"796 375 OFFCURVE",
"862 453 OFFCURVE",
"977 453 CURVE SMOOTH",
"1025 453 OFFCURVE",
"1073 437 OFFCURVE",
"1119 393 CURVE",
"1139 427 LINE",
"1102 467 OFFCURVE",
"1039 492 OFFCURVE",
"976 492 CURVE SMOOTH",
"836 492 OFFCURVE",
"753 394 OFFCURVE",
"753 241 CURVE SMOOTH",
"753 88 OFFCURVE",
"836 -8 OFFCURVE",
"975 -8 CURVE SMOOTH"
);
},
{
closed = 1;
nodes = (
"135 492 OFFCURVE",
"53 396 OFFCURVE",
"53 243 CURVE SMOOTH",
"53 90 OFFCURVE",
"135 -8 OFFCURVE",
"273 -8 CURVE SMOOTH",
"331 -8 OFFCURVE",
"393 17 OFFCURVE",
"430 57 CURVE",
"410 91 LINE",
"365 47 OFFCURVE",
"317 31 OFFCURVE",
"274 31 CURVE SMOOTH",
"161 31 OFFCURVE",
"96 109 OFFCURVE",
"96 244 CURVE SMOOTH",
"96 378 OFFCURVE",
"159 453 OFFCURVE",
"273 453 CURVE SMOOTH",
"317 453 OFFCURVE",
"367 436 OFFCURVE",
"410 393 CURVE",
"430 426 LINE",
"392 467 OFFCURVE",
"328 492 OFFCURVE",
"272 492 CURVE SMOOTH"
);
}
);
};
layerId = "F1F93986-3ED8-4AAE-84C4-CA3EEECDDFA0";
paths = (
{
closed = 1;
nodes = (
"330 -8 OFFCURVE",
"392 17 OFFCURVE",
"430 58 CURVE",
"410 91 LINE",
"367 48 OFFCURVE",
"317 31 OFFCURVE",
"273 31 CURVE SMOOTH",
"159 31 OFFCURVE",
"96 112 OFFCURVE",
"96 245 CURVE SMOOTH",
"96 378 OFFCURVE",
"159 453 OFFCURVE",
"273 453 CURVE SMOOTH",
"317 453 OFFCURVE",
"367 436 OFFCURVE",
"410 393 CURVE",
"430 426 LINE",
"392 467 OFFCURVE",
"332 492 OFFCURVE",
"274 492 CURVE SMOOTH",
"136 492 OFFCURVE",
"53 398 OFFCURVE",
"53 246 CURVE SMOOTH",
"53 94 OFFCURVE",
"136 -8 OFFCURVE",
"274 -8 CURVE SMOOTH"
);
}
);
width = 455;
}
);
leftKerningGroup = o;
leftMetricsKey = o;
rightKerningGroup = c;
unicode = 0063;
userData = {
anchors = (
);
b = {
};
com.typemytype.robofont.layerData = {
b = {
anchors = (
);
components = (
);
contours = (
);
lib = {
};
name = c;
unicodes = (
);
width = 956.14099;
};
};
components = (
);
contours = (
);
lib = {
};
name = c;
unicodes = (
);
width = 992;
};
},
{
color = 5;
glyphname = d;
lastChange = "2019-08-06 12:42:42 +0000";
layers = (
{
anchors = (
{
name = bottom;
position = "{277, 0}";
},
{
name = center;
position = "{280, 245}";
},
{
name = stroke;
position = "{468, 580}";
},
{
name = top;
position = "{277, 484}";
},
{
name = topright;
position = "{602, 705}";
}
);
background = {
paths = (
{
closed = 1;
nodes = (
"369 -8 OFFCURVE",
"432 44 OFFCURVE",
"463 110 CURVE",
"468 110 LINE",
"468 0 LINE",
"518 0 LINE",
"518 705 LINE",
"466 705 LINE",
"466 389 LINE",
"461 389 LINE",
"437 446 OFFCURVE",
"373 502 OFFCURVE",
"272 502 CURVE SMOOTH",
"133 502 OFFCURVE",
"35 404 OFFCURVE",
"35 251 CURVE SMOOTH",
"35 96 OFFCURVE",
"111 -8 OFFCURVE",
"272 -8 CURVE SMOOTH"
);
},
{
closed = 1;
nodes = (
"150 41 OFFCURVE",
"88 117 OFFCURVE",
"88 251 CURVE SMOOTH",
"88 383 OFFCURVE",
"163 453 OFFCURVE",
"273 453 CURVE SMOOTH",
"388 453 OFFCURVE",
"466 376 OFFCURVE",
"466 249 CURVE SMOOTH",
"466 120 OFFCURVE",
"394 41 OFFCURVE",
"271 41 CURVE SMOOTH"
);
}
);
};
layerId = "B0DFB0A8-5D2F-4351-A1F8-6629D0DA694C";
paths = (
{
closed = 1;
nodes = (
"414 -8 OFFCURVE",
"476 59 OFFCURVE",
"498 110 CURVE",
"503 110 LINE",
"503 0 LINE",
"552 0 LINE",
"552 705 LINE",
"500 705 LINE",
"500 386 LINE",
"495 386 LINE",
"473 439 OFFCURVE",
"414 502 OFFCURVE",
"306 502 CURVE SMOOTH",
"168 502 OFFCURVE",
"71 414 OFFCURVE",
"71 247 CURVE SMOOTH",
"71 84 OFFCURVE",
"167 -8 OFFCURVE",
"306 -8 CURVE SMOOTH"
);
},
{
closed = 1;
nodes = (
"195 41 OFFCURVE",
"124 110 OFFCURVE",
"124 248 CURVE SMOOTH",
"124 382 OFFCURVE",
"197 453 OFFCURVE",
"312 453 CURVE SMOOTH",
"426 453 OFFCURVE",
"500 381 OFFCURVE",
"500 248 CURVE SMOOTH",
"500 110 OFFCURVE",
"430 41 OFFCURVE",
"313 41 CURVE SMOOTH"
);
}
);
width = 655;
},
{
anchors = (
{
name = bottom;
position = "{286, 0}";
},
{
name = center;
position = "{286, 245}";
},
{
name = stroke;
position = "{411, 580}";
},
{
name = top;
position = "{286, 484}";
},
{
name = topright;
position = "{524, 705}";
}
);
background = {
paths = (
{
closed = 1;
nodes = (
"402 -8 OFFCURVE",
"485 90 OFFCURVE",
"485 242 CURVE SMOOTH",
"485 394 OFFCURVE",
"402 492 OFFCURVE",
"269 492 CURVE SMOOTH",
"136 492 OFFCURVE",
"53 394 OFFCURVE",
"53 242 CURVE SMOOTH",
"53 90 OFFCURVE",
"136 -8 OFFCURVE",
"269 -8 CURVE SMOOTH"
);
},
{
closed = 1;
nodes = (
"160 31 OFFCURVE",
"96 106 OFFCURVE",
"96 242 CURVE SMOOTH",
"96 375 OFFCURVE",
"162 453 OFFCURVE",
"269 453 CURVE SMOOTH",
"376 453 OFFCURVE",
"442 375 OFFCURVE",
"442 242 CURVE SMOOTH",
"442 106 OFFCURVE",
"376 31 OFFCURVE",
"268 31 CURVE SMOOTH"
);
}
);
};
layerId = "F1F93986-3ED8-4AAE-84C4-CA3EEECDDFA0";
paths = (
{
closed = 1;
nodes = (
"364 -8 OFFCURVE",
"429 42 OFFCURVE",
"452 126 CURVE",
"441 126 LINE",
"441 0 LINE",
"483 0 LINE",
"483 705 LINE",
"441 705 LINE",
"441 358 LINE",
"452 358 LINE",
"429 442 OFFCURVE",
"364 492 OFFCURVE",
"270 492 CURVE SMOOTH",
"136 492 OFFCURVE",
"53 395 OFFCURVE",
"53 242 CURVE SMOOTH",
"53 89 OFFCURVE",
"137 -8 OFFCURVE",
"270 -8 CURVE SMOOTH"
);
},
{
closed = 1;
nodes = (
"160 31 OFFCURVE",
"96 106 OFFCURVE",
"96 242 CURVE SMOOTH",
"96 375 OFFCURVE",
"162 453 OFFCURVE",
"269 453 CURVE SMOOTH",
"376 453 OFFCURVE",
"442 375 OFFCURVE",
"442 242 CURVE SMOOTH",
"442 106 OFFCURVE",
"376 31 OFFCURVE",
"268 31 CURVE SMOOTH"
);
}
);
width = 568;
}
);
leftKerningGroup = o;
leftMetricsKey = o;
rightKerningGroup = l;
rightMetricsKey = "=|n";
unicode = 0064;
userData = {
anchors = (
);
b = {
};
com.typemytype.robofont.layerData = {
b = {
anchors = (
);
components = (
);
contours = (
);
lib = {
};
name = d;
unicodes = (
);
width = 1181;
};
};
components = (
);
contours = (
);
lib = {
};
name = d;
unicodes = (
);
width = 1207;
};
},
{
color = 5;
glyphname = eth;
lastChange = "2019-08-06 12:42:42 +0000";
layers = (
{
background = {
paths = (
{
closed = 1;
nodes = (
"452 -7 OFFCURVE",
"527 91 OFFCURVE",
"527 282 CURVE SMOOTH",
"527 504 OFFCURVE",
"419 644 OFFCURVE",
"204 710 CURVE",
"192 677 LINE",
"391 618 OFFCURVE",
"487 481 OFFCURVE",
"485 287 CURVE",
"504 287 LINE",
"479 400 OFFCURVE",
"413 455 OFFCURVE",
"311 455 CURVE SMOOTH",
"179 455 OFFCURVE",
"92 364 OFFCURVE",
"92 224 CURVE SMOOTH",
"92 84 OFFCURVE",
"177 -7 OFFCURVE",
"308 -7 CURVE SMOOTH"
);
},
{
closed = 1;
nodes = (
"199 34 OFFCURVE",
"137 102 OFFCURVE",
"137 224 CURVE SMOOTH",
"137 343 OFFCURVE",
"201 414 OFFCURVE",
"308 414 CURVE SMOOTH",
"415 414 OFFCURVE",
"479 343 OFFCURVE",
"479 224 CURVE SMOOTH",
"479 105 OFFCURVE",
"414 34 OFFCURVE",
"307 34 CURVE SMOOTH"
);
},
{
closed = 1;
nodes = (
"475 677 LINE",
"461 710 LINE",
"159 583 LINE",
"173 550 LINE"
);
}
);
};
layerId = "B0DFB0A8-5D2F-4351-A1F8-6629D0DA694C";
paths = (
{
closed = 1;
nodes = (
"453 -7 OFFCURVE",
"552 100 OFFCURVE",
"552 282 CURVE SMOOTH",
"552 505 OFFCURVE",
"421 652 OFFCURVE",
"206 710 CURVE",
"190 665 LINE",
"359 617 OFFCURVE",
"482 505 OFFCURVE",
"495 360 CURVE",
"491 360 LINE",
"460 425 OFFCURVE",
"399 465 OFFCURVE",
"313 465 CURVE SMOOTH",
"170 465 OFFCURVE",
"71 377 OFFCURVE",
"71 229 CURVE SMOOTH",
"71 81 OFFCURVE",
"169 -7 OFFCURVE",
"310 -7 CURVE SMOOTH"
);
},
{
closed = 1;
nodes = (
"202 42 OFFCURVE",
"124 111 OFFCURVE",
"124 229 CURVE SMOOTH",
"124 347 OFFCURVE",
"203 416 OFFCURVE",
"310 416 CURVE SMOOTH",
"432 416 OFFCURVE",
"496 348 OFFCURVE",
"496 229 CURVE SMOOTH",
"496 111 OFFCURVE",
"417 42 OFFCURVE",
"309 42 CURVE SMOOTH"
);
},
{
closed = 1;
nodes = (
"482 667 LINE",
"463 710 LINE",
"161 583 LINE",
"180 540 LINE"
);
}
);
width = 609;
},
{
background = {
paths = (
{
closed = 1;
nodes = (
"413 -7 OFFCURVE",
"488 91 OFFCURVE",
"488 282 CURVE SMOOTH",
"488 504 OFFCURVE",
"380 644 OFFCURVE",
"165 710 CURVE",
"153 677 LINE",
"352 618 OFFCURVE",
"448 481 OFFCURVE",
"446 287 CURVE",
"465 287 LINE",
"440 400 OFFCURVE",
"374 455 OFFCURVE",
"272 455 CURVE SMOOTH",
"140 455 OFFCURVE",
"53 364 OFFCURVE",
"53 224 CURVE SMOOTH",
"53 84 OFFCURVE",
"138 -7 OFFCURVE",
"269 -7 CURVE SMOOTH"
);
},
{
closed = 1;
nodes = (
"160 34 OFFCURVE",
"98 102 OFFCURVE",
"98 224 CURVE SMOOTH",
"98 343 OFFCURVE",
"162 414 OFFCURVE",
"269 414 CURVE SMOOTH",
"376 414 OFFCURVE",
"440 343 OFFCURVE",
"440 224 CURVE SMOOTH",
"440 105 OFFCURVE",
"375 34 OFFCURVE",
"268 34 CURVE SMOOTH"
);
},
{
closed = 1;
nodes = (
"436 677 LINE",
"422 710 LINE",
"120 583 LINE",
"134 550 LINE"
);
}
);
};
layerId = "F1F93986-3ED8-4AAE-84C4-CA3EEECDDFA0";
paths = (
{
closed = 1;
nodes = (
"413 -8 OFFCURVE",
"488 90 OFFCURVE",
"488 281 CURVE SMOOTH",
"488 503 OFFCURVE",
"380 644 OFFCURVE",
"165 710 CURVE",
"153 677 LINE",
"352 618 OFFCURVE",
"448 480 OFFCURVE",
"446 286 CURVE",
"465 286 LINE",
"440 399 OFFCURVE",
"374 454 OFFCURVE",
"272 454 CURVE SMOOTH",
"140 454 OFFCURVE",
"53 363 OFFCURVE",
"53 223 CURVE SMOOTH",
"53 83 OFFCURVE",
"138 -8 OFFCURVE",
"269 -8 CURVE SMOOTH"
);
},
{
closed = 1;
nodes = (
"160 33 OFFCURVE",
"98 101 OFFCURVE",
"98 223 CURVE SMOOTH",
"98 342 OFFCURVE",
"162 413 OFFCURVE",
"269 413 CURVE SMOOTH",
"376 413 OFFCURVE",
"440 342 OFFCURVE",
"440 223 CURVE SMOOTH",
"440 104 OFFCURVE",
"375 33 OFFCURVE",
"268 33 CURVE SMOOTH"
);
},
{
closed = 1;
nodes = (
"436 677 LINE",
"422 710 LINE",
"120 583 LINE",
"134 550 LINE"
);
}
);
width = 541;
}
);
leftKerningGroup = o;
leftMetricsKey = o;
rightKerningGroup = o;
unicode = 00F0;
userData = {
com.typemytype.robofont.layerData = {
b = {
anchors = (
);
components = (
);
contours = (
);
lib = {
};
name = eth;
unicodes = (
);
width = 1230;
};
};
};
},
{
color = 5;
glyphname = e;
lastChange = "2019-08-06 12:42:42 +0000";
layers = (
{
anchors = (
{
name = bottom;
position = "{309, 0}";
},
{
name = ogonek;
position = "{377, 0}";
},
{
name = top;
position = "{309, 484}";
}
);
background = {
components = (
{
name = c;
}
);
};
layerId = "B0DFB0A8-5D2F-4351-A1F8-6629D0DA694C";
paths = (
{
closed = 1;
nodes = (
"411 -8 OFFCURVE",
"480 15 OFFCURVE",
"531 60 CURVE",
"510 102 LINE",
"456 56 OFFCURVE",
"398 41 OFFCURVE",
"325 41 CURVE SMOOTH",
"204 41 OFFCURVE",
"124 114 OFFCURVE",
"124 248 CURVE SMOOTH",
"124 256 LINE SMOOTH",
"124 379 OFFCURVE",
"206 454 OFFCURVE",
"316 454 CURVE SMOOTH",
"440 454 OFFCURVE",
"489 389 OFFCURVE",
"489 267 CURVE",
"516 281 LINE",
"105 281 LINE",
"105 234 LINE",
"540 234 LINE",
"540 268 LINE SMOOTH",
"540 416 OFFCURVE",
"465 502 OFFCURVE",
"317 502 CURVE SMOOTH",
"165 502 OFFCURVE",
"71 402 OFFCURVE",
"71 248 CURVE SMOOTH",
"71 82 OFFCURVE",
"168 -8 OFFCURVE",
"327 -8 CURVE SMOOTH"
);
}
);
width = 606;
},
{
anchors = (
{
name = bottom;
position = "{277, 0}";
},
{
name = ogonek;
position = "{342, 0}";
},
{
name = top;
position = "{277, 484}";
}
);
background = {
paths = (
{
closed = 1;
nodes = (
"447 94 LINE",
"395 48 OFFCURVE",
"344 31 OFFCURVE",
"284 31 CURVE SMOOTH",
"165 31 OFFCURVE",
"96 107 OFFCURVE",
"96 240 CURVE SMOOTH",
"96 374 OFFCURVE",
"166 454 OFFCURVE",
"276 454 CURVE SMOOTH",
"382 454 OFFCURVE",
"436 380 OFFCURVE",
"436 259 CURVE",
"453 271 LINE",
"80 271 LINE",
"80 234 LINE",
"475 234 LINE",
"475 260 LINE SMOOTH",
"475 405 OFFCURVE",
"402 492 OFFCURVE",
"277 492 CURVE SMOOTH",
"144 492 OFFCURVE",
"53 391 OFFCURVE",
"53 240 CURVE SMOOTH",
"53 86 OFFCURVE",
"142 -8 OFFCURVE",
"286 -8 CURVE SMOOTH",
"355 -8 OFFCURVE",
"426 18 OFFCURVE",
"467 60 CURVE"
);
}
);
};
layerId = "F1F93986-3ED8-4AAE-84C4-CA3EEECDDFA0";
paths = (
{
closed = 1;
nodes = (
"355 -8 OFFCURVE",
"426 18 OFFCURVE",
"467 60 CURVE",
"447 94 LINE",
"395 48 OFFCURVE",
"344 31 OFFCURVE",
"284 31 CURVE SMOOTH",
"165 31 OFFCURVE",
"96 107 OFFCURVE",
"96 240 CURVE SMOOTH",
"96 245 LINE SMOOTH",
"96 364 OFFCURVE",
"159 454 OFFCURVE",
"276 454 CURVE SMOOTH",
"382 454 OFFCURVE",
"436 380 OFFCURVE",
"436 259 CURVE",
"453 271 LINE",
"80 271 LINE",
"80 234 LINE",
"475 234 LINE",
"475 260 LINE SMOOTH",
"475 405 OFFCURVE",
"402 492 OFFCURVE",
"277 492 CURVE SMOOTH",
"144 492 OFFCURVE",
"53 391 OFFCURVE",
"53 240 CURVE SMOOTH",
"53 86 OFFCURVE",
"142 -8 OFFCURVE",
"286 -8 CURVE SMOOTH"
);
}
);
width = 523;
}
);
leftKerningGroup = o;
leftMetricsKey = o;
rightKerningGroup = e;
unicode = 0065;
userData = {
anchors = (
);
b = {
};
com.typemytype.robofont.layerData = {
b = {
anchors = (
);
components = (
);
contours = (
);
lib = {
};
name = e;
unicodes = (
);
width = 1132;
};
};
components = (
);
contours = (
);
lib = {
};
name = e;
unicodes = (
);
width = 1132;
};
},
{
color = 5;
glyphname = f;
lastChange = "2019-08-06 12:42:42 +0000";
layers = (
{
anchors = (
{
name = bottom;
position = "{149, 0}";
},
{
name = top;
position = "{149, 705}";
}
);
background = {
anchors = (
{
name = bottom;
position = "{126, 0}";
},
{
name = top;
position = "{126, 705}";
}
);
paths = (
{
closed = 1;
nodes = (
"147 611 OFFCURVE",
"186 661 OFFCURVE",
"270 667 CURVE SMOOTH",
"316 670 LINE",
"311 707 LINE",
"280 705 LINE SMOOTH",
"162 698 OFFCURVE",
"105 636 OFFCURVE",
"105 515 CURVE SMOOTH",
"105 473 LINE",
"115 484 LINE",
"8 484 LINE",
"8 448 LINE",
"105 448 LINE",
"105 0 LINE",
"147 0 LINE",
"147 448 LINE",
"293 448 LINE",
"293 484 LINE",
"147 484 LINE",
"147 515 LINE SMOOTH"
);
}
);
};
layerId = "B0DFB0A8-5D2F-4351-A1F8-6629D0DA694C";
paths = (
{
closed = 1;
nodes = (
"185 622 OFFCURVE",
"247 651 OFFCURVE",
"322 655 CURVE SMOOTH",
"384 658 LINE",
"379 707 LINE",
"332 705 LINE SMOOTH",
"197 699 OFFCURVE",
"133 631 OFFCURVE",
"133 512 CURVE SMOOTH",
"133 483 LINE",
"144 494 LINE",
"26 494 LINE",
"26 447 LINE",
"133 447 LINE",
"133 0 LINE",
"185 0 LINE",
"185 447 LINE",
"359 447 LINE",
"359 494 LINE",
"185 494 LINE",
"185 512 LINE SMOOTH"
);
}
);
width = 392;
},
{
anchors = (
{
name = bottom;
position = "{126, 0}";
},
{
name = top;
position = "{126, 705}";
}
);
background = {
anchors = (
{
name = bottom;
position = "{126, 0}";
},
{
name = top;
position = "{126, 705}";
}
);
paths = (
{
closed = 1;
nodes = (
"147 611 OFFCURVE",
"186 661 OFFCURVE",
"270 667 CURVE SMOOTH",
"316 670 LINE",
"311 707 LINE",
"280 705 LINE SMOOTH",
"162 698 OFFCURVE",
"105 636 OFFCURVE",
"105 515 CURVE SMOOTH",
"105 473 LINE",
"115 484 LINE",
"8 484 LINE",
"8 448 LINE",
"105 448 LINE",
"105 0 LINE",
"147 0 LINE",
"147 448 LINE",
"293 448 LINE",
"293 484 LINE",
"147 484 LINE",
"147 515 LINE SMOOTH"
);
}
);
};
layerId = "F1F93986-3ED8-4AAE-84C4-CA3EEECDDFA0";
paths = (
{
closed = 1;
nodes = (
"147 614 OFFCURVE",
"189 662 OFFCURVE",
"270 667 CURVE SMOOTH",
"316 670 LINE",
"311 707 LINE",
"280 705 LINE SMOOTH",
"162 697 OFFCURVE",
"105 636 OFFCURVE",
"105 515 CURVE SMOOTH",
"105 473 LINE",
"115 484 LINE",
"8 484 LINE",
"8 448 LINE",
"105 448 LINE",
"105 0 LINE",
"147 0 LINE",
"147 448 LINE",
"293 448 LINE",
"293 484 LINE",
"147 484 LINE",
"147 515 LINE SMOOTH"
);
}
);
width = 306;
}
);
leftKerningGroup = f;
rightKerningGroup = f;
unicode = 0066;
userData = {
anchors = (
);
b = {
};
com.typemytype.robofont.layerData = {
b = {
anchors = (
);
components = (
);
contours = (
);
lib = {
};
name = f;
unicodes = (
);
width = 696;
};
};
components = (
);
contours = (
);
lib = {
};
name = f;
unicodes = (
);
width = 723;
};
},
{
color = 5;
glyphname = g;
lastChange = "2019-08-06 12:42:42 +0000";
layers = (
{
anchors = (
{
name = top;
position = "{321, 484}";
}
);
background = {
paths = (
{
closed = 1;
nodes = (
"468 -187 OFFCURVE",
"556 -116 OFFCURVE",
"556 25 CURVE SMOOTH",
"556 494 LINE",
"504 494 LINE",
"504 390 LINE",
"499 390 LINE",
"473 450 OFFCURVE",
"411 502 OFFCURVE",
"314 502 CURVE SMOOTH",
"175 502 OFFCURVE",
"69 416 OFFCURVE",
"69 261 CURVE SMOOTH",
"69 105 OFFCURVE",
"175 17 OFFCURVE",
"314 17 CURVE SMOOTH",
"415 17 OFFCURVE",
"482 80 OFFCURVE",
"499 132 CURVE",
"506 132 LINE",
"506 19 LINE SMOOTH",
"506 -88 OFFCURVE",
"437 -138 OFFCURVE",
"331 -138 CURVE SMOOTH",
"250 -138 OFFCURVE",
"193 -121 OFFCURVE",
"125 -74 CURVE",
"103 -117 LINE",
"163 -164 OFFCURVE",
"244 -187 OFFCURVE",
"330 -187 CURVE SMOOTH"
);
},
{
closed = 1;
nodes = (
"200 66 OFFCURVE",
"122 134 OFFCURVE",
"122 261 CURVE SMOOTH",
"122 387 OFFCURVE",
"200 453 OFFCURVE",
"314 453 CURVE SMOOTH",
"430 453 OFFCURVE",
"504 380 OFFCURVE",
"504 261 CURVE SMOOTH",
"504 141 OFFCURVE",
"430 66 OFFCURVE",
"314 66 CURVE SMOOTH"
);
}
);
};
layerId = "B0DFB0A8-5D2F-4351-A1F8-6629D0DA694C";
paths = (
{
closed = 1;
nodes = (
"461 -187 OFFCURVE",
"558 -102 OFFCURVE",
"558 35 CURVE SMOOTH",
"558 494 LINE",
"509 494 LINE",
"509 390 LINE",
"504 390 LINE",
"478 450 OFFCURVE",
"413 502 OFFCURVE",
"316 502 CURVE SMOOTH",
"177 502 OFFCURVE",
"71 411 OFFCURVE",
"71 256 CURVE SMOOTH",
"71 99 OFFCURVE",
"177 10 OFFCURVE",
"316 10 CURVE SMOOTH",
"417 10 OFFCURVE",
"484 72 OFFCURVE",
"501 124 CURVE",
"508 124 LINE",
"508 29 LINE SMOOTH",
"508 -75 OFFCURVE",
"431 -138 OFFCURVE",
"326 -138 CURVE SMOOTH",
"245 -138 OFFCURVE",
"195 -121 OFFCURVE",
"127 -74 CURVE",
"105 -117 LINE",
"165 -164 OFFCURVE",
"239 -187 OFFCURVE",
"325 -187 CURVE SMOOTH"
);
},
{
closed = 1;
nodes = (
"202 59 OFFCURVE",
"124 128 OFFCURVE",
"124 256 CURVE SMOOTH",
"124 382 OFFCURVE",
"202 453 OFFCURVE",
"316 453 CURVE SMOOTH",
"430 453 OFFCURVE",
"508 382 OFFCURVE",
"508 256 CURVE SMOOTH",
"508 127 OFFCURVE",
"430 59 OFFCURVE",
"316 59 CURVE SMOOTH"
);
}
);
width = 661;
},
{
anchors = (
{
name = top;
position = "{288, 484}";
}
);
background = {
paths = (
{
closed = 1;
nodes = (
"1021 -188 OFFCURVE",
"1087 -117 OFFCURVE",
"1087 22 CURVE SMOOTH",
"1087 484 LINE",
"1045 484 LINE",
"1045 359 LINE",
"1056 355 LINE",
"1034 443 OFFCURVE",
"969 492 OFFCURVE",
"873 492 CURVE SMOOTH",
"743 492 OFFCURVE",
"655 395 OFFCURVE",
"655 252 CURVE SMOOTH",
"655 108 OFFCURVE",
"743 11 OFFCURVE",
"873 11 CURVE SMOOTH",
"969 11 OFFCURVE",
"1034 60 OFFCURVE",
"1056 149 CURVE",
"1046 153 LINE",
"1046 16 LINE SMOOTH",
"1046 -90 OFFCURVE",
"993 -147 OFFCURVE",
"893 -147 CURVE SMOOTH",
"818 -147 OFFCURVE",
"770 -131 OFFCURVE",
"707 -84 CURVE",
"687 -119 LINE",
"743 -165 OFFCURVE",
"812 -188 OFFCURVE",
"892 -188 CURVE SMOOTH"
);
},
{
closed = 1;
nodes = (
"766 52 OFFCURVE",
"700 127 OFFCURVE",
"700 252 CURVE SMOOTH",
"700 376 OFFCURVE",
"766 451 OFFCURVE",
"873 451 CURVE SMOOTH",
"981 451 OFFCURVE",
"1045 375 OFFCURVE",
"1045 252 CURVE SMOOTH",
"1045 128 OFFCURVE",
"981 52 OFFCURVE",
"873 52 CURVE SMOOTH"
);
},
{
closed = 1;
nodes = (
"366 -8 OFFCURVE",
"431 42 OFFCURVE",
"454 126 CURVE",
"443 126 LINE",
"443 0 LINE",
"485 0 LINE",
"485 484 LINE",
"443 484 LINE",
"443 358 LINE",
"454 358 LINE",
"431 442 OFFCURVE",
"366 492 OFFCURVE",
"272 492 CURVE SMOOTH",
"138 492 OFFCURVE",
"55 395 OFFCURVE",
"55 242 CURVE SMOOTH",
"55 89 OFFCURVE",
"139 -8 OFFCURVE",
"272 -8 CURVE SMOOTH"
);
},
{
closed = 1;
nodes = (
"162 31 OFFCURVE",
"98 106 OFFCURVE",
"98 242 CURVE SMOOTH",
"98 375 OFFCURVE",
"164 453 OFFCURVE",
"271 453 CURVE SMOOTH",
"378 453 OFFCURVE",
"444 375 OFFCURVE",
"444 242 CURVE SMOOTH",
"444 106 OFFCURVE",
"378 31 OFFCURVE",
"270 31 CURVE SMOOTH"
);
}
);
};
layerId = "F1F93986-3ED8-4AAE-84C4-CA3EEECDDFA0";
paths = (
{
closed = 1;
nodes = (
"419 -188 OFFCURVE",
"485 -117 OFFCURVE",
"485 22 CURVE SMOOTH",
"485 484 LINE",
"443 484 LINE",
"443 355 LINE",
"454 355 LINE",
"431 442 OFFCURVE",
"366 492 OFFCURVE",
"271 492 CURVE SMOOTH",
"141 492 OFFCURVE",
"53 395 OFFCURVE",
"53 252 CURVE SMOOTH",
"53 108 OFFCURVE",
"141 11 OFFCURVE",
"271 11 CURVE SMOOTH",
"367 11 OFFCURVE",
"432 60 OFFCURVE",
"454 149 CURVE",
"444 149 LINE",
"444 15 LINE SMOOTH",
"444 -91 OFFCURVE",
"391 -148 OFFCURVE",
"291 -148 CURVE SMOOTH",
"216 -148 OFFCURVE",
"168 -132 OFFCURVE",
"105 -85 CURVE",
"85 -119 LINE",
"141 -165 OFFCURVE",
"210 -188 OFFCURVE",
"290 -188 CURVE SMOOTH"
);
},
{
closed = 1;
nodes = (
"163 50 OFFCURVE",
"96 127 OFFCURVE",
"96 252 CURVE SMOOTH",
"96 377 OFFCURVE",
"163 453 OFFCURVE",
"270 453 CURVE SMOOTH",
"377 453 OFFCURVE",
"443 377 OFFCURVE",
"443 252 CURVE SMOOTH",
"443 127 OFFCURVE",
"377 50 OFFCURVE",
"270 50 CURVE SMOOTH"
);
}
);
width = 570;
}
);
leftKerningGroup = o;
leftMetricsKey = o;
rightKerningGroup = u;
rightMetricsKey = "=|n";
unicode = 0067;
userData = {
anchors = (
);
b = {
};
com.typemytype.robofont.layerData = {
b = {
anchors = (
);
components = (
);
contours = (
);
lib = {
};
name = g;
unicodes = (
);
width = 1167;
};
};
components = (
);
contours = (
);
lib = {
};
name = g;
unicodes = (
);
width = 1207;
};
},
{
color = 5;
glyphname = h;
lastChange = "2019-08-06 12:42:42 +0000";
layers = (
{
anchors = (
{
name = bottom;
position = "{322, 0}";
},
{
name = center;
position = "{322, 245}";
},
{
name = dot;
position = "{249, 353}";
},
{
name = stroke;
position = "{154, 580}";
},
{
name = top;
position = "{301, 705}";
},
{
name = topright;
position = "{192, 705}";
}
);
background = {
paths = (
{
closed = 0;
nodes = (
"153 285 LINE SMOOTH",
"153 370 OFFCURVE",
"229 453 OFFCURVE",
"335 453 CURVE SMOOTH",
"437 453 OFFCURVE",
"468 390 OFFCURVE",
"468 311 CURVE SMOOTH",
"468 0 LINE",
"520 0 LINE",
"520 315 LINE SMOOTH",
"520 438 OFFCURVE",
"460 502 OFFCURVE",
"335 502 CURVE SMOOTH",
"254 502 OFFCURVE",
"188 455 OFFCURVE",
"155 384 CURVE",
"150 384 LINE"
);
}
);
};
layerId = "B0DFB0A8-5D2F-4351-A1F8-6629D0DA694C";
paths = (
{
closed = 1;
nodes = (
"256 502 OFFCURVE",
"189 455 OFFCURVE",
"160 384 CURVE",
"155 384 LINE",
"155 705 LINE",
"103 705 LINE",
"103 0 LINE",
"155 0 LINE",
"155 285 LINE SMOOTH",
"155 370 OFFCURVE",
"231 453 OFFCURVE",
"337 453 CURVE SMOOTH",
"439 453 OFFCURVE",
"470 390 OFFCURVE",
"470 311 CURVE SMOOTH",
"470 0 LINE",
"522 0 LINE",
"522 315 LINE SMOOTH",
"522 438 OFFCURVE",
"462 502 OFFCURVE",
"337 502 CURVE SMOOTH"
);
}
);
width = 623;
},
{
anchors = (
{
name = bottom;
position = "{277, 0}";
},
{
name = center;
position = "{277, 245}";
},
{
name = dot;
position = "{204, 353}";
},
{
name = stroke;
position = "{157, 580}";
},
{
name = top;
position = "{278, 705}";
},
{
name = topright;
position = "{169, 705}";
}
);
background = {
anchors = (
{
name = bottom;
position = "{277, 0}";
},
{
name = center;
position = "{277, 245}";
},
{
name = dot;
position = "{204, 353}";
},
{
name = stroke;
position = "{157, 580}";
},
{
name = top;
position = "{278, 705}";
},
{
name = topright;
position = "{169, 705}";
}
);
paths = (
{
closed = 1;
nodes = (
"209 496 OFFCURVE",
"141 454 OFFCURVE",
"115 370 CURVE",
"127 370 LINE",
"127 705 LINE",
"85 705 LINE",
"85 0 LINE",
"127 0 LINE",
"127 282 LINE SMOOTH",
"127 388 OFFCURVE",
"194 456 OFFCURVE",
"297 456 CURVE SMOOTH",
"389 456 OFFCURVE",
"428 410 OFFCURVE",
"428 308 CURVE SMOOTH",
"428 0 LINE",
"470 0 LINE",
"470 312 LINE SMOOTH",
"470 434 OFFCURVE",
"411 496 OFFCURVE",
"294 496 CURVE SMOOTH"
);
}
);
};
layerId = "F1F93986-3ED8-4AAE-84C4-CA3EEECDDFA0";
paths = (
{
closed = 1;
nodes = (
"209 492 OFFCURVE",
"141 450 OFFCURVE",
"115 366 CURVE",
"127 366 LINE",
"127 705 LINE",
"85 705 LINE",
"85 0 LINE",
"127 0 LINE",
"127 278 LINE SMOOTH",
"127 384 OFFCURVE",
"194 453 OFFCURVE",
"297 453 CURVE SMOOTH",
"389 453 OFFCURVE",
"428 406 OFFCURVE",
"428 304 CURVE SMOOTH",
"428 0 LINE",
"470 0 LINE",
"470 308 LINE SMOOTH",
"470 430 OFFCURVE",
"411 492 OFFCURVE",
"294 492 CURVE SMOOTH"
);
}
);
width = 553;
}
);
leftKerningGroup = h;
leftMetricsKey = n;
rightKerningGroup = n;
rightMetricsKey = n;
unicode = 0068;
userData = {
anchors = (
);
b = {
};
com.typemytype.robofont.layerData = {
b = {
anchors = (
);
components = (
);
contours = (
);
lib = {
};
name = h;
unicodes = (
);
width = 1148;
};
};
components = (
);
contours = {
};
lib = {
};
name = h;
points = {
};
segmentType = curve;
unicodes = (
);
width = 1195;
x = 137;
y = 113;
};
},
{
color = 5;
glyphname = idotless;
lastChange = "2019-08-06 12:42:42 +0000";
layers = (
{
anchors = (
{
name = bottom;
position = "{127, 0}";
},
{
name = ogonek;
position = "{148, 0}";
},
{
name = top;
position = "{127, 484}";
}
);
background = {
anchors = (
{
name = bottom;
position = "{109, 0}";
},
{
name = ogonek;
position = "{130, 0}";
},
{
name = top;
position = "{109, 484}";
}
);
paths = (
{
closed = 1;
nodes = (
"130 0 LINE",
"130 484 LINE",
"88 484 LINE",
"88 0 LINE"
);
}
);
};
layerId = "B0DFB0A8-5D2F-4351-A1F8-6629D0DA694C";
paths = (
{
closed = 1;
nodes = (
"155 0 LINE",
"155 494 LINE",
"103 494 LINE",
"103 0 LINE"
);
}
);
width = 258;
},
{
anchors = (
{
name = bottom;
position = "{106, 0}";
},
{
name = ogonek;
position = "{127, 0}";
},
{
name = top;
position = "{106, 484}";
}
);
background = {
anchors = (
{
name = bottom;
position = "{106, 0}";
},
{
name = ogonek;
position = "{127, 0}";
},
{
name = top;
position = "{106, 484}";
}
);
paths = (
{
closed = 1;
nodes = (
"127 0 LINE",
"127 484 LINE",
"85 484 LINE",
"85 0 LINE"
);
}
);
};
layerId = "F1F93986-3ED8-4AAE-84C4-CA3EEECDDFA0";
paths = (
{
closed = 1;
nodes = (
"127 0 LINE",
"127 484 LINE",
"85 484 LINE",
"85 0 LINE"
);
}
);
width = 212;
}
);
leftKerningGroup = n;
leftMetricsKey = n;
rightKerningGroup = u;
rightMetricsKey = "=|";
unicode = 0131;
},
{
color = 5;
glyphname = jdotless;
lastChange = "2019-08-06 12:42:42 +0000";
layers = (
{
anchors = (
{
name = bottom;
position = "{113, 0}";
},
{
name = top;
position = "{113, 484}";
}
);
background = {
anchors = (
{
name = bottom;
position = "{109, 0}";
},
{
name = top;
position = "{109, 484}";
}
);
paths = (
{
closed = 1;
nodes = (
"88 484 LINE",
"88 -22 LINE SMOOTH",
"88 -102 OFFCURVE",
"51 -147 OFFCURVE",
"-17 -152 CURVE SMOOTH",
"-58 -155 LINE",
"-55 -193 LINE",
"-12 -190 LINE SMOOTH",
"78 -184 OFFCURVE",
"130 -124 OFFCURVE",
"130 -21 CURVE SMOOTH",
"130 484 LINE"
);
}
);
};
layerId = "B0DFB0A8-5D2F-4351-A1F8-6629D0DA694C";
paths = (
{
closed = 1;
nodes = (
"90 494 LINE",
"90 -22 LINE SMOOTH",
"90 -100 OFFCURVE",
"51 -130 OFFCURVE",
"-15 -138 CURVE SMOOTH",
"-66 -144 LINE",
"-63 -193 LINE",
"-10 -187 LINE SMOOTH",
"85 -176 OFFCURVE",
"142 -124 OFFCURVE",
"142 -21 CURVE SMOOTH",
"142 494 LINE"
);
}
);
width = 229;
},
{
anchors = (
{
name = bottom;
position = "{109, 0}";
},
{
name = top;
position = "{109, 484}";
}
);
background = {
anchors = (
{
name = bottom;
position = "{109, 0}";
},
{
name = top;
position = "{109, 484}";
}
);
paths = (
{
closed = 1;
nodes = (
"88 484 LINE",
"88 -22 LINE SMOOTH",
"88 -102 OFFCURVE",
"51 -147 OFFCURVE",
"-17 -152 CURVE SMOOTH",
"-58 -155 LINE",
"-55 -193 LINE",
"-12 -190 LINE SMOOTH",
"78 -184 OFFCURVE",
"130 -124 OFFCURVE",
"130 -21 CURVE SMOOTH",
"130 484 LINE"
);
}
);
};
layerId = "F1F93986-3ED8-4AAE-84C4-CA3EEECDDFA0";
paths = (
{
closed = 1;
nodes = (
"88 484 LINE",
"88 -22 LINE SMOOTH",
"88 -102 OFFCURVE",
"51 -147 OFFCURVE",
"-17 -152 CURVE SMOOTH",
"-58 -155 LINE",
"-55 -193 LINE",
"-12 -190 LINE SMOOTH",
"78 -184 OFFCURVE",
"130 -123 OFFCURVE",
"130 -21 CURVE SMOOTH",
"130 484 LINE"
);
}
);
width = 215;
}
);
leftKerningGroup = n;
rightKerningGroup = l;
unicode = 0237;
},
{
color = 5;
glyphname = k;
lastChange = "2019-08-06 12:42:42 +0000";
layers = (
{
anchors = (
{
name = bottom;
position = "{241, 0}";
},
{
name = top;
position = "{241, 705}";
}
);
background = {
paths = (
{
closed = 1;
nodes = (
"158 270 LINE",
"158 231 LINE",
"444 484 LINE",
"385 484 LINE",
"132 258 LINE",
"132 705 LINE",
"90 705 LINE",
"90 0 LINE",
"132 0 LINE",
"132 239 LINE",
"413 0 LINE",
"474 0 LINE"
);
}
);
};
layerId = "B0DFB0A8-5D2F-4351-A1F8-6629D0DA694C";
paths = (
{
closed = 1;
nodes = (
"179 271 LINE",
"178 240 LINE",
"466 494 LINE",
"395 494 LINE",
"143 269 LINE",
"139 269 LINE",
"139 705 LINE",
"87 705 LINE",
"87 0 LINE",
"139 0 LINE",
"139 238 LINE",
"143 238 LINE",
"424 0 LINE",
"498 0 LINE"
);
}
);
width = 505;
},
{
anchors = (
{
name = bottom;
position = "{234, 0}";
},
{
name = top;
position = "{234, 705}";
}
);
background = {
anchors = (
{
name = bottom;
position = "{234, 0}";
},
{
name = top;
position = "{234, 705}";
}
);
paths = (
{
closed = 1;
nodes = (
"153 270 LINE",
"153 231 LINE",
"439 484 LINE",
"380 484 LINE",
"129 260 LINE",
"127 260 LINE",
"127 705 LINE",
"85 705 LINE",
"85 0 LINE",
"127 0 LINE",
"127 237 LINE",
"129 237 LINE",
"408 0 LINE",
"469 0 LINE"
);
}
);
};
layerId = "F1F93986-3ED8-4AAE-84C4-CA3EEECDDFA0";
paths = (
{
closed = 1;
nodes = (
"153 270 LINE",
"153 231 LINE",
"439 484 LINE",
"380 484 LINE",
"129 260 LINE",
"127 260 LINE",
"127 705 LINE",
"85 705 LINE",
"85 0 LINE",
"127 0 LINE",
"127 237 LINE",
"129 237 LINE",
"408 0 LINE",
"469 0 LINE"
);
}
);
width = 468;
}
);
leftKerningGroup = h;
leftMetricsKey = l;
rightKerningGroup = k;
unicode = 006B;
userData = {
com.typemytype.robofont.layerData = {
b = {
anchors = (
);
components = (
);
contours = (
{
points = (
{
segmentType = line;
smooth = 0;
x = 318;
y = 536;
},
{
segmentType = line;
smooth = 1;
x = 793;
y = 27;
},
{
smooth = 0;
x = 809;
y = 9;
},
{
smooth = 0;
x = 828;
y = 1;
},
{
segmentType = curve;
smooth = 1;
x = 845;
y = 1;
},
{
smooth = 0;
x = 883;
y = 1;
},
{
smooth = 0;
x = 922;
y = 33;
},
{
segmentType = curve;
smooth = 1;
x = 922;
y = 71;
},
{
smooth = 0;
x = 922;
y = 84;
},
{
smooth = 0;
x = 918;
y = 99;
},
{
segmentType = curve;
smooth = 1;
x = 906;
y = 112;
},
{
segmentType = line;
smooth = 0;
x = 492;
y = 554;
},
{
segmentType = line;
smooth = 1;
x = 873;
y = 889;
},
{
smooth = 0;
x = 888;
y = 902;
},
{
smooth = 0;
x = 894;
y = 918;
},
{
segmentType = curve;
smooth = 1;
x = 894;
y = 933;
},
{
smooth = 0;
x = 894;
y = 968;
},
{
smooth = 0;
x = 858;
y = 1002;
},
{
segmentType = curve;
smooth = 1;
x = 821;
y = 1002;
},
{
smooth = 0;
x = 802;
y = 1002;
},
{
smooth = 0;
x = 785;
y = 994;
},
{
segmentType = curve;
smooth = 0;
x = 770;
y = 979;
},
{
segmentType = line;
smooth = 0;
x = 318;
y = 574;
}
);
}
);
lib = {
};
name = k;
unicodes = (
);
width = 984;
};
};
};
},
{
color = 5;
glyphname = kgreenlandic;
lastChange = "2019-08-06 12:42:42 +0000";
layers = (
{
anchors = (
{
name = bottom;
position = "{284, 0}";
},
{
name = top;
position = "{284, 484}";
}
);
background = {
anchors = (
{
name = bottom;
position = "{282, 0}";
},
{
name = top;
position = "{282, 484}";
}
);
paths = (
{
closed = 1;
nodes = (
"201 270 LINE",
"201 231 LINE",
"487 484 LINE",
"428 484 LINE",
"175 258 LINE",
"175 484 LINE",
"133 484 LINE",
"133 0 LINE",
"175 0 LINE",
"175 239 LINE",
"456 0 LINE",
"517 0 LINE"
);
}
);
};
layerId = "B0DFB0A8-5D2F-4351-A1F8-6629D0DA694C";
paths = (
{
closed = 1;
nodes = (
"195 271 LINE",
"194 240 LINE",
"482 494 LINE",
"411 494 LINE",
"159 269 LINE",
"155 269 LINE",
"155 494 LINE",
"103 494 LINE",
"103 0 LINE",
"155 0 LINE",
"155 238 LINE",
"159 238 LINE",
"440 0 LINE",
"514 0 LINE"
);
}
);
width = 521;
},
{
anchors = (
{
name = bottom;
position = "{234, 0}";
},
{
name = top;
position = "{234, 484}";
}
);
background = {
anchors = (
{
name = bottom;
position = "{234, 0}";
},
{
name = top;
position = "{234, 484}";
}
);
paths = (
{
closed = 1;
nodes = (
"153 270 LINE",
"153 231 LINE",
"439 484 LINE",
"380 484 LINE",
"129 260 LINE",
"127 260 LINE",
"127 484 LINE",
"85 484 LINE",
"85 0 LINE",
"127 0 LINE",
"127 237 LINE",
"129 237 LINE",
"408 0 LINE",
"469 0 LINE"
);
}
);
};
layerId = "F1F93986-3ED8-4AAE-84C4-CA3EEECDDFA0";
paths = (
{
closed = 1;
nodes = (
"153 270 LINE",
"153 231 LINE",
"439 484 LINE",
"380 484 LINE",
"129 260 LINE",
"127 260 LINE",
"127 484 LINE",
"85 484 LINE",
"85 0 LINE",
"127 0 LINE",
"127 237 LINE",
"129 237 LINE",
"408 0 LINE",
"469 0 LINE"
);
}
);
width = 468;
}
);
leftKerningGroup = n;
leftMetricsKey = n;
rightKerningGroup = k;
rightMetricsKey = k;
unicode = 0138;
userData = {
com.typemytype.robofont.layerData = {
b = {
anchors = (
);
components = (
);
contours = (
);
lib = {
};
name = kgreenlandic;
unicodes = (
);
width = 1047;
};
};
};
},
{
color = 5;
glyphname = l;
lastChange = "2019-08-06 12:42:42 +0000";
layers = (
{
anchors = (
{
name = bottom;
position = "{150, 2}";
},
{
name = center;
position = "{116, 357}";
},
{
name = dot;
position = "{235, 353}";
},
{
name = top;
position = "{113, 705}";
},
{
name = topright;
position = "{189, 705}";
}
);
background = {
paths = (
{
closed = 1;
nodes = (
"137 0 LINE",
"137 705 LINE",
"85 705 LINE",
"85 0 LINE"
);
}
);
};
layerId = "B0DFB0A8-5D2F-4351-A1F8-6629D0DA694C";
paths = (
{
closed = 1;
nodes = (
"228 -6 OFFCURVE",
"264 -3 OFFCURVE",
"280 1 CURVE",
"282 49 LINE",
"265 46 OFFCURVE",
"228 43 OFFCURVE",
"216 43 CURVE SMOOTH",
"157 43 OFFCURVE",
"139 67 OFFCURVE",
"139 140 CURVE SMOOTH",
"139 705 LINE",
"87 705 LINE",
"87 131 LINE SMOOTH",
"87 37 OFFCURVE",
"129 -6 OFFCURVE",
"211 -6 CURVE SMOOTH"
);
}
);
width = 292;
},
{
anchors = (
{
name = bottom;
position = "{106, 0}";
},
{
name = center;
position = "{106, 357}";
},
{
name = dot;
position = "{214, 353}";
},
{
name = top;
position = "{106, 705}";
},
{
name = topright;
position = "{167, 705}";
}
);
background = {
anchors = (
{
name = bottom;
position = "{106, 0}";
},
{
name = center;
position = "{106, 357}";
},
{
name = dot;
position = "{214, 353}";
},
{
name = top;
position = "{106, 705}";
},
{
name = topright;
position = "{167, 705}";
}
);
paths = (
{
closed = 1;
nodes = (
"127 0 LINE",
"127 705 LINE",
"85 705 LINE",
"85 0 LINE"
);
}
);
};
layerId = "F1F93986-3ED8-4AAE-84C4-CA3EEECDDFA0";
paths = (
{
closed = 1;
nodes = (
"127 0 LINE",
"127 705 LINE",
"85 705 LINE",
"85 0 LINE"
);
}
);
width = 212;
}
);
leftKerningGroup = h;
rightKerningGroup = l;
unicode = 006C;
userData = {
com.typemytype.robofont.layerData = {
b = {
anchors = (
);
components = (
);
contours = (
);
lib = {
};
name = l;
unicodes = (
);
width = 511;
};
};
};
},
{
color = 5;
glyphname = m;
lastChange = "2019-08-06 12:42:42 +0000";
layers = (
{
anchors = (
{
name = bottom;
position = "{458, 0}";
},
{
name = top;
position = "{469, 484}";
}
);
background = {
paths = (
{
closed = 1;
nodes = (
"256 502 OFFCURVE",
"190 455 OFFCURVE",
"157 384 CURVE",
"152 384 LINE",
"152 494 LINE",
"103 494 LINE",
"103 0 LINE",
"155 0 LINE",
"155 285 LINE SMOOTH",
"155 370 OFFCURVE",
"231 453 OFFCURVE",
"337 453 CURVE SMOOTH",
"439 453 OFFCURVE",
"470 400 OFFCURVE",
"470 311 CURVE SMOOTH",
"470 0 LINE",
"522 0 LINE",
"522 315 LINE SMOOTH",
"522 438 OFFCURVE",
"462 502 OFFCURVE",
"337 502 CURVE SMOOTH"
);
}
);
};
layerId = "B0DFB0A8-5D2F-4351-A1F8-6629D0DA694C";
paths = (
{
closed = 1;
nodes = (
"569 504 OFFCURVE",
"506 449 OFFCURVE",
"490 384 CURVE",
"485 384 LINE",
"478 448 OFFCURVE",
"428 504 OFFCURVE",
"327 504 CURVE SMOOTH",
"230 504 OFFCURVE",
"179 430 OFFCURVE",
"159 384 CURVE",
"154 384 LINE",
"154 494 LINE",
"105 494 LINE",
"105 0 LINE",
"157 0 LINE",
"157 275 LINE SMOOTH",
"157 356 OFFCURVE",
"218 455 OFFCURVE",
"328 455 CURVE SMOOTH",
"425 455 OFFCURVE",
"445 400 OFFCURVE",
"445 308 CURVE SMOOTH",
"445 0 LINE",
"497 0 LINE",
"497 282 LINE SMOOTH",
"497 375 OFFCURVE",
"554 455 OFFCURVE",
"661 455 CURVE SMOOTH",
"756 455 OFFCURVE",
"785 402 OFFCURVE",
"785 308 CURVE SMOOTH",
"785 0 LINE",
"837 0 LINE",
"837 317 LINE SMOOTH",
"837 442 OFFCURVE",
"772 504 OFFCURVE",
"660 504 CURVE SMOOTH"
);
}
);
width = 940;
},
{
anchors = (
{
name = bottom;
position = "{420, 0}";
},
{
name = top;
position = "{420, 484}";
}
);
background = {
paths = (
{
closed = 1;
nodes = (
"211 492 OFFCURVE",
"140 446 OFFCURVE",
"117 364 CURVE",
"128 364 LINE",
"128 484 LINE",
"87 484 LINE",
"87 0 LINE",
"129 0 LINE",
"129 278 LINE SMOOTH",
"129 384 OFFCURVE",
"196 453 OFFCURVE",
"299 453 CURVE SMOOTH",
"391 453 OFFCURVE",
"430 406 OFFCURVE",
"430 304 CURVE SMOOTH",
"430 0 LINE",
"472 0 LINE",
"472 308 LINE SMOOTH",
"472 432 OFFCURVE",
"413 492 OFFCURVE",
"296 492 CURVE SMOOTH"
);
}
);
};
layerId = "F1F93986-3ED8-4AAE-84C4-CA3EEECDDFA0";
paths = (
{
closed = 1;
nodes = (
"507 492 OFFCURVE",
"439 442 OFFCURVE",
"420 365 CURVE",
"435 365 LINE",
"420 450 OFFCURVE",
"369 492 OFFCURVE",
"281 492 CURVE SMOOTH",
"201 492 OFFCURVE",
"141 448 OFFCURVE",
"118 363 CURVE",
"128 363 LINE",
"128 484 LINE",
"87 484 LINE",
"87 0 LINE",
"129 0 LINE",
"129 278 LINE SMOOTH",
"129 384 OFFCURVE",
"188 452 OFFCURVE",
"282 452 CURVE SMOOTH",
"365 452 OFFCURVE",
"399 406 OFFCURVE",
"399 304 CURVE SMOOTH",
"399 0 LINE",
"441 0 LINE",
"441 278 LINE SMOOTH",
"441 384 OFFCURVE",
"500 452 OFFCURVE",
"594 452 CURVE SMOOTH",
"677 452 OFFCURVE",
"711 406 OFFCURVE",
"711 304 CURVE SMOOTH",
"711 0 LINE",
"753 0 LINE",
"753 308 LINE SMOOTH",
"753 431 OFFCURVE",
"699 492 OFFCURVE",
"593 492 CURVE SMOOTH"
);
}
);
width = 838;
}
);
leftKerningGroup = n;
leftMetricsKey = "=n+2";
rightKerningGroup = n;
rightMetricsKey = "=n+2";
unicode = 006D;
userData = {
anchors = (
);
b = {
};
com.typemytype.robofont.layerData = {
b = {
anchors = (
);
components = (
);
contours = (
);
lib = {
};
name = m;
unicodes = (
);
width = 1838;
};
};
components = (
);
contours = (
);
lib = {
};
name = m;
unicodes = (
);
width = 1877;
};
},
{
color = 5;
glyphname = n;
lastChange = "2019-08-06 12:42:42 +0000";
layers = (
{
anchors = (
{
name = bottom;
position = "{308, 0}";
},
{
name = top;
position = "{329, 484}";
}
);
layerId = "B0DFB0A8-5D2F-4351-A1F8-6629D0DA694C";
paths = (
{
closed = 1;
nodes = (
"256 502 OFFCURVE",
"190 455 OFFCURVE",
"157 384 CURVE",
"152 384 LINE",
"152 494 LINE",
"103 494 LINE",
"103 0 LINE",
"155 0 LINE",
"155 285 LINE SMOOTH",
"155 370 OFFCURVE",
"231 453 OFFCURVE",
"337 453 CURVE SMOOTH",
"439 453 OFFCURVE",
"470 390 OFFCURVE",
"470 311 CURVE SMOOTH",
"470 0 LINE",
"522 0 LINE",
"522 315 LINE SMOOTH",
"522 438 OFFCURVE",
"462 502 OFFCURVE",
"337 502 CURVE SMOOTH"
);
}
);
width = 623;
},
{
anchors = (
{
name = bottom;
position = "{277, 0}";
},
{
name = top;
position = "{277, 484}";
}
);
background = {
paths = (
{
closed = 1;
nodes = (
"209 492 OFFCURVE",
"139 449 OFFCURVE",
"115 364 CURVE",
"126 364 LINE",
"126 484 LINE",
"85 484 LINE",
"85 0 LINE",
"127 0 LINE",
"127 278 LINE SMOOTH",
"127 384 OFFCURVE",
"194 452 OFFCURVE",
"297 452 CURVE SMOOTH",
"389 452 OFFCURVE",
"428 406 OFFCURVE",
"428 304 CURVE SMOOTH",
"428 0 LINE",
"470 0 LINE",
"470 308 LINE SMOOTH",
"470 430 OFFCURVE",
"411 492 OFFCURVE",
"294 492 CURVE SMOOTH"
);
}
);
};
layerId = "F1F93986-3ED8-4AAE-84C4-CA3EEECDDFA0";
paths = (
{
closed = 1;
nodes = (
"209 492 OFFCURVE",
"138 446 OFFCURVE",
"115 364 CURVE",
"126 364 LINE",
"126 484 LINE",
"85 484 LINE",
"85 0 LINE",
"127 0 LINE",
"127 278 LINE SMOOTH",
"127 384 OFFCURVE",
"194 453 OFFCURVE",
"297 453 CURVE SMOOTH",
"389 453 OFFCURVE",
"428 406 OFFCURVE",
"428 304 CURVE SMOOTH",
"428 0 LINE",
"470 0 LINE",
"470 308 LINE SMOOTH",
"470 432 OFFCURVE",
"411 492 OFFCURVE",
"294 492 CURVE SMOOTH"
);
}
);
width = 553;
}
);
leftKerningGroup = n;
rightKerningGroup = n;
unicode = 006E;
userData = {
anchors = (
);
b = {
};
com.typemytype.robofont.layerData = {
b = {
anchors = (
);
components = (
);
contours = (
);
lib = {
};
name = n;
unicodes = (
);
width = 1152;
};
};
components = (
);
contours = {
};
lib = {
};
name = n;
points = {
};
segmentType = curve;
unicodes = (
);
width = 1195;
x = 137;
y = 113;
};
},
{
color = 5;
glyphname = eng;
lastChange = "2019-08-06 12:42:42 +0000";
layers = (
{
background = {
paths = (
{
closed = 1;
nodes = (
"486 312 LINE SMOOTH",
"486 434 OFFCURVE",
"427 496 OFFCURVE",
"310 496 CURVE SMOOTH",
"225 496 OFFCURVE",
"155 453 OFFCURVE",
"131 368 CURVE",
"142 368 LINE",
"142 484 LINE",
"101 484 LINE",
"101 0 LINE",
"143 0 LINE",
"143 282 LINE SMOOTH",
"143 388 OFFCURVE",
"210 456 OFFCURVE",
"313 456 CURVE SMOOTH",
"405 456 OFFCURVE",
"444 410 OFFCURVE",
"444 308 CURVE SMOOTH",
"444 -22 LINE SMOOTH",
"444 -102 OFFCURVE",
"407 -147 OFFCURVE",
"339 -152 CURVE SMOOTH",
"298 -155 LINE",
"301 -193 LINE",
"344 -190 LINE SMOOTH",
"434 -184 OFFCURVE",
"486 -124 OFFCURVE",
"486 -21 CURVE SMOOTH"
);
}
);
};
layerId = "B0DFB0A8-5D2F-4351-A1F8-6629D0DA694C";
paths = (
{
closed = 1;
nodes = (
"522 315 LINE SMOOTH",
"522 438 OFFCURVE",
"462 502 OFFCURVE",
"337 502 CURVE SMOOTH",
"256 502 OFFCURVE",
"190 455 OFFCURVE",
"157 384 CURVE",
"152 384 LINE",
"152 494 LINE",
"103 494 LINE",
"103 0 LINE",
"155 0 LINE",
"155 285 LINE SMOOTH",
"155 370 OFFCURVE",
"231 453 OFFCURVE",
"337 453 CURVE SMOOTH",
"439 453 OFFCURVE",
"470 390 OFFCURVE",
"470 311 CURVE SMOOTH",
"470 -22 LINE SMOOTH",
"470 -100 OFFCURVE",
"431 -130 OFFCURVE",
"365 -138 CURVE SMOOTH",
"314 -144 LINE",
"317 -193 LINE",
"370 -187 LINE SMOOTH",
"465 -176 OFFCURVE",
"522 -124 OFFCURVE",
"522 -21 CURVE SMOOTH"
);
}
);
width = 623;
},
{
background = {
paths = (
{
closed = 1;
nodes = (
"209 492 OFFCURVE",
"138 446 OFFCURVE",
"115 364 CURVE",
"126 364 LINE",
"126 484 LINE",
"85 484 LINE",
"85 0 LINE",
"127 0 LINE",
"127 278 LINE SMOOTH",
"127 384 OFFCURVE",
"194 453 OFFCURVE",
"297 453 CURVE SMOOTH",
"389 453 OFFCURVE",
"428 406 OFFCURVE",
"428 304 CURVE SMOOTH",
"428 0 LINE",
"470 0 LINE",
"470 308 LINE SMOOTH",
"470 432 OFFCURVE",
"411 492 OFFCURVE",
"294 492 CURVE SMOOTH"
);
}
);
};
layerId = "F1F93986-3ED8-4AAE-84C4-CA3EEECDDFA0";
paths = (
{
closed = 1;
nodes = (
"470 308 LINE SMOOTH",
"470 432 OFFCURVE",
"411 492 OFFCURVE",
"294 492 CURVE SMOOTH",
"209 492 OFFCURVE",
"138 446 OFFCURVE",
"115 364 CURVE",
"126 364 LINE",
"126 484 LINE",
"85 484 LINE",
"85 0 LINE",
"127 0 LINE",
"127 278 LINE SMOOTH",
"127 384 OFFCURVE",
"194 453 OFFCURVE",
"297 453 CURVE SMOOTH",
"389 453 OFFCURVE",
"428 406 OFFCURVE",
"428 304 CURVE SMOOTH",
"428 -22 LINE SMOOTH",
"428 -102 OFFCURVE",
"391 -147 OFFCURVE",
"323 -152 CURVE SMOOTH",
"282 -155 LINE",
"285 -193 LINE",
"328 -190 LINE SMOOTH",
"418 -184 OFFCURVE",
"470 -123 OFFCURVE",
"470 -21 CURVE SMOOTH"
);
}
);
width = 553;
}
);
leftKerningGroup = n;
leftMetricsKey = n;
widthMetricsKey = n;
rightKerningGroup = n;
unicode = 014B;
},
{
color = 5;
glyphname = o;
lastChange = "2019-08-06 12:42:42 +0000";
layers = (
{
anchors = (
{
name = bottom;
position = "{312, -10}";
},
{
name = center;
position = "{305, 259}";
},
{
name = ogonek;
position = "{375, 0}";
},
{
name = top;
position = "{313, 484}";
},
{
name = topright;
position = "{361, 484}";
}
);
background = {
anchors = (
{
name = bottom;
position = "{277, 0}";
},
{
name = center;
position = "{277, 245}";
},
{
name = ogonek;
position = "{336, 0}";
},
{
name = top;
position = "{277, 484}";
},
{
name = topright;
position = "{323, 484}";
}
);
paths = (
{
closed = 1;
nodes = (
"407 -7 OFFCURVE",
"493 92 OFFCURVE",
"493 245 CURVE SMOOTH",
"493 397 OFFCURVE",
"407 496 OFFCURVE",
"277 496 CURVE SMOOTH",
"147 496 OFFCURVE",
"61 397 OFFCURVE",
"61 245 CURVE SMOOTH",
"61 92 OFFCURVE",
"147 -7 OFFCURVE",
"277 -7 CURVE SMOOTH"
);
},
{
closed = 1;
nodes = (
"168 34 OFFCURVE",
"106 109 OFFCURVE",
"106 245 CURVE SMOOTH",
"106 377 OFFCURVE",
"170 455 OFFCURVE",
"277 455 CURVE SMOOTH",
"384 455 OFFCURVE",
"448 377 OFFCURVE",
"448 245 CURVE SMOOTH",
"448 109 OFFCURVE",
"386 34 OFFCURVE",
"276 34 CURVE SMOOTH"
);
}
);
};
layerId = "B0DFB0A8-5D2F-4351-A1F8-6629D0DA694C";
paths = (
{
closed = 1;
nodes = (
"463 -8 OFFCURVE",
"553 87 OFFCURVE",
"553 248 CURVE SMOOTH",
"553 408 OFFCURVE",
"463 502 OFFCURVE",
"312 502 CURVE SMOOTH",
"161 502 OFFCURVE",
"71 408 OFFCURVE",
"71 248 CURVE SMOOTH",
"71 87 OFFCURVE",
"161 -8 OFFCURVE",
"312 -8 CURVE SMOOTH"
);
},
{
closed = 1;
nodes = (
"194 41 OFFCURVE",
"124 110 OFFCURVE",
"124 248 CURVE SMOOTH",
"124 381 OFFCURVE",
"198 453 OFFCURVE",
"312 453 CURVE SMOOTH",
"427 453 OFFCURVE",
"500 382 OFFCURVE",
"500 248 CURVE SMOOTH",
"500 110 OFFCURVE",
"429 41 OFFCURVE",
"311 41 CURVE SMOOTH"
);
}
);
width = 624;
},
{
anchors = (
{
name = bottom;
position = "{269, 0}";
},
{
name = center;
position = "{269, 242}";
},
{
name = ogonek;
position = "{328, 0}";
},
{
name = top;
position = "{269, 484}";
},
{
name = topright;
position = "{315, 484}";
}
);
background = {
paths = (
{
closed = 1;
nodes = (
"399 -8 OFFCURVE",
"485 90 OFFCURVE",
"485 242 CURVE SMOOTH",
"485 394 OFFCURVE",
"399 492 OFFCURVE",
"269 492 CURVE SMOOTH",
"139 492 OFFCURVE",
"53 394 OFFCURVE",
"53 242 CURVE SMOOTH",
"53 90 OFFCURVE",
"139 -8 OFFCURVE",
"269 -8 CURVE SMOOTH"
);
},
{
closed = 1;
nodes = (
"160 33 OFFCURVE",
"98 107 OFFCURVE",
"98 242 CURVE SMOOTH",
"98 374 OFFCURVE",
"162 451 OFFCURVE",
"269 451 CURVE SMOOTH",
"376 451 OFFCURVE",
"440 374 OFFCURVE",
"440 242 CURVE SMOOTH",
"440 107 OFFCURVE",
"378 33 OFFCURVE",
"268 33 CURVE SMOOTH"
);
}
);
};
layerId = "F1F93986-3ED8-4AAE-84C4-CA3EEECDDFA0";
paths = (
{
closed = 1;
nodes = (
"402 -8 OFFCURVE",
"485 90 OFFCURVE",
"485 242 CURVE SMOOTH",
"485 394 OFFCURVE",
"402 492 OFFCURVE",
"269 492 CURVE SMOOTH",
"136 492 OFFCURVE",
"53 394 OFFCURVE",
"53 242 CURVE SMOOTH",
"53 90 OFFCURVE",
"136 -8 OFFCURVE",
"269 -8 CURVE SMOOTH"
);
},
{
closed = 1;
nodes = (
"160 31 OFFCURVE",
"96 106 OFFCURVE",
"96 242 CURVE SMOOTH",
"96 375 OFFCURVE",
"162 453 OFFCURVE",
"269 453 CURVE SMOOTH",
"376 453 OFFCURVE",
"442 375 OFFCURVE",
"442 242 CURVE SMOOTH",
"442 106 OFFCURVE",
"376 31 OFFCURVE",
"268 31 CURVE SMOOTH"
);
}
);
width = 538;
}
);
leftKerningGroup = o;
rightKerningGroup = o;
unicode = 006F;
userData = {
anchors = (
);
b = {
};
com.typemytype.robofont.guides = (
);
com.typemytype.robofont.layerData = {
b = {
anchors = (
);
components = (
);
contours = (
);
lib = {
};
name = o;
unicodes = (
);
width = 1144;
};
};
components = (
);
contours = (
);
lib = {
};
name = o;
unicodes = (
);
width = 1199;
};
},
{
color = 5;
glyphname = oe;
lastChange = "2019-08-06 12:42:42 +0000";
layers = (
{
anchors = (
{
name = bottom;
position = "{528, 0}";
},
{
name = top;
position = "{528, 484}";
}
);
background = {
paths = (
{
closed = 0;
nodes = (
"743 454 LINE SMOOTH",
"875 454 OFFCURVE",
"922 380 OFFCURVE",
"916 243 CURVE",
"961 281 LINE"
);
},
{
closed = 0;
nodes = (
"967 234 LINE",
"967 268 LINE SMOOTH",
"967 416 OFFCURVE",
"892 502 OFFCURVE",
"744 502 CURVE SMOOTH"
);
}
);
};
layerId = "B0DFB0A8-5D2F-4351-A1F8-6629D0DA694C";
paths = (
{
closed = 1;
nodes = (
"413 -8 OFFCURVE",
"489 34 OFFCURVE",
"526 111 CURVE",
"530 111 LINE",
"570 33 OFFCURVE",
"648 -8 OFFCURVE",
"756 -8 CURVE SMOOTH",
"840 -8 OFFCURVE",
"909 15 OFFCURVE",
"960 60 CURVE",
"939 102 LINE",
"885 56 OFFCURVE",
"827 41 OFFCURVE",
"754 41 CURVE SMOOTH",
"633 41 OFFCURVE",
"553 114 OFFCURVE",
"553 248 CURVE SMOOTH",
"553 256 LINE SMOOTH",
"553 379 OFFCURVE",
"635 454 OFFCURVE",
"745 454 CURVE SMOOTH",
"870 454 OFFCURVE",
"919 388 OFFCURVE",
"919 265 CURVE",
"963 281 LINE",
"534 281 LINE",
"534 234 LINE",
"969 234 LINE",
"969 268 LINE SMOOTH",
"969 416 OFFCURVE",
"894 502 OFFCURVE",
"746 502 CURVE SMOOTH",
"646 502 OFFCURVE",
"568 458 OFFCURVE",
"529 381 CURVE",
"525 381 LINE",
"487 460 OFFCURVE",
"413 502 OFFCURVE",
"312 502 CURVE SMOOTH",
"161 502 OFFCURVE",
"71 408 OFFCURVE",
"71 248 CURVE SMOOTH",
"71 87 OFFCURVE",
"161 -8 OFFCURVE",
"312 -8 CURVE SMOOTH"
);
},
{
closed = 1;
nodes = (
"194 41 OFFCURVE",
"124 110 OFFCURVE",
"124 248 CURVE SMOOTH",
"124 381 OFFCURVE",
"198 453 OFFCURVE",
"312 453 CURVE SMOOTH",
"427 453 OFFCURVE",
"500 379 OFFCURVE",
"500 248 CURVE SMOOTH",
"500 110 OFFCURVE",
"429 41 OFFCURVE",
"311 41 CURVE SMOOTH"
);
}
);
width = 1035;
},
{
anchors = (
{
name = bottom;
position = "{464, 0}";
},
{
name = top;
position = "{464, 484}";
}
);
background = {
paths = (
{
closed = 1;
nodes = (
"402 -8 OFFCURVE",
"485 90 OFFCURVE",
"485 242 CURVE SMOOTH",
"485 394 OFFCURVE",
"402 492 OFFCURVE",
"269 492 CURVE SMOOTH",
"136 492 OFFCURVE",
"53 394 OFFCURVE",
"53 242 CURVE SMOOTH",
"53 90 OFFCURVE",
"136 -8 OFFCURVE",
"269 -8 CURVE SMOOTH"
);
},
{
closed = 1;
nodes = (
"160 31 OFFCURVE",
"96 106 OFFCURVE",
"96 242 CURVE SMOOTH",
"96 375 OFFCURVE",
"162 453 OFFCURVE",
"269 453 CURVE SMOOTH",
"376 453 OFFCURVE",
"442 375 OFFCURVE",
"442 242 CURVE SMOOTH",
"442 106 OFFCURVE",
"376 31 OFFCURVE",
"268 31 CURVE SMOOTH"
);
}
);
};
layerId = "F1F93986-3ED8-4AAE-84C4-CA3EEECDDFA0";
paths = (
{
closed = 1;
nodes = (
"372 -8 OFFCURVE",
"446 55 OFFCURVE",
"471 160 CURVE",
"453 160 LINE",
"478 50 OFFCURVE",
"557 -8 OFFCURVE",
"673 -8 CURVE SMOOTH",
"741 -8 OFFCURVE",
"810 18 OFFCURVE",
"850 60 CURVE",
"830 96 LINE",
"778 52 OFFCURVE",
"728 33 OFFCURVE",
"669 33 CURVE SMOOTH",
"551 33 OFFCURVE",
"486 109 OFFCURVE",
"486 240 CURVE SMOOTH",
"486 246 LINE SMOOTH",
"486 373 OFFCURVE",
"554 453 OFFCURVE",
"661 453 CURVE SMOOTH",
"765 453 OFFCURVE",
"818 382 OFFCURVE",
"818 262 CURVE",
"835 275 LINE",
"466 275 LINE",
"466 237 LINE",
"858 237 LINE",
"858 263 LINE SMOOTH",
"858 406 OFFCURVE",
"786 492 OFFCURVE",
"665 492 CURVE SMOOTH",
"556 492 OFFCURVE",
"480 429 OFFCURVE",
"454 321 CURVE",
"473 321 LINE",
"448 428 OFFCURVE",
"374 492 OFFCURVE",
"270 492 CURVE SMOOTH",
"136 492 OFFCURVE",
"53 394 OFFCURVE",
"53 243 CURVE SMOOTH",
"53 90 OFFCURVE",
"136 -8 OFFCURVE",
"269 -8 CURVE SMOOTH"
);
},
{
closed = 1;
nodes = (
"160 31 OFFCURVE",
"96 106 OFFCURVE",
"96 242 CURVE SMOOTH",
"96 375 OFFCURVE",
"162 453 OFFCURVE",
"269 453 CURVE SMOOTH",
"376 453 OFFCURVE",
"442 375 OFFCURVE",
"442 242 CURVE SMOOTH",
"442 106 OFFCURVE",
"376 31 OFFCURVE",
"268 31 CURVE SMOOTH"
);
}
);
width = 906;
}
);
leftKerningGroup = o;
leftMetricsKey = o;
rightKerningGroup = e;
rightMetricsKey = e;
unicode = 0153;
},
{
color = 5;
glyphname = p;
lastChange = "2019-08-06 12:42:42 +0000";
layers = (
{
anchors = (
{
name = bottom;
position = "{328, 0}";
},
{
name = top;
position = "{332, 484}";
}
);
background = {
paths = (
{
closed = 1;
nodes = (
"239 502 OFFCURVE",
"178 435 OFFCURVE",
"155 384 CURVE",
"150 384 LINE",
"150 494 LINE",
"101 494 LINE",
"101 -180 LINE",
"153 -180 LINE",
"153 110 LINE",
"158 110 LINE",
"180 57 OFFCURVE",
"239 -8 OFFCURVE",
"347 -8 CURVE SMOOTH",
"486 -8 OFFCURVE",
"584 84 OFFCURVE",
"584 247 CURVE SMOOTH",
"584 410 OFFCURVE",
"486 502 OFFCURVE",
"347 502 CURVE SMOOTH"
);
},
{
closed = 1;
nodes = (
"462 453 OFFCURVE",
"531 385 OFFCURVE",
"531 247 CURVE SMOOTH",
"531 113 OFFCURVE",
"462 41 OFFCURVE",
"346 41 CURVE SMOOTH",
"228 41 OFFCURVE",
"153 120 OFFCURVE",
"153 247 CURVE SMOOTH",
"153 376 OFFCURVE",
"228 453 OFFCURVE",
"346 453 CURVE SMOOTH"
);
}
);
};
layerId = "B0DFB0A8-5D2F-4351-A1F8-6629D0DA694C";
paths = (
{
closed = 1;
nodes = (
"241 502 OFFCURVE",
"179 435 OFFCURVE",
"157 384 CURVE",
"152 384 LINE",
"152 494 LINE",
"103 494 LINE",
"103 -180 LINE",
"155 -180 LINE",
"155 108 LINE",
"160 108 LINE",
"182 55 OFFCURVE",
"241 -8 OFFCURVE",
"349 -8 CURVE SMOOTH",
"487 -8 OFFCURVE",
"584 80 OFFCURVE",
"584 247 CURVE SMOOTH",
"584 410 OFFCURVE",
"488 502 OFFCURVE",
"349 502 CURVE SMOOTH"
);
},
{
closed = 1;
nodes = (
"460 453 OFFCURVE",
"531 384 OFFCURVE",
"531 246 CURVE SMOOTH",
"531 112 OFFCURVE",
"458 41 OFFCURVE",
"343 41 CURVE SMOOTH",
"229 41 OFFCURVE",
"155 113 OFFCURVE",
"155 246 CURVE SMOOTH",
"155 384 OFFCURVE",
"225 453 OFFCURVE",
"342 453 CURVE SMOOTH"
);
}
);
width = 655;
},
{
anchors = (
{
name = bottom;
position = "{282, 0}";
},
{
name = top;
position = "{282, 484}";
}
);
background = {
paths = (
{
closed = 1;
nodes = (
"432 -8 OFFCURVE",
"515 90 OFFCURVE",
"515 242 CURVE SMOOTH",
"515 394 OFFCURVE",
"432 492 OFFCURVE",
"299 492 CURVE SMOOTH",
"166 492 OFFCURVE",
"83 394 OFFCURVE",
"83 242 CURVE SMOOTH",
"83 90 OFFCURVE",
"166 -8 OFFCURVE",
"299 -8 CURVE SMOOTH"
);
},
{
closed = 1;
nodes = (
"190 31 OFFCURVE",
"126 106 OFFCURVE",
"126 242 CURVE SMOOTH",
"126 375 OFFCURVE",
"192 453 OFFCURVE",
"299 453 CURVE SMOOTH",
"406 453 OFFCURVE",
"472 375 OFFCURVE",
"472 242 CURVE SMOOTH",
"472 106 OFFCURVE",
"406 31 OFFCURVE",
"298 31 CURVE SMOOTH"
);
}
);
};
layerId = "F1F93986-3ED8-4AAE-84C4-CA3EEECDDFA0";
paths = (
{
closed = 1;
nodes = (
"204 492 OFFCURVE",
"139 442 OFFCURVE",
"116 358 CURVE",
"127 358 LINE",
"127 484 LINE",
"85 484 LINE",
"85 -180 LINE",
"127 -180 LINE",
"127 126 LINE",
"116 126 LINE",
"139 42 OFFCURVE",
"204 -8 OFFCURVE",
"298 -8 CURVE SMOOTH",
"432 -8 OFFCURVE",
"515 89 OFFCURVE",
"515 242 CURVE SMOOTH",
"515 395 OFFCURVE",
"431 492 OFFCURVE",
"298 492 CURVE SMOOTH"
);
},
{
closed = 1;
nodes = (
"406 453 OFFCURVE",
"472 375 OFFCURVE",
"472 242 CURVE SMOOTH",
"472 106 OFFCURVE",
"406 31 OFFCURVE",
"299 31 CURVE SMOOTH",
"190 31 OFFCURVE",
"126 106 OFFCURVE",
"126 242 CURVE SMOOTH",
"126 375 OFFCURVE",
"192 453 OFFCURVE",
"300 453 CURVE SMOOTH"
);
}
);
width = 568;
}
);
leftKerningGroup = n;
leftMetricsKey = n;
rightKerningGroup = o;
rightMetricsKey = o;
unicode = 0070;
userData = {
anchors = (
);
b = {
};
com.typemytype.robofont.layerData = {
b = {
anchors = (
);
components = (
);
contours = (
);
lib = {
};
name = p;
unicodes = (
);
width = 1181;
};
};
components = (
);
contours = (
);
lib = {
};
name = p;
unicodes = (
);
width = 1207;
};
},
{
color = 5;
glyphname = thorn;
lastChange = "2019-08-06 12:42:42 +0000";
layers = (
{
anchors = (
{
name = bottom;
position = "{349, 0}";
},
{
name = top;
position = "{349, 484}";
}
);
background = {
anchors = (
{
name = bottom;
position = "{297, 0}";
},
{
name = top;
position = "{297, 484}";
}
);
paths = (
{
closed = 1;
nodes = (
"220 496 OFFCURVE",
"155 448 OFFCURVE",
"132 361 CURVE",
"143 361 LINE",
"143 705 LINE",
"101 705 LINE",
"101 -180 LINE",
"143 -180 LINE",
"143 129 LINE",
"132 129 LINE",
"155 41 OFFCURVE",
"220 -7 OFFCURVE",
"313 -7 CURVE SMOOTH",
"442 -7 OFFCURVE",
"529 94 OFFCURVE",
"529 247 CURVE SMOOTH",
"529 398 OFFCURVE",
"443 496 OFFCURVE",
"313 496 CURVE SMOOTH"
);
},
{
closed = 1;
nodes = (
"203 34 OFFCURVE",
"143 111 OFFCURVE",
"143 245 CURVE SMOOTH",
"143 378 OFFCURVE",
"203 455 OFFCURVE",
"312 455 CURVE SMOOTH",
"421 455 OFFCURVE",
"484 379 OFFCURVE",
"484 247 CURVE SMOOTH",
"484 113 OFFCURVE",
"421 34 OFFCURVE",
"314 34 CURVE SMOOTH"
);
}
);
};
layerId = "B0DFB0A8-5D2F-4351-A1F8-6629D0DA694C";
paths = (
{
closed = 1;
nodes = (
"241 502 OFFCURVE",
"179 435 OFFCURVE",
"157 384 CURVE",
"152 384 LINE",
"152 705 LINE",
"103 705 LINE",
"103 -180 LINE",
"155 -180 LINE",
"155 108 LINE",
"160 108 LINE",
"182 55 OFFCURVE",
"241 -8 OFFCURVE",
"349 -8 CURVE SMOOTH",
"487 -8 OFFCURVE",
"584 80 OFFCURVE",
"584 247 CURVE SMOOTH",
"584 410 OFFCURVE",
"488 502 OFFCURVE",
"349 502 CURVE SMOOTH"
);
},
{
closed = 1;
nodes = (
"460 453 OFFCURVE",
"531 384 OFFCURVE",
"531 246 CURVE SMOOTH",
"531 112 OFFCURVE",
"458 41 OFFCURVE",
"343 41 CURVE SMOOTH",
"229 41 OFFCURVE",
"155 113 OFFCURVE",
"155 246 CURVE SMOOTH",
"155 384 OFFCURVE",
"225 453 OFFCURVE",
"342 453 CURVE SMOOTH"
);
}
);
width = 655;
},
{
anchors = (
{
name = bottom;
position = "{281, 0}";
},
{
name = top;
position = "{281, 484}";
}
);
background = {
paths = (
{
closed = 1;
nodes = (
"432 -8 OFFCURVE",
"515 90 OFFCURVE",
"515 242 CURVE SMOOTH",
"515 394 OFFCURVE",
"432 492 OFFCURVE",
"299 492 CURVE SMOOTH",
"166 492 OFFCURVE",
"83 394 OFFCURVE",
"83 242 CURVE SMOOTH",
"83 90 OFFCURVE",
"166 -8 OFFCURVE",
"299 -8 CURVE SMOOTH"
);
},
{
closed = 1;
nodes = (
"190 31 OFFCURVE",
"126 106 OFFCURVE",
"126 242 CURVE SMOOTH",
"126 375 OFFCURVE",
"192 453 OFFCURVE",
"299 453 CURVE SMOOTH",
"406 453 OFFCURVE",
"472 375 OFFCURVE",
"472 242 CURVE SMOOTH",
"472 106 OFFCURVE",
"406 31 OFFCURVE",
"298 31 CURVE SMOOTH"
);
}
);
};
layerId = "F1F93986-3ED8-4AAE-84C4-CA3EEECDDFA0";
paths = (
{
closed = 1;
nodes = (
"204 492 OFFCURVE",
"139 442 OFFCURVE",
"116 358 CURVE",
"127 358 LINE",
"127 705 LINE",
"85 705 LINE",
"85 -180 LINE",
"127 -180 LINE",
"127 126 LINE",
"116 126 LINE",
"139 42 OFFCURVE",
"204 -8 OFFCURVE",
"298 -8 CURVE SMOOTH",
"432 -8 OFFCURVE",
"515 89 OFFCURVE",
"515 242 CURVE SMOOTH",
"515 395 OFFCURVE",
"431 492 OFFCURVE",
"298 492 CURVE SMOOTH"
);
},
{
closed = 1;
nodes = (
"406 453 OFFCURVE",
"472 375 OFFCURVE",
"472 242 CURVE SMOOTH",
"472 106 OFFCURVE",
"406 31 OFFCURVE",
"298 31 CURVE SMOOTH",
"190 31 OFFCURVE",
"126 106 OFFCURVE",
"126 242 CURVE SMOOTH",
"126 375 OFFCURVE",
"192 453 OFFCURVE",
"300 453 CURVE SMOOTH"
);
}
);
width = 568;
}
);
leftKerningGroup = h;
leftMetricsKey = n;
rightKerningGroup = o;
rightMetricsKey = o;
unicode = 00FE;
},
{
color = 5;
glyphname = q;
lastChange = "2019-08-06 12:42:42 +0000";
layers = (
{
anchors = (
{
name = bottom;
position = "{322, 0}";
},
{
name = top;
position = "{322, 489}";
}
);
background = {
paths = (
{
closed = 1;
nodes = (
"165 502 OFFCURVE",
"67 410 OFFCURVE",
"67 247 CURVE SMOOTH",
"67 84 OFFCURVE",
"165 -8 OFFCURVE",
"304 -8 CURVE SMOOTH",
"412 -8 OFFCURVE",
"473 56 OFFCURVE",
"493 109 CURVE",
"498 109 LINE",
"498 -180 LINE",
"550 -180 LINE",
"550 494 LINE",
"501 494 LINE",
"501 383 LINE",
"496 383 LINE",
"474 434 OFFCURVE",
"412 502 OFFCURVE",
"304 502 CURVE SMOOTH"
);
},
{
closed = 1;
nodes = (
"423 453 OFFCURVE",
"498 376 OFFCURVE",
"498 247 CURVE SMOOTH",
"498 120 OFFCURVE",
"423 41 OFFCURVE",
"305 41 CURVE SMOOTH",
"189 41 OFFCURVE",
"120 113 OFFCURVE",
"120 247 CURVE SMOOTH",
"120 385 OFFCURVE",
"189 453 OFFCURVE",
"305 453 CURVE SMOOTH"
);
}
);
};
layerId = "B0DFB0A8-5D2F-4351-A1F8-6629D0DA694C";
paths = (
{
closed = 1;
nodes = (
"167 502 OFFCURVE",
"71 410 OFFCURVE",
"71 247 CURVE SMOOTH",
"71 80 OFFCURVE",
"168 -8 OFFCURVE",
"306 -8 CURVE SMOOTH",
"414 -8 OFFCURVE",
"473 55 OFFCURVE",
"495 108 CURVE",
"500 108 LINE",
"500 -180 LINE",
"552 -180 LINE",
"552 494 LINE",
"503 494 LINE",
"503 384 LINE",
"498 384 LINE",
"476 435 OFFCURVE",
"414 502 OFFCURVE",
"306 502 CURVE SMOOTH"
);
},
{
closed = 1;
nodes = (
"430 453 OFFCURVE",
"500 384 OFFCURVE",
"500 246 CURVE SMOOTH",
"500 113 OFFCURVE",
"426 41 OFFCURVE",
"312 41 CURVE SMOOTH",
"197 41 OFFCURVE",
"124 112 OFFCURVE",
"124 246 CURVE SMOOTH",
"124 384 OFFCURVE",
"195 453 OFFCURVE",
"313 453 CURVE SMOOTH"
);
}
);
width = 655;
},
{
anchors = (
{
name = bottom;
position = "{282, 0}";
},
{
name = top;
position = "{282, 489}";
}
);
background = {
paths = (
{
closed = 1;
nodes = (
"402 -8 OFFCURVE",
"485 90 OFFCURVE",
"485 242 CURVE SMOOTH",
"485 394 OFFCURVE",
"402 492 OFFCURVE",
"269 492 CURVE SMOOTH",
"136 492 OFFCURVE",
"53 394 OFFCURVE",
"53 242 CURVE SMOOTH",
"53 90 OFFCURVE",
"136 -8 OFFCURVE",
"269 -8 CURVE SMOOTH"
);
},
{
closed = 1;
nodes = (
"160 31 OFFCURVE",
"96 106 OFFCURVE",
"96 242 CURVE SMOOTH",
"96 375 OFFCURVE",
"162 453 OFFCURVE",
"269 453 CURVE SMOOTH",
"376 453 OFFCURVE",
"442 375 OFFCURVE",
"442 242 CURVE SMOOTH",
"442 106 OFFCURVE",
"376 31 OFFCURVE",
"268 31 CURVE SMOOTH"
);
}
);
};
layerId = "F1F93986-3ED8-4AAE-84C4-CA3EEECDDFA0";
paths = (
{
closed = 1;
nodes = (
"137 492 OFFCURVE",
"53 395 OFFCURVE",
"53 242 CURVE SMOOTH",
"53 89 OFFCURVE",
"136 -8 OFFCURVE",
"270 -8 CURVE SMOOTH",
"364 -8 OFFCURVE",
"429 42 OFFCURVE",
"452 126 CURVE",
"441 126 LINE",
"441 -180 LINE",
"483 -180 LINE",
"483 484 LINE",
"441 484 LINE",
"441 358 LINE",
"452 358 LINE",
"429 442 OFFCURVE",
"364 492 OFFCURVE",
"270 492 CURVE SMOOTH"
);
},
{
closed = 1;
nodes = (
"160 31 OFFCURVE",
"96 106 OFFCURVE",
"96 242 CURVE SMOOTH",
"96 375 OFFCURVE",
"162 453 OFFCURVE",
"269 453 CURVE SMOOTH",
"376 453 OFFCURVE",
"442 375 OFFCURVE",
"442 242 CURVE SMOOTH",
"442 106 OFFCURVE",
"376 31 OFFCURVE",
"268 31 CURVE SMOOTH"
);
}
);
width = 568;
}
);
leftKerningGroup = o;
leftMetricsKey = o;
rightKerningGroup = q;
rightMetricsKey = "=|n";
unicode = 0071;
userData = {
anchors = (
);
b = {
};
com.typemytype.robofont.layerData = {
b = {
anchors = (
);
components = (
);
contours = (
);
lib = {
};
name = p;
unicodes = (
);
width = 1181;
};
};
components = (
);
contours = (
);
lib = {
};
name = p;
unicodes = (
);
width = 1207;
};
},
{
color = 5;
glyphname = r;
lastChange = "2019-08-06 12:42:42 +0000";
layers = (
{
anchors = (
{
name = bottom;
position = "{130, 0}";
},
{
name = top;
position = "{232, 484}";
}
);
background = {
paths = (
{
closed = 1;
nodes = (
"134 0 LINE",
"134 295 LINE SMOOTH",
"134 391 OFFCURVE",
"194 448 OFFCURVE",
"297 459 CURVE SMOOTH",
"333 463 LINE",
"328 504 LINE",
"306 502 LINE SMOOTH",
"208 495 OFFCURVE",
"150 457 OFFCURVE",
"122 377 CURVE",
"133 377 LINE",
"133 494 LINE",
"90 494 LINE",
"90 0 LINE"
);
}
);
};
layerId = "B0DFB0A8-5D2F-4351-A1F8-6629D0DA694C";
paths = (
{
closed = 1;
nodes = (
"155 0 LINE",
"155 292 LINE SMOOTH",
"155 373 OFFCURVE",
"220 439 OFFCURVE",
"323 447 CURVE SMOOTH",
"389 452 LINE",
"384 502 LINE",
"341 500 LINE SMOOTH",
"256 496 OFFCURVE",
"182 455 OFFCURVE",
"158 390 CURVE",
"153 390 LINE",
"153 494 LINE",
"103 494 LINE",
"103 0 LINE"
);
}
);
width = 417;
},
{
anchors = (
{
name = bottom;
position = "{106, 0}";
},
{
name = top;
position = "{204, 484}";
}
);
background = {
anchors = (
{
name = bottom;
position = "{106, 0}";
},
{
name = top;
position = "{204, 484}";
}
);
paths = (
{
closed = 1;
nodes = (
"127 0 LINE",
"127 290 LINE SMOOTH",
"127 385 OFFCURVE",
"185 445 OFFCURVE",
"284 454 CURVE SMOOTH",
"318 458 LINE",
"313 496 LINE",
"292 494 LINE SMOOTH",
"198 487 OFFCURVE",
"143 450 OFFCURVE",
"116 371 CURVE",
"126 371 LINE",
"126 484 LINE",
"85 484 LINE",
"85 0 LINE"
);
}
);
};
layerId = "F1F93986-3ED8-4AAE-84C4-CA3EEECDDFA0";
paths = (
{
closed = 1;
nodes = (
"127 0 LINE",
"127 290 LINE SMOOTH",
"127 386 OFFCURVE",
"185 446 OFFCURVE",
"284 455 CURVE SMOOTH",
"318 458 LINE",
"313 496 LINE",
"292 494 LINE SMOOTH",
"196 485 OFFCURVE",
"144 450 OFFCURVE",
"116 371 CURVE",
"126 371 LINE",
"126 484 LINE",
"85 484 LINE",
"85 0 LINE"
);
}
);
width = 327;
}
);
leftKerningGroup = n;
leftMetricsKey = n;
rightKerningGroup = r;
unicode = 0072;
userData = {
anchors = (
);
b = {
};
com.typemytype.robofont.layerData = {
b = {
anchors = (
);
components = (
);
contours = (
);
lib = {
};
name = r;
unicodes = (
);
width = 715;
};
};
components = (
);
contours = (
);
lib = {
};
name = r;
unicodes = (
);
width = 763;
};
},
{
color = 5;
glyphname = s;
lastChange = "2019-08-06 12:42:42 +0000";
layers = (
{
anchors = (
{
name = bottom;
position = "{273, 0}";
},
{
name = top;
position = "{293, 484}";
}
);
background = {
anchors = (
{
name = bottom;
position = "{236, 0}";
},
{
name = top;
position = "{246, 484}";
}
);
paths = (
{
closed = 1;
nodes = (
"346 -7 OFFCURVE",
"417 45 OFFCURVE",
"417 128 CURVE SMOOTH",
"417 194 OFFCURVE",
"375 232 OFFCURVE",
"288 253 CURVE SMOOTH",
"205 273 LINE SMOOTH",
"143 288 OFFCURVE",
"117 313 OFFCURVE",
"117 359 CURVE SMOOTH",
"117 419 OFFCURVE",
"164 455 OFFCURVE",
"246 455 CURVE SMOOTH",
"300 455 OFFCURVE",
"347 436 OFFCURVE",
"388 396 CURVE",
"408 431 LINE",
"374 472 OFFCURVE",
"315 496 OFFCURVE",
"247 496 CURVE SMOOTH",
"142 496 OFFCURVE",
"73 441 OFFCURVE",
"73 358 CURVE SMOOTH",
"73 293 OFFCURVE",
"111 252 OFFCURVE",
"195 232 CURVE SMOOTH",
"278 212 LINE SMOOTH",
"344 196 OFFCURVE",
"373 172 OFFCURVE",
"373 126 CURVE SMOOTH",
"373 67 OFFCURVE",
"326 34 OFFCURVE",
"239 34 CURVE SMOOTH",
"181 34 OFFCURVE",
"126 50 OFFCURVE",
"77 93 CURVE",
"57 57 LINE",
"98 16 OFFCURVE",
"165 -7 OFFCURVE",
"236 -7 CURVE SMOOTH"
);
}
);
};
layerId = "B0DFB0A8-5D2F-4351-A1F8-6629D0DA694C";
paths = (
{
closed = 1;
nodes = (
"408 -8 OFFCURVE",
"487 45 OFFCURVE",
"487 129 CURVE SMOOTH",
"487 217 OFFCURVE",
"421 247 OFFCURVE",
"345 261 CURVE SMOOTH",
"235 281 LINE SMOOTH",
"176 292 OFFCURVE",
"140 308 OFFCURVE",
"140 365 CURVE SMOOTH",
"140 426 OFFCURVE",
"191 453 OFFCURVE",
"279 453 CURVE SMOOTH",
"337 453 OFFCURVE",
"409 437 OFFCURVE",
"454 396 CURVE",
"475 438 LINE",
"436 482 OFFCURVE",
"348 502 OFFCURVE",
"280 502 CURVE SMOOTH",
"158 502 OFFCURVE",
"88 448 OFFCURVE",
"88 364 CURVE SMOOTH",
"88 293 OFFCURVE",
"130 249 OFFCURVE",
"223 232 CURVE SMOOTH",
"333 212 LINE SMOOTH",
"390 202 OFFCURVE",
"435 188 OFFCURVE",
"435 127 CURVE SMOOTH",
"435 67 OFFCURVE",
"367 41 OFFCURVE",
"284 41 CURVE SMOOTH",
"221 41 OFFCURVE",
"147 55 OFFCURVE",
"95 99 CURVE",
"73 56 LINE",
"117 14 OFFCURVE",
"204 -8 OFFCURVE",
"281 -8 CURVE SMOOTH"
);
}
);
width = 559;
},
{
anchors = (
{
name = bottom;
position = "{236, 0}";
},
{
name = top;
position = "{246, 484}";
}
);
background = {
paths = (
{
closed = 1;
nodes = (
"346 -8 OFFCURVE",
"417 44 OFFCURVE",
"417 126 CURVE SMOOTH",
"417 191 OFFCURVE",
"375 229 OFFCURVE",
"288 250 CURVE SMOOTH",
"205 270 LINE SMOOTH",
"143 285 OFFCURVE",
"117 310 OFFCURVE",
"117 356 CURVE SMOOTH",
"117 415 OFFCURVE",
"164 451 OFFCURVE",
"246 451 CURVE SMOOTH",
"300 451 OFFCURVE",
"347 432 OFFCURVE",
"388 392 CURVE",
"408 427 LINE",
"374 468 OFFCURVE",
"315 492 OFFCURVE",
"247 492 CURVE SMOOTH",
"142 492 OFFCURVE",
"73 437 OFFCURVE",
"73 355 CURVE SMOOTH",
"73 290 OFFCURVE",
"111 249 OFFCURVE",
"195 229 CURVE SMOOTH",
"278 209 LINE SMOOTH",
"344 193 OFFCURVE",
"373 169 OFFCURVE",
"373 124 CURVE SMOOTH",
"373 66 OFFCURVE",
"326 33 OFFCURVE",
"239 33 CURVE SMOOTH",
"181 33 OFFCURVE",
"126 49 OFFCURVE",
"77 92 CURVE",
"57 56 LINE",
"98 15 OFFCURVE",
"165 -8 OFFCURVE",
"236 -8 CURVE SMOOTH"
);
}
);
};
layerId = "F1F93986-3ED8-4AAE-84C4-CA3EEECDDFA0";
paths = (
{
closed = 1;
nodes = (
"346 -8 OFFCURVE",
"417 44 OFFCURVE",
"417 126 CURVE SMOOTH",
"417 191 OFFCURVE",
"375 228 OFFCURVE",
"288 249 CURVE SMOOTH",
"205 269 LINE SMOOTH",
"143 284 OFFCURVE",
"117 310 OFFCURVE",
"117 356 CURVE SMOOTH",
"117 415 OFFCURVE",
"164 452 OFFCURVE",
"246 452 CURVE SMOOTH",
"300 452 OFFCURVE",
"349 433 OFFCURVE",
"388 393 CURVE",
"408 427 LINE",
"373 468 OFFCURVE",
"313 492 OFFCURVE",
"247 492 CURVE SMOOTH",
"142 492 OFFCURVE",
"73 437 OFFCURVE",
"73 355 CURVE SMOOTH",
"73 290 OFFCURVE",
"111 249 OFFCURVE",
"195 229 CURVE SMOOTH",
"278 209 LINE SMOOTH",
"344 193 OFFCURVE",
"373 169 OFFCURVE",
"373 124 CURVE SMOOTH",
"373 66 OFFCURVE",
"326 32 OFFCURVE",
"239 32 CURVE SMOOTH",
"181 32 OFFCURVE",
"125 48 OFFCURVE",
"77 90 CURVE",
"57 56 LINE",
"98 15 OFFCURVE",
"167 -8 OFFCURVE",
"236 -8 CURVE SMOOTH"
);
}
);
width = 475;
}
);
leftKerningGroup = s;
rightKerningGroup = s;
unicode = 0073;
userData = {
anchors = (
);
b = {
};
com.typemytype.robofont.layerData = {
b = {
anchors = (
);
components = (
);
contours = (
);
lib = {
};
name = s;
unicodes = (
);
width = 1007;
};
};
components = (
);
contours = (
);
lib = {
};
name = s;
unicodes = (
);
width = 1006.76001;
};
},
{
color = 5;
glyphname = germandbls;
lastChange = "2019-08-06 12:42:42 +0000";
layers = (
{
background = {
paths = (
{
closed = 1;
nodes = (
"127 0 LINE",
"127 496 LINE SMOOTH",
"127 607 OFFCURVE",
"183 668 OFFCURVE",
"285 668 CURVE SMOOTH",
"349 668 OFFCURVE",
"387 639 OFFCURVE",
"387 589 CURVE SMOOTH",
"387 554 OFFCURVE",
"370 523 OFFCURVE",
"322 484 CURVE SMOOTH",
"254 428 OFFCURVE",
"237 401 OFFCURVE",
"237 363 CURVE SMOOTH",
"237 298 OFFCURVE",
"276 262 OFFCURVE",
"385 227 CURVE SMOOTH",
"469 200 OFFCURVE",
"500 173 OFFCURVE",
"500 126 CURVE SMOOTH",
"500 69 OFFCURVE",
"452 34 OFFCURVE",
"374 34 CURVE SMOOTH",
"315 34 OFFCURVE",
"269 52 OFFCURVE",
"221 94 CURVE",
"201 59 LINE",
"235 19 OFFCURVE",
"305 -7 OFFCURVE",
"374 -7 CURVE SMOOTH",
"475 -7 OFFCURVE",
"546 47 OFFCURVE",
"546 124 CURVE SMOOTH",
"546 194 OFFCURVE",
"504 234 OFFCURVE",
"398 268 CURVE SMOOTH",
"313 295 OFFCURVE",
"283 321 OFFCURVE",
"283 366 CURVE SMOOTH",
"283 393 OFFCURVE",
"298 417 OFFCURVE",
"348 456 CURVE SMOOTH",
"408 503 OFFCURVE",
"430 541 OFFCURVE",
"430 587 CURVE SMOOTH",
"430 662 OFFCURVE",
"374 709 OFFCURVE",
"283 709 CURVE SMOOTH",
"159 709 OFFCURVE",
"85 629 OFFCURVE",
"85 495 CURVE SMOOTH",
"85 0 LINE"
);
}
);
};
layerId = "B0DFB0A8-5D2F-4351-A1F8-6629D0DA694C";
paths = (
{
closed = 1;
nodes = (
"139 0 LINE",
"139 496 LINE SMOOTH",
"139 607 OFFCURVE",
"205 660 OFFCURVE",
"307 660 CURVE SMOOTH",
"371 660 OFFCURVE",
"433 633 OFFCURVE",
"433 583 CURVE SMOOTH",
"433 545 OFFCURVE",
"414 517 OFFCURVE",
"374 477 CURVE SMOOTH",
"316 420 OFFCURVE",
"297 387 OFFCURVE",
"297 349 CURVE SMOOTH",
"297 294 OFFCURVE",
"328 258 OFFCURVE",
"417 224 CURVE SMOOTH",
"499 193 OFFCURVE",
"526 173 OFFCURVE",
"526 126 CURVE SMOOTH",
"526 69 OFFCURVE",
"484 41 OFFCURVE",
"406 41 CURVE SMOOTH",
"343 41 OFFCURVE",
"269 55 OFFCURVE",
"217 99 CURVE",
"195 56 LINE",
"239 14 OFFCURVE",
"328 -8 OFFCURVE",
"405 -8 CURVE SMOOTH",
"506 -8 OFFCURVE",
"578 47 OFFCURVE",
"578 124 CURVE SMOOTH",
"578 194 OFFCURVE",
"534 230 OFFCURVE",
"430 271 CURVE SMOOTH",
"365 297 OFFCURVE",
"346 317 OFFCURVE",
"346 352 CURVE SMOOTH",
"346 379 OFFCURVE",
"371 410 OFFCURVE",
"410 449 CURVE SMOOTH",
"461 500 OFFCURVE",
"485 535 OFFCURVE",
"485 586 CURVE SMOOTH",
"485 661 OFFCURVE",
"406 709 OFFCURVE",
"305 709 CURVE SMOOTH",
"181 709 OFFCURVE",
"87 629 OFFCURVE",
"87 495 CURVE SMOOTH",
"87 0 LINE"
);
}
);
width = 625;
},
{
background = {
paths = (
{
closed = 1;
nodes = (
"827 0 LINE",
"827 496 LINE SMOOTH",
"827 607 OFFCURVE",
"883 668 OFFCURVE",
"985 668 CURVE SMOOTH",
"1049 668 OFFCURVE",
"1087 639 OFFCURVE",
"1087 589 CURVE SMOOTH",
"1087 554 OFFCURVE",
"1070 523 OFFCURVE",
"1022 484 CURVE SMOOTH",
"954 428 OFFCURVE",
"937 401 OFFCURVE",
"937 363 CURVE SMOOTH",
"937 298 OFFCURVE",
"976 262 OFFCURVE",
"1085 227 CURVE SMOOTH",
"1169 200 OFFCURVE",
"1200 173 OFFCURVE",
"1200 126 CURVE SMOOTH",
"1200 69 OFFCURVE",
"1152 34 OFFCURVE",
"1074 34 CURVE SMOOTH",
"1015 34 OFFCURVE",
"969 52 OFFCURVE",
"921 94 CURVE",
"901 59 LINE",
"935 19 OFFCURVE",
"1005 -7 OFFCURVE",
"1074 -7 CURVE SMOOTH",
"1175 -7 OFFCURVE",
"1246 47 OFFCURVE",
"1246 124 CURVE SMOOTH",
"1246 194 OFFCURVE",
"1204 234 OFFCURVE",
"1098 268 CURVE SMOOTH",
"1013 295 OFFCURVE",
"983 321 OFFCURVE",
"983 366 CURVE SMOOTH",
"983 393 OFFCURVE",
"998 417 OFFCURVE",
"1048 456 CURVE SMOOTH",
"1108 503 OFFCURVE",
"1130 541 OFFCURVE",
"1130 587 CURVE SMOOTH",
"1130 662 OFFCURVE",
"1074 709 OFFCURVE",
"983 709 CURVE SMOOTH",
"859 709 OFFCURVE",
"785 629 OFFCURVE",
"785 495 CURVE SMOOTH",
"785 0 LINE"
);
},
{
closed = 1;
nodes = (
"489 -8 OFFCURVE",
"560 44 OFFCURVE",
"560 126 CURVE SMOOTH",
"560 191 OFFCURVE",
"518 228 OFFCURVE",
"431 249 CURVE SMOOTH",
"348 269 LINE SMOOTH",
"286 284 OFFCURVE",
"260 310 OFFCURVE",
"260 356 CURVE SMOOTH",
"260 415 OFFCURVE",
"307 452 OFFCURVE",
"389 452 CURVE SMOOTH",
"443 452 OFFCURVE",
"492 433 OFFCURVE",
"531 393 CURVE",
"551 427 LINE",
"516 468 OFFCURVE",
"456 492 OFFCURVE",
"390 492 CURVE SMOOTH",
"285 492 OFFCURVE",
"216 437 OFFCURVE",
"216 355 CURVE SMOOTH",
"216 290 OFFCURVE",
"254 249 OFFCURVE",
"338 229 CURVE SMOOTH",
"421 209 LINE SMOOTH",
"487 193 OFFCURVE",
"516 169 OFFCURVE",
"516 124 CURVE SMOOTH",
"516 66 OFFCURVE",
"469 32 OFFCURVE",
"382 32 CURVE SMOOTH",
"324 32 OFFCURVE",
"268 48 OFFCURVE",
"220 90 CURVE",
"200 56 LINE",
"241 15 OFFCURVE",
"310 -8 OFFCURVE",
"379 -8 CURVE SMOOTH"
);
}
);
};
layerId = "F1F93986-3ED8-4AAE-84C4-CA3EEECDDFA0";
paths = (
{
closed = 1;
nodes = (
"127 0 LINE",
"127 500 LINE SMOOTH",
"127 611 OFFCURVE",
"183 674 OFFCURVE",
"285 674 CURVE SMOOTH",
"349 674 OFFCURVE",
"387 643 OFFCURVE",
"387 591 CURVE SMOOTH",
"387 554 OFFCURVE",
"370 525 OFFCURVE",
"322 486 CURVE SMOOTH",
"260 435 OFFCURVE",
"239 401 OFFCURVE",
"239 360 CURVE SMOOTH",
"239 298 OFFCURVE",
"276 262 OFFCURVE",
"385 227 CURVE SMOOTH",
"469 200 OFFCURVE",
"500 173 OFFCURVE",
"500 126 CURVE SMOOTH",
"500 68 OFFCURVE",
"452 32 OFFCURVE",
"374 32 CURVE SMOOTH",
"324 32 OFFCURVE",
"268 48 OFFCURVE",
"220 90 CURVE",
"200 56 LINE",
"241 15 OFFCURVE",
"310 -8 OFFCURVE",
"374 -8 CURVE SMOOTH",
"475 -8 OFFCURVE",
"546 46 OFFCURVE",
"546 124 CURVE SMOOTH",
"546 194 OFFCURVE",
"504 233 OFFCURVE",
"398 267 CURVE SMOOTH",
"313 294 OFFCURVE",
"283 321 OFFCURVE",
"283 362 CURVE SMOOTH",
"283 393 OFFCURVE",
"297 415 OFFCURVE",
"347 456 CURVE SMOOTH",
"407 506 OFFCURVE",
"430 541 OFFCURVE",
"430 594 CURVE SMOOTH",
"430 666 OFFCURVE",
"374 713 OFFCURVE",
"283 713 CURVE SMOOTH",
"159 713 OFFCURVE",
"85 633 OFFCURVE",
"85 499 CURVE SMOOTH",
"85 0 LINE"
);
}
);
width = 581;
}
);
leftKerningGroup = h;
leftMetricsKey = l;
rightKerningGroup = germandbls;
unicode = 00DF;
},
{
color = 5;
glyphname = schwa;
lastChange = "2019-08-06 12:42:42 +0000";
layers = (
{
background = {
paths = (
{
closed = 1;
nodes = (
"77 393 LINE",
"129 436 OFFCURVE",
"180 455 OFFCURVE",
"240 455 CURVE SMOOTH",
"359 455 OFFCURVE",
"428 379 OFFCURVE",
"428 244 CURVE SMOOTH",
"428 110 OFFCURVE",
"362 32 OFFCURVE",
"254 32 CURVE SMOOTH",
"146 32 OFFCURVE",
"91 105 OFFCURVE",
"91 227 CURVE",
"71 214 LINE",
"445 214 LINE",
"445 251 LINE",
"49 251 LINE",
"49 228 LINE SMOOTH",
"49 79 OFFCURVE",
"124 -7 OFFCURVE",
"253 -7 CURVE SMOOTH",
"386 -7 OFFCURVE",
"471 91 OFFCURVE",
"471 246 CURVE SMOOTH",
"471 402 OFFCURVE",
"382 496 OFFCURVE",
"238 496 CURVE SMOOTH",
"169 496 OFFCURVE",
"98 470 OFFCURVE",
"57 428 CURVE"
);
}
);
};
layerId = "B0DFB0A8-5D2F-4351-A1F8-6629D0DA694C";
paths = (
{
closed = 1;
nodes = (
"441 -8 OFFCURVE",
"535 92 OFFCURVE",
"535 246 CURVE SMOOTH",
"535 412 OFFCURVE",
"438 502 OFFCURVE",
"279 502 CURVE SMOOTH",
"195 502 OFFCURVE",
"126 479 OFFCURVE",
"75 434 CURVE",
"96 392 LINE",
"150 438 OFFCURVE",
"208 453 OFFCURVE",
"281 453 CURVE SMOOTH",
"402 453 OFFCURVE",
"482 380 OFFCURVE",
"482 246 CURVE SMOOTH",
"482 238 LINE SMOOTH",
"482 115 OFFCURVE",
"400 40 OFFCURVE",
"290 40 CURVE SMOOTH",
"166 40 OFFCURVE",
"117 105 OFFCURVE",
"117 227 CURVE",
"90 213 LINE",
"501 213 LINE",
"501 258 LINE",
"66 258 LINE",
"66 226 LINE SMOOTH",
"66 78 OFFCURVE",
"141 -8 OFFCURVE",
"289 -8 CURVE SMOOTH"
);
}
);
width = 606;
},
{
background = {
paths = (
{
closed = 1;
nodes = (
"76 391 LINE",
"128 434 OFFCURVE",
"179 453 OFFCURVE",
"239 453 CURVE SMOOTH",
"358 453 OFFCURVE",
"427 375 OFFCURVE",
"427 243 CURVE SMOOTH",
"427 108 OFFCURVE",
"361 30 OFFCURVE",
"253 30 CURVE SMOOTH",
"145 30 OFFCURVE",
"89 100 OFFCURVE",
"89 226 CURVE",
"70 213 LINE",
"444 213 LINE",
"444 250 LINE",
"48 250 LINE",
"48 227 LINE SMOOTH",
"48 78 OFFCURVE",
"123 -8 OFFCURVE",
"252 -8 CURVE SMOOTH",
"382 -8 OFFCURVE",
"470 90 OFFCURVE",
"470 245 CURVE SMOOTH",
"470 398 OFFCURVE",
"381 492 OFFCURVE",
"237 492 CURVE SMOOTH",
"168 492 OFFCURVE",
"97 466 OFFCURVE",
"56 424 CURVE"
);
}
);
};
layerId = "F1F93986-3ED8-4AAE-84C4-CA3EEECDDFA0";
paths = (
{
closed = 1;
nodes = (
"382 -8 OFFCURVE",
"470 90 OFFCURVE",
"470 245 CURVE SMOOTH",
"470 398 OFFCURVE",
"381 492 OFFCURVE",
"237 492 CURVE SMOOTH",
"168 492 OFFCURVE",
"97 466 OFFCURVE",
"56 424 CURVE",
"76 391 LINE",
"128 434 OFFCURVE",
"179 453 OFFCURVE",
"239 453 CURVE SMOOTH",
"358 453 OFFCURVE",
"427 375 OFFCURVE",
"427 243 CURVE SMOOTH",
"427 237 LINE SMOOTH",
"427 106 OFFCURVE",
"358 30 OFFCURVE",
"253 30 CURVE SMOOTH",
"145 30 OFFCURVE",
"89 100 OFFCURVE",
"89 226 CURVE",
"70 213 LINE",
"444 213 LINE",
"444 250 LINE",
"48 250 LINE",
"48 227 LINE SMOOTH",
"48 78 OFFCURVE",
"123 -8 OFFCURVE",
"252 -8 CURVE SMOOTH"
);
}
);
width = 523;
}
);
leftKerningGroup = o;
leftMetricsKey = "=|e";
rightKerningGroup = o;
rightMetricsKey = o;
unicode = 0259;
},
